<svg width="454" height="290" viewBox="0 0 454 290" fill="none" xmlns="http://www.w3.org/2000/svg">
<path d="M323.098 35.7462C327.875 28.139 333.809 20.7043 342.112 17.3163C349.321 14.3754 357.405 14.8617 365.153 15.5596C384.895 17.3357 404.525 20.1999 423.954 24.1393C409.162 39.7662 399.502 59.5671 396.277 80.872C366.677 82.8326 337.187 85.9854 307.806 90.3301C304.843 90.7693 308.681 66.6849 309.369 64.6224C312.772 54.4787 317.382 44.7833 323.098 35.7462Z" fill="url(#paint0_linear)"/>
<path d="M245.964 165.657L255.815 171.813L264.798 166.135L258.317 177.499L269.7 186.149L258.121 186.973L252.234 197.011L248.865 183.758L236.543 183.703L245.425 176.213L245.964 165.657Z" fill="#4F329B"/>
<path d="M346.623 210.493H346.803V210.453H346.623V210.493Z" fill="url(#paint1_linear)"/>
<path d="M288.424 146.176C300.777 170.19 318.916 195.898 340.807 216.508C340.4 219.496 340.58 222.939 340.135 225.19C338.321 234.31 331.8 240.875 324.451 246.019C318.15 250.45 311.285 254.144 305.687 259.414C298.33 266.394 293.562 275.68 292.169 285.741H401.367C399.972 275.679 395.202 266.393 387.842 259.414C382.228 254.144 375.332 250.45 369.078 246.019C361.729 240.843 355.208 234.31 353.394 225.19C352.949 222.939 353.129 219.496 352.722 216.508C374.551 195.898 392.72 170.19 405.104 146.176C405.159 146.082 405.206 145.98 405.253 145.886C416.777 123.386 422.828 98.5095 418.38 74.5193H275.149C270.7 98.5331 276.752 123.409 288.276 145.886C288.323 145.98 288.37 146.082 288.424 146.176Z" fill="url(#paint2_linear)"/>
<path d="M346.803 210.493H346.623V210.453H346.803V210.493Z" fill="url(#paint3_linear)"/>
<g style="mix-blend-mode:multiply" opacity="0.38">
<path style="mix-blend-mode:multiply" opacity="0.38" d="M323.99 196.666C320.081 189.608 317.673 181.468 315.304 173.766C305.695 142.608 301.739 109.717 301.684 77.1624C301.69 76.2628 301.805 75.3671 302.028 74.4958H275.149C270.7 98.5096 276.752 123.386 288.276 145.863C288.323 145.957 288.37 146.059 288.424 146.153C299.435 167.445 313.194 187.19 329.345 204.877C327.416 202.238 325.628 199.497 323.99 196.666Z" fill="url(#paint4_linear)"/>
<path style="mix-blend-mode:multiply" opacity="0.38" d="M365.645 195.208L366.387 194.29L367.482 192.839C367.881 192.306 368.264 191.773 368.647 191.271C369.423 190.194 370.182 189.106 370.922 188.008C372.611 185.52 374.224 182.989 375.761 180.417C378.537 175.79 381.086 171.006 383.423 166.175C384.612 163.72 385.73 161.234 386.824 158.74C386.879 158.599 386.934 158.481 386.981 158.372C387.223 157.783 387.465 157.203 387.7 156.615C388.221 155.344 388.721 154.066 389.201 152.78C393.055 142.607 396.215 132.184 398.661 121.582C399.87 116.354 400.928 111.112 401.835 105.858C402.328 102.98 402.742 100.102 403.18 97.2313V97.0902C403.258 96.4157 403.352 95.7412 403.43 95.0667C403.579 93.8825 403.712 92.7142 403.845 91.5221C404.46 85.886 404.911 80.2288 405.197 74.5508H376.59C376.707 76.9036 376.825 79.1937 376.911 81.5072C378.365 119.746 374.574 158.004 365.645 195.208Z" fill="url(#paint5_linear)"/>
<path style="mix-blend-mode:multiply" opacity="0.38" d="M401.311 285.742C399.916 275.679 395.145 266.393 387.785 259.414C382.172 254.144 375.276 250.45 369.021 246.019C367.314 244.822 365.67 243.537 364.096 242.169C365.44 256.732 367.895 271.186 369.154 285.742H401.311Z" fill="url(#paint6_linear)"/>
<path style="mix-blend-mode:multiply" opacity="0.38" d="M333.709 285.742C332.217 281.268 331.265 276.631 330.871 271.931C330.175 263.516 331.887 255.007 333.584 246.835C334.522 242.325 335.843 237.902 336.914 233.424C333.904 238.491 329.354 242.576 324.405 246.051C318.103 250.482 311.239 254.175 305.641 259.446C298.284 266.426 293.516 275.711 292.123 285.773L333.709 285.742Z" fill="url(#paint7_linear)"/>
</g>
<path d="M372.259 116.14L373.698 127.692L383.752 131.111L370.875 133.221L371.344 147.541L363.409 139.04L351.932 140.773L360.078 129.801L352.354 120.171L363.753 122.367L372.259 116.14Z" fill="#782F9A"/>
<path d="M425.48 158.324L426.152 163.72L430.851 165.32L424.831 166.3L425.05 172.99L421.344 169.021L415.98 169.829L419.788 164.708L416.176 160.207L421.5 161.234L425.48 158.324Z" fill="#C9DFF3"/>
<path d="M454.009 148.098L448.787 153.438L451.093 159.885L444.885 154.223L437.888 160.183L438.983 152.788L433.525 147.69L442.282 147.408L444.025 139.659L447.481 146.294L454.009 148.098Z" fill="#7BB8DD"/>
<path d="M279.051 127.111C269.153 132.883 259.153 139.792 253.891 150.356C252.459 153.193 251.462 156.231 250.936 159.367C250.662 161.061 253.282 161.798 253.532 160.081C255.877 145.51 268.551 136.357 280.403 129.44C280.714 129.26 280.941 128.964 281.034 128.616C281.127 128.268 281.079 127.898 280.9 127.586C280.72 127.274 280.425 127.046 280.078 126.952C279.731 126.859 279.362 126.908 279.051 127.088V127.111Z" fill="#FF661A"/>
<path d="M260.536 194.384C267.885 197.804 276.016 198.172 283.99 198.023C292.739 197.851 301.503 197.553 310.236 196.949C326.404 195.827 342.291 193.082 357.654 187.749C372.068 182.699 385.79 175.848 398.497 167.359C404.813 163.149 410.88 158.575 416.667 153.658C422.272 148.89 427.823 143.839 431.912 137.659C435.61 132.068 437.917 125.48 437.08 118.72C436.361 112.861 433.593 107.05 428.558 103.741C427.346 102.954 426.03 102.341 424.649 101.921C422.999 101.388 422.304 103.991 423.938 104.525C429.262 106.227 432.624 111.16 433.922 116.422C435.423 122.523 434.015 128.625 430.966 134.013C427.44 140.24 422.186 145.259 416.893 149.917C411.392 154.726 405.621 159.214 399.607 163.359C387.546 171.711 374.516 178.558 360.805 183.75C346.375 189.097 331.294 192.474 315.967 193.788C307.445 194.572 298.9 194.894 290.347 195.153C282.661 195.38 274.71 195.874 267.205 193.929C265.385 193.466 263.611 192.839 261.904 192.055C260.34 191.326 258.972 193.624 260.543 194.408L260.536 194.384Z" fill="#FF661A"/>
<path d="M268.549 94.6356C262.584 96.0472 259.245 101.953 258.729 107.725C258.096 114.783 262.169 121.057 266.743 126.021C271.817 131.511 277.65 136.397 283.373 141.189C289.096 145.98 295.1 150.6 301.253 154.96C313.435 163.657 326.512 171.018 340.258 176.919C353.966 182.804 368.449 186.673 383.259 188.408C396.12 189.843 410.748 189.02 421.225 180.519C422.466 179.506 423.622 178.391 424.68 177.186C425.822 175.892 423.898 173.97 422.78 175.28C414.18 185.075 400.201 186.855 387.88 186.11C373.916 185.263 360.023 181.679 346.974 176.699C333.626 171.52 320.882 164.893 308.97 156.936C296.915 148.924 285.514 139.963 274.874 130.139C269.847 125.535 264.312 120.539 262.146 113.85C260.504 108.791 261.481 102.282 265.852 98.8391C266.862 98.0562 268.031 97.5047 269.276 97.2235C270.965 96.8235 270.246 94.2199 268.565 94.6199L268.549 94.6356Z" fill="#FF661A"/>
<path d="M418.911 141.839L415.956 136.781C415.774 136.476 415.48 136.254 415.136 136.163C414.793 136.072 414.428 136.119 414.119 136.295C413.814 136.479 413.592 136.776 413.502 137.121C413.411 137.467 413.459 137.835 413.634 138.146L416.589 143.204C416.772 143.509 417.066 143.731 417.409 143.822C417.753 143.913 418.118 143.866 418.427 143.69C418.732 143.506 418.953 143.209 419.044 142.864C419.134 142.518 419.087 142.15 418.911 141.839Z" fill="#FF661A"/>
<path d="M372.259 116.14L373.698 127.692L383.752 131.111L370.875 133.221L371.344 147.541L363.409 139.04L351.932 140.773L360.078 129.801L352.354 120.171L363.753 122.367L372.259 116.14Z" fill="#782F9A"/>
<path d="M344.131 24.6648L344.264 33.2916C344.264 33.4457 344.31 33.5961 344.396 33.7243C344.481 33.8524 344.603 33.9525 344.744 34.0119C344.886 34.0713 345.042 34.0875 345.193 34.0584C345.344 34.0293 345.483 33.9563 345.593 33.8484C349.034 30.7714 352.175 27.3732 354.975 23.7C355.027 23.611 355.061 23.5126 355.075 23.4103C355.089 23.3081 355.083 23.2042 355.056 23.1044C355.03 23.0045 354.985 22.9108 354.922 22.8286C354.86 22.7465 354.782 22.6776 354.693 22.6257C354.605 22.5735 354.507 22.5394 354.405 22.5254C354.303 22.5113 354.199 22.5175 354.099 22.5437C354 22.57 353.907 22.6157 353.825 22.6782C353.743 22.7407 353.674 22.8187 353.622 22.9079C350.893 26.4663 347.835 29.759 344.49 32.7424L345.827 33.2916L345.695 24.6648C345.695 24.4568 345.612 24.2572 345.465 24.1101C345.319 23.9631 345.12 23.8806 344.913 23.8806C344.705 23.8806 344.507 23.9631 344.36 24.1101C344.213 24.2572 344.131 24.4568 344.131 24.6648Z" fill="#782F9A"/>
<path d="M333.52 44.7649C333.727 44.7649 333.926 44.6823 334.073 44.5352C334.22 44.3881 334.302 44.1887 334.302 43.9807C334.302 43.7727 334.22 43.5733 334.073 43.4262C333.926 43.2791 333.727 43.1964 333.52 43.1964C333.313 43.1964 333.114 43.2791 332.967 43.4262C332.821 43.5733 332.738 43.7727 332.738 43.9807C332.738 44.1887 332.821 44.3881 332.967 44.5352C333.114 44.6823 333.313 44.7649 333.52 44.7649Z" fill="#782F9A"/>
<path d="M332.675 44.2082L333.872 51.6507C333.904 51.7662 333.962 51.8726 334.042 51.9618C334.122 52.0511 334.222 52.1208 334.333 52.1655C334.444 52.2102 334.564 52.2288 334.683 52.2197C334.802 52.2107 334.918 52.1744 335.021 52.1135L348.226 43.2983C349.055 42.7415 348.273 41.3848 347.444 41.9416L334.239 50.7644L335.388 51.2272L334.192 43.7925C334.036 42.7965 332.527 43.22 332.683 44.2082H332.675Z" fill="#782F9A"/>
<path d="M324.906 62.8027L326.782 69.861C326.814 69.9771 326.872 70.0844 326.951 70.1746C327.031 70.2647 327.13 70.3353 327.241 70.3808C327.352 70.4263 327.472 70.4454 327.592 70.4369C327.712 70.4283 327.828 70.3924 327.932 70.3316C331.874 67.5045 335.605 64.3932 339.096 61.0224C339.823 60.3166 338.713 59.2109 337.994 59.9089C334.605 63.1963 330.978 66.2267 327.142 68.9748L328.291 69.4453L326.415 62.387C326.359 62.1863 326.226 62.0161 326.045 61.9139C325.864 61.8117 325.649 61.7858 325.449 61.8419C325.249 61.8981 325.08 62.0317 324.978 62.2134C324.876 62.395 324.85 62.6098 324.906 62.8106V62.8027Z" fill="#782F9A"/>
<g style="mix-blend-mode:multiply">
<g style="mix-blend-mode:multiply">
<path d="M101.333 97.349C106.024 96.6432 110.7 96.0314 115.36 95.5138C119.269 109.748 130.832 120.335 141.887 130.084C141.684 129.911 125.992 134.867 124.624 135.166C116.305 136.93 107.596 137.808 99.1755 136.216C81.6235 132.899 89.8405 119.292 87.6827 105.168C87.3693 103.956 87.4073 102.68 87.7922 101.49C88.5741 99.6626 90.8726 99.0822 92.835 98.7371C95.6652 98.2457 98.4979 97.7829 101.333 97.349Z" fill="#D3D3D3"/>
</g>
<g style="mix-blend-mode:multiply">
<path d="M84.9147 103.976C97.424 108.423 111.974 101.725 119.354 90.6908C126.735 79.6563 127.884 65.3985 125.609 52.3173C123.201 38.5772 115.703 24.0843 102.342 20.2258C97.7446 18.8847 92.8503 18.9396 88.089 19.4416C77.0027 20.563 65.1033 24.7981 59.7634 34.609C47.0743 57.8856 59.5679 94.957 84.9147 103.976Z" fill="#D3D3D3"/>
</g>
<g style="mix-blend-mode:multiply">
<path d="M0 67.8772C10.5234 75.7589 18.0368 85.5934 30.2959 91.7419C45.6901 99.4668 65.8613 104.87 83.1084 102.541C79.7544 102.996 73.2417 98.0474 71.5764 95.4045C69.3795 91.9302 67.761 86.8797 66.2208 83.029C62.8355 74.5748 59.9661 63.0307 65.5484 54.8431C72.3268 44.938 89.2221 49.2748 97.017 39.3854C97.8064 38.2095 98.7242 37.1259 99.7534 36.1544C105.117 31.8174 113.826 38.2404 119.776 34.6956C119.776 34.6956 125.319 60.8582 125.632 63.3835C140.698 44.7575 130.988 20.1635 112.341 8.53309C90.2933 -5.2305 59.1765 -2.04652 40.3266 15.905C24.4086 31.1037 17.5208 54.545 0 67.8772Z" fill="#D3D3D3"/>
</g>
<g style="mix-blend-mode:multiply">
<path d="M71.5775 95.4041C69.3806 91.9298 67.7621 86.8792 66.2219 83.0286C64.0954 77.7114 62.1563 71.1786 62.4065 64.9908C58.0439 67.4769 53.8064 70.1277 49.1154 72.0491C43.6181 74.2761 37.8214 75.6716 31.9152 76.1899C23.3151 76.9742 14.7151 75.5703 6.45117 73.1312C13.988 79.7817 20.6961 86.8793 30.3204 91.7103C45.7146 99.4351 65.8856 104.838 83.1328 102.509C79.7553 102.995 73.2428 98.047 71.5775 95.4041Z" fill="#D3D3D3"/>
</g>
<g style="mix-blend-mode:multiply">
<path d="M120.504 26.7979C116.868 28.3664 114.749 32.115 112.912 35.6598C115.367 35.95 117.736 35.9108 119.777 34.6952C119.777 34.6952 125.32 60.8578 125.632 63.3831C134.967 51.8468 134.788 38.0127 128.869 26.3901C126.132 25.4443 123.137 25.5903 120.504 26.7979Z" fill="#D3D3D3"/>
</g>
<g style="mix-blend-mode:multiply">
<path d="M144.106 122.735C141.416 123.676 138.5 125.394 134.896 127.394C129.64 130.235 123.742 131.671 117.771 131.563C111.801 131.454 105.959 129.805 100.808 126.774C97.5247 124.782 94.4755 122.202 90.7462 121.284C83.4986 119.512 75.8915 129.009 72.0762 134.107C63.4761 145.612 58.6991 159.501 54.2896 173.194C42.1634 210.838 29.2319 250.427 21.9766 289.122C84.9607 290.878 147.452 289.992 210.343 286.518C211.812 279.021 209.709 271.429 208.982 263.963C207.789 250.789 205.907 237.687 203.345 224.711C198.083 198.972 189.483 173.782 176.122 151.109C171.032 142.483 165.176 134.028 157.976 127.041C152.534 121.778 148.641 121.151 144.106 122.735Z" fill="#D3D3D3"/>
</g>
<g style="mix-blend-mode:multiply">
<path d="M176.311 186.008C158.282 197.082 135.742 202.117 114.742 202.282C92.9211 202.454 68.0588 198.188 50.8977 183.726C40.2648 216.798 29.4835 251.132 22.8066 284.894C30.2418 274.699 37.5598 264.182 46.9026 255.65C56.2455 247.117 67.6367 241.235 80.5213 240.475C95.376 239.588 109.902 239.133 124.546 235.934C139.19 232.734 153.685 227.589 166.546 219.566C177.875 212.508 189.117 202.791 193.949 190.024C192.343 185.391 190.59 180.809 188.687 176.276C184.978 180.02 180.821 183.289 176.311 186.008Z" fill="#D3D3D3"/>
</g>
<g style="mix-blend-mode:multiply">
<path d="M171.151 194.384C174.794 191.122 152.019 187.75 151.198 187.577C142.631 185.82 134.287 183.108 126.32 179.491C109.927 172.121 95.4499 161.056 84.0158 147.157C72.39 132.915 59.6384 121.48 47.4027 142.451C40.2177 154.78 39.7877 172.3 47.4027 184.542C54.705 196.306 67.5428 203.842 80.9511 207.183C94.3595 210.524 108.425 210.062 122.177 208.752C139.526 207.105 157.437 206.658 171.151 194.384Z" fill="#D3D3D3"/>
</g>
<g style="mix-blend-mode:multiply">
<path d="M47.4418 206.564C41.1872 201.419 37.9974 192.855 40.1005 184.816C40.6009 182.919 41.844 180.762 43.7985 180.848C45.542 180.927 46.6053 182.723 47.4809 184.236C50.7333 189.828 56.7925 192.447 58.2311 198.635C58.6886 200.145 59.5103 201.519 60.6235 202.635C64.5326 207.073 69.4112 210.061 74.6964 212.595C68.5434 216.884 56.0106 211.857 50.3502 208.579C49.3253 207.992 48.3523 207.317 47.4418 206.564Z" fill="#D3D3D3"/>
</g>
<g style="mix-blend-mode:multiply">
<path d="M60.6458 202.635C59.5327 201.519 58.7111 200.145 58.2536 198.635C57.3467 194.714 54.5867 192.228 51.8581 189.514C48.3399 196.572 52.64 205.324 58.0268 212.108C63.828 214.202 70.6534 215.426 74.7033 212.595C69.4338 210.061 64.5863 207.105 60.6458 202.635Z" fill="#D3D3D3"/>
</g>
<g style="mix-blend-mode:multiply">
<path d="M64.4617 196.125C61.4954 196.509 58.5084 196.708 55.5176 196.721C59.8333 206.321 70.427 211.332 80.5361 214.179C101.645 220.116 124.318 219.669 145.287 213.653C161.744 208.909 191.274 197.796 196.403 179.546C198.365 172.59 198.092 165.14 196.559 158.066C194.824 150.027 191.376 142.177 185.614 136.358C180.039 130.758 165.56 122.5 159.681 131.613C157.976 134.256 157.272 137.401 156.217 140.357C150.017 157.744 132.371 167.806 116.078 176.386C99.7847 184.965 82.6235 193.773 64.4617 196.125Z" fill="#D3D3D3"/>
</g>
</g>
<path d="M105.898 97.349C110.558 96.6432 115.233 96.0314 119.924 95.5138C123.833 109.748 135.396 120.335 146.451 130.084C146.248 129.911 130.557 134.867 129.189 135.166C120.862 136.93 112.16 137.808 103.74 136.216C86.188 132.899 94.4051 119.292 92.2472 105.168C91.9338 103.956 91.9717 102.68 92.3566 101.49C93.1775 99.6626 95.4291 99.0822 97.3993 98.7371C100.23 98.2457 103.062 97.7829 105.898 97.349Z" fill="#DDC69B"/>
<path d="M89.4811 103.976C101.99 108.423 116.54 101.725 123.921 90.6908C131.301 79.6563 132.45 65.3985 130.175 52.3173C127.767 38.5772 120.27 24.0843 106.908 20.2258C102.311 18.8847 97.4167 18.9396 92.6554 19.4416C81.5691 20.563 69.6697 24.7981 64.3298 34.609C51.6407 57.8856 64.1343 94.957 89.4811 103.976Z" fill="#DDC69B"/>
<path d="M4.56445 67.8771C15.0879 75.7588 22.6012 85.5932 34.8603 91.7418C50.2545 99.4666 70.4257 104.87 87.6729 102.541C84.3188 102.996 77.8062 98.0473 76.1331 95.4043C73.944 91.9301 72.3257 86.8795 70.7855 83.0288C67.4002 74.5746 64.5308 63.0305 70.113 54.8429C76.8915 44.9379 93.7868 49.2746 101.582 39.3852C102.371 38.2094 103.289 37.1258 104.318 36.1542C109.681 31.8173 118.391 38.2402 124.341 34.6954C124.341 34.6954 129.884 60.8581 130.197 63.3833C145.262 44.7574 135.552 20.1634 116.906 8.53295C94.858 -5.23064 63.702 -2.04666 44.8912 15.9048C28.9732 31.1036 22.0852 54.5448 4.56445 67.8771Z" fill="#6E2A87"/>
<path d="M76.1342 95.4041C73.945 91.9298 72.3268 86.8792 70.7866 83.0286C68.66 77.7114 66.721 71.1786 66.9711 64.9908C62.6085 67.4769 58.371 70.1277 53.6801 72.0491C48.1828 74.2763 42.3861 75.6719 36.4798 76.1899C27.8797 76.9742 19.2795 75.5703 11.0234 73.1312C18.5603 79.7817 25.2606 86.8793 34.8927 91.7103C50.2869 99.4351 70.4581 104.838 87.7053 102.509C84.3199 102.995 77.8073 98.047 76.1342 95.4041Z" fill="#56246B"/>
<path d="M125.062 26.7979C121.435 28.3664 119.316 32.115 117.479 35.6598C119.933 35.95 122.302 35.9108 124.343 34.6952C124.343 34.6952 129.886 60.8578 130.199 63.3831C139.534 51.8468 139.346 38.0127 133.428 26.3901C130.69 25.4443 127.695 25.5903 125.062 26.7979Z" fill="#56246B"/>
<path d="M148.672 122.735C145.983 123.676 143.059 125.394 139.462 127.394C134.206 130.235 128.308 131.671 122.338 131.563C116.367 131.454 110.525 129.805 105.375 126.774C102.091 124.782 99.0419 122.202 95.3126 121.284C88.0572 119.512 80.4579 129.009 76.6426 134.107C68.0425 145.612 63.2655 159.501 58.856 173.194C46.7298 210.838 33.8374 250.427 26.543 289.122C89.5271 290.878 152.019 289.992 214.909 286.518C216.379 279.02 214.268 271.429 213.549 263.963C212.355 250.789 210.474 237.687 207.912 224.711C202.65 198.972 194.042 173.782 180.688 151.109C175.599 142.483 169.743 134.028 162.542 127.041C157.101 121.778 153.207 121.151 148.672 122.735Z" fill="url(#paint8_linear)"/>
<path style="mix-blend-mode:multiply" d="M180.877 186.008C162.848 197.082 140.3 202.117 119.308 202.282C97.4873 202.454 72.6252 198.188 55.4641 183.726C44.8234 216.798 34.0499 251.132 27.373 284.894C34.8082 274.699 42.1182 264.182 51.4689 255.65C60.8195 247.117 72.2031 241.235 85.0486 240.474C99.9033 239.588 114.43 239.133 129.073 235.934C143.717 232.734 158.212 227.589 171.065 219.566C182.402 212.508 193.644 202.791 198.476 190.024C196.866 185.391 195.112 180.809 193.214 176.276C189.517 180.017 185.373 183.286 180.877 186.008Z" fill="url(#paint9_linear)"/>
<path d="M175.716 194.384C179.359 191.122 156.577 187.749 155.756 187.577C147.192 185.819 138.85 183.107 130.886 179.491C114.492 172.121 100.015 161.056 88.5813 147.157C76.9555 132.915 64.2038 121.48 51.9604 142.451C44.7832 154.78 44.3454 172.3 51.9604 184.542C59.2627 196.306 72.0924 203.842 85.5086 207.183C98.9248 210.524 112.982 210.061 126.734 208.752C144.091 207.105 162.003 206.658 175.716 194.384Z" fill="url(#paint10_linear)"/>
<path d="M52.0318 206.564C45.7772 201.419 42.5872 192.855 44.6903 184.816C45.1907 182.919 46.4338 180.762 48.3884 180.848C50.1318 180.926 51.1951 182.722 52.0707 184.236C55.3231 189.828 61.3823 192.447 62.8209 198.635C63.2784 200.145 64.1002 201.519 65.2133 202.635C69.1225 207.073 74.0011 210.061 79.2862 212.594C73.1332 216.884 60.6006 211.857 54.9324 208.579C53.9111 207.99 52.9409 207.315 52.0318 206.564Z" fill="#DDC69B"/>
<g style="mix-blend-mode:multiply">
<path d="M65.2128 202.635C64.0996 201.519 63.2778 200.145 62.8203 198.635C61.9134 194.714 59.1458 192.228 56.4172 189.514C52.9068 196.572 57.1989 205.324 62.5936 212.108C68.3947 214.202 75.2202 215.426 79.27 212.594C74.024 210.061 69.1532 207.105 65.2128 202.635Z" fill="#DDC69B"/>
</g>
<path d="M69.0282 196.125C66.062 196.509 63.0748 196.708 60.084 196.721C64.3997 206.32 74.9935 211.332 85.1025 214.179C106.212 220.115 128.885 219.668 149.854 213.653C166.311 208.909 195.841 197.796 200.97 179.546C202.932 172.59 202.651 165.139 201.126 158.066C199.39 150.027 195.942 142.177 190.18 136.358C184.606 130.758 170.126 122.5 164.239 131.613C162.543 134.256 161.839 137.4 160.776 140.357C154.584 157.744 136.938 167.806 120.644 176.386C104.351 184.965 87.1589 193.772 69.0282 196.125Z" fill="url(#paint11_linear)"/>
<defs>
<linearGradient id="paint0_linear" x1="306.696" y1="52.6782" x2="423.954" y2="52.6782" gradientUnits="userSpaceOnUse">
<stop stop-color="#DBFFFF"/>
<stop offset="1" stop-color="#77A8FF"/>
</linearGradient>
<linearGradient id="paint1_linear" x1="346.623" y1="210.477" x2="346.803" y2="210.477" gradientUnits="userSpaceOnUse">
<stop stop-color="#FCF72D"/>
<stop offset="0.53" stop-color="#F7C03E"/>
<stop offset="1" stop-color="#FF6E1E"/>
</linearGradient>
<linearGradient id="paint2_linear" x1="273.687" y1="180.119" x2="419.74" y2="180.119" gradientUnits="userSpaceOnUse">
<stop stop-color="#FB852F"/>
<stop offset="0.21" stop-color="#FBE931"/>
<stop offset="0.53" stop-color="#F7C03E"/>
<stop offset="1" stop-color="#FF6E1E"/>
</linearGradient>
<linearGradient id="paint3_linear" x1="947.561" y1="112.823" x2="981.168" y2="112.823" gradientUnits="userSpaceOnUse">
<stop stop-color="#FCF72D"/>
<stop offset="0.53" stop-color="#F7C03E"/>
<stop offset="1" stop-color="#FF6E1E"/>
</linearGradient>
<linearGradient id="paint4_linear" x1="273.687" y1="139.698" x2="419.74" y2="139.698" gradientUnits="userSpaceOnUse">
<stop stop-color="#F7A356"/>
<stop offset="0.53" stop-color="#F7C03E"/>
<stop offset="1" stop-color="#FF6E1E"/>
</linearGradient>
<linearGradient id="paint5_linear" x1="132487" y1="-311598" x2="139875" y2="-311598" gradientUnits="userSpaceOnUse">
<stop stop-color="#F7A356"/>
<stop offset="0.53" stop-color="#F7C03E"/>
<stop offset="1" stop-color="#FF6E1E"/>
</linearGradient>
<linearGradient id="paint6_linear" x1="124677" y1="-105140" x2="131629" y2="-105140" gradientUnits="userSpaceOnUse">
<stop stop-color="#F7A356"/>
<stop offset="0.53" stop-color="#F7C03E"/>
<stop offset="1" stop-color="#FF6E1E"/>
</linearGradient>
<linearGradient id="paint7_linear" x1="149911" y1="-126665" x2="158279" y2="-126665" gradientUnits="userSpaceOnUse">
<stop stop-color="#F7A356"/>
<stop offset="0.53" stop-color="#F7C03E"/>
<stop offset="1" stop-color="#FF6E1E"/>
</linearGradient>
<linearGradient id="paint8_linear" x1="45.0567" y1="177.923" x2="398.158" y2="388.88" gradientUnits="userSpaceOnUse">
<stop stop-color="#FFA055"/>
<stop offset="0.01" stop-color="#F79058"/>
<stop offset="0.49" stop-color="#AA0076"/>
<stop offset="0.62" stop-color="#EB8658"/>
</linearGradient>
<linearGradient id="paint9_linear" x1="39.1552" y1="187.804" x2="392.257" y2="398.761" gradientUnits="userSpaceOnUse">
<stop stop-color="#FFA055"/>
<stop offset="0.49" stop-color="#AA0076"/>
<stop offset="0.62" stop-color="#EB8658"/>
</linearGradient>
<linearGradient id="paint10_linear" x1="39.0289" y1="124.155" x2="224.303" y2="286.17" gradientUnits="userSpaceOnUse">
<stop stop-color="#FFA055"/>
<stop offset="0.3" stop-color="#AA0076"/>
<stop offset="0.62" stop-color="#EB8658"/>
</linearGradient>
<linearGradient id="paint11_linear" x1="447874" y1="-231340" x2="454925" y2="-214423" gradientUnits="userSpaceOnUse">
<stop stop-color="#FFA055"/>
<stop offset="0.49" stop-color="#AA0076"/>
<stop offset="0.62" stop-color="#EB8658"/>
</linearGradient>
</defs>
</svg>
