<svg width="411" height="291" viewBox="0 0 411 291" fill="none" xmlns="http://www.w3.org/2000/svg">
<path d="M386.563 0H288.648C285.633 16.3693 289.734 33.3416 297.618 48.6859L297.724 48.8819C306.952 66.7069 319.054 82.8908 333.543 96.784C333.256 98.8188 333.392 101.155 333.075 102.693C331.839 108.918 327.377 113.379 322.342 116.906C318.045 119.921 313.296 122.438 309.497 126.041C303.908 131.323 300.521 138.521 300.015 146.193C312.111 145.02 324.283 144.849 336.407 145.681V145.862L337.598 145.771L338.789 145.862C338.796 145.802 338.796 145.741 338.789 145.681C350.908 144.849 363.075 145.021 375.166 146.193C374.673 138.517 371.284 131.315 365.683 126.041C361.854 122.438 357.151 119.921 352.839 116.906C347.804 113.379 343.342 108.918 342.106 102.693C341.804 101.185 341.925 98.8188 341.653 96.784C356.143 82.8686 368.244 66.6648 377.472 48.8216L377.563 48.6256C385.462 33.3415 389.608 16.3693 386.563 0Z" fill="#FFD108"/>
<path d="M34.6736 199.597C40.0103 198.828 45.2263 200.517 50.2766 201.753C51.5429 202.069 64.9449 206.908 64.3268 208.068C60.1057 215.936 54.8444 223.141 50.5932 230.979C47.8394 236.004 45.3268 241.199 43.0555 246.565C38.4667 257.363 34.9327 268.579 32.5027 280.057L29.6083 279.288C28.1007 271.978 29.8796 264.411 31.8243 257.206C35.8947 242.133 40.6334 227.251 46.0404 212.56C46.764 210.616 47.156 207.842 45.2565 207.043C37.9902 226.638 27.4374 244.982 20.2163 264.652C18.821 268.905 17.1543 273.064 15.2263 277.103C14.4274 278.61 9.60323 272.716 9.67861 271.827C9.67861 271.284 10.1912 270.877 10.5831 270.47C11.8434 268.94 12.7218 267.132 13.1459 265.195C19.5078 244.093 24.558 222.463 32.156 201.707C32.3097 201.09 32.6459 200.533 33.1208 200.11C33.5813 199.799 34.1187 199.622 34.6736 199.597Z" fill="#DDC69B"/>
<path style="mix-blend-mode:multiply" opacity="0.57" d="M52.2213 227.362L51.9348 227L51.362 226.231C49.9392 223.97 48.336 221.828 46.568 219.825C45.8374 219.063 45.0232 218.385 44.1409 217.805L46.0404 212.56C46.764 210.616 47.1559 207.842 45.2715 207.043C44.0956 210.193 42.8444 213.299 41.5328 216.388C40.2968 215.857 39.0152 215.438 37.7037 215.137C35.8796 214.7 34.0102 214.429 32.2162 213.886C31.9901 213.886 30.8745 213.359 31.4625 213.645L30.4373 213.133C29.8042 212.786 29.2012 212.394 28.5981 212.002C29.7288 208.551 30.9047 205.114 32.1559 201.707C32.3096 201.09 32.6459 200.533 33.1208 200.11C33.5683 199.807 34.0889 199.63 34.6283 199.597C39.965 198.828 45.1811 200.517 50.2313 201.753C51.4976 202.069 64.8996 206.908 64.2816 208.068C60.6635 214.791 56.3067 221.061 52.4625 227.663L52.2213 227.362Z" fill="url(#paint0_linear)"/>
<path d="M40.9149 288.83C40.7959 289.33 40.5395 289.787 40.1745 290.149C39.8096 290.511 39.3507 290.764 38.8495 290.879C37.8377 291.097 36.7832 290.991 35.8345 290.578C34.5314 289.975 33.3633 289.116 32.3998 288.051C31.4363 286.987 30.6971 285.739 30.2264 284.383C29.6837 282.966 27.6335 276.846 28.6284 275.61C29.6234 274.374 32.5631 275.882 33.3621 276.922C34.6134 278.52 35.141 280.509 36.4978 282.107C37.8546 283.705 41.3973 286.237 40.9149 288.83Z" fill="#7BB8DD"/>
<path d="M16.6585 285.197C16.9321 286.083 16.8455 287.042 16.4173 287.865C16.1496 288.162 15.813 288.389 15.4372 288.525C15.0613 288.662 14.6576 288.704 14.2615 288.649C13.2494 288.518 12.287 288.133 11.4644 287.529C10.6418 286.926 9.98584 286.123 9.55798 285.197C8.72811 283.3 8.35133 281.236 8.45748 279.168C8.42394 276.802 8.7182 274.443 9.33185 272.159C9.63336 271.089 10.3419 269.837 11.4424 269.958C13.2665 270.169 16.7339 272.445 17.0052 274.314C17.2163 275.821 16.4324 277.751 16.3419 279.243C16.2298 281.233 16.336 283.23 16.6585 285.197Z" fill="#7BB8DD"/>
<path d="M28.387 276.394C30.2389 280.45 32.7107 284.192 35.7137 287.488L35.9247 287.684L36.9348 289.191L37.0403 289.357C37.1998 289.654 37.3919 289.932 37.6132 290.186L38.2011 291C37.3919 291.038 36.5842 290.899 35.8343 290.593C34.5312 289.99 33.3631 289.131 32.3996 288.066C31.4361 287.002 30.6969 285.754 30.2262 284.398C29.7589 283.162 28.1006 278.489 28.387 276.394Z" fill="#7B93DD"/>
<path d="M9.33185 272.204C9.63336 271.134 10.3419 269.883 11.4424 270.003C11.7518 270.043 12.0554 270.119 12.3469 270.229C10.7748 275.8 10.3896 281.639 11.2163 287.367C10.5186 286.767 9.95376 286.028 9.55798 285.197C8.72811 283.3 8.35133 281.236 8.45748 279.168C8.42811 276.817 8.72233 274.474 9.33185 272.204Z" fill="#7B93DD"/>
<path d="M161.291 103.883C161.804 103.708 162.275 103.429 162.674 103.063C163.074 102.697 163.393 102.253 163.613 101.758C161.533 100.628 160.055 101.381 161.322 98.653C162.196 96.7689 164.171 95.4424 164.97 93.5131C165.935 91.1617 164.608 90.4985 161.955 91.2823C157.809 92.5786 154.085 97.9144 151.085 100.869C149.729 102.21 148.251 103.883 148.628 105.752C148.689 106.107 148.836 106.441 149.057 106.725C149.278 107.009 149.566 107.234 149.894 107.38C151.055 107.817 153.829 106.28 154.93 105.873C157.092 105.353 159.218 104.688 161.291 103.883Z" fill="#DDC69B"/>
<path d="M92.065 83.2182C94.6731 85.3435 98.4871 85.0722 101.517 86.5192C102.674 87.0848 103.698 87.8891 104.522 88.8789C105.346 89.8687 105.95 91.0217 106.296 92.262C107.02 95.0506 106.387 98.1405 107.578 100.763C108.09 101.864 108.889 102.798 109.372 103.914C109.833 104.982 109.997 106.156 109.846 107.31C109.695 108.465 109.234 109.557 108.512 110.47C106.643 112.776 103.326 113.605 101.623 116.047C101.11 116.786 100.779 117.63 100.236 118.353C99.5008 119.245 98.5588 119.943 97.4919 120.387C96.4251 120.831 95.2659 121.007 94.1153 120.901C93.1895 120.78 92.2521 120.78 91.3263 120.901C89.3515 121.293 87.9947 123.222 86.065 123.765C82.9444 124.624 80.1253 121.67 77.0198 120.991C73.9143 120.313 70.4771 122.077 67.1454 122.499C63.2409 122.936 59.3967 121.413 55.869 119.665C53.8418 118.397 51.5725 117.565 49.2057 117.223C46.8691 117.102 44.6831 118.037 42.2711 118.248C39.859 118.459 37.1454 117.54 36.5273 115.233C38.5912 113.315 41.0077 111.815 43.6429 110.817C49.462 108.631 56.4871 108.797 60.9947 104.501C62.5022 103.115 63.5273 101.351 65.0198 99.9794C69.0148 96.2865 75.0449 96.1961 80.2007 94.4627C81.3697 94.1768 82.4647 93.646 83.4133 92.9055C84.3618 92.1649 85.1423 91.2315 85.7032 90.1669C86.0952 89.157 86.1706 88.0265 86.5625 87.0015C86.8709 86.3112 87.3194 85.6925 87.8796 85.1846C88.4397 84.6768 89.0993 84.2909 89.8166 84.0514C90.5338 83.8119 91.293 83.724 92.0459 83.7933C92.7989 83.8627 93.5293 84.0877 94.1906 84.4542" fill="url(#paint1_linear)"/>
<path d="M92.4725 115.264C90.8875 118.683 90.1827 122.445 90.4223 126.207C87.6439 125.08 85.0118 123.623 82.5831 121.865C82.4817 121.809 82.3981 121.726 82.3419 121.624C82.3238 121.513 82.3351 121.399 82.3748 121.293C82.4144 121.187 82.4811 121.093 82.568 121.021C83.8555 119.405 84.7485 117.511 85.1761 115.49C85.8243 112.475 85.4022 109.038 85.4776 105.903C85.4776 104.607 85.6585 103.1 86.759 102.421C87.179 102.192 87.6523 102.077 88.1308 102.09C89.0181 102.116 89.8845 102.364 90.6509 102.812C91.4174 103.259 92.0592 103.892 92.5178 104.652C93.419 106.187 93.8391 107.956 93.7238 109.732C93.598 111.63 93.1758 113.496 92.4725 115.264Z" fill="#DDC69B"/>
<path d="M89.8041 183.921C88.5361 190.129 86.751 196.219 84.4674 202.129C82.3568 207.028 81.4523 212.364 78.4372 216.871C77.2161 214.806 74.8191 213.856 72.5729 212.967C70.7063 212.106 68.6874 211.625 66.6332 211.55C64.8295 211.763 63.0517 212.157 61.3267 212.726C58.9823 213.259 56.5543 213.312 54.1889 212.882C51.8235 212.452 49.5696 211.547 47.5629 210.224C45.2865 208.716 43.3267 206.636 40.7337 205.702C34.3418 203.576 27.799 209.621 21.1357 208.942C15.6332 208.37 10.99 203.365 5.51763 204.074C3.76888 204.3 1.92969 205.099 0.316622 204.375C-0.648202 201.602 1.10054 198.663 2.77391 196.236C5.68346 192.015 8.80406 187.705 13.0101 184.841C19.3568 180.59 28.2815 179.505 32.2463 172.978C33.3616 170.79 34.2604 168.498 34.9297 166.135C37.1084 160.09 41.0527 154.839 46.2513 151.062C50.2463 148.198 54.8593 146.269 58.8091 143.329C59.1709 143.058 59.5176 142.772 59.8794 142.47C64.4021 138.657 67.6885 133.532 71.4724 128.905C74.0654 125.784 80.3217 118.353 85.0403 119.861C86.186 120.223 87.1207 121.368 88.2815 121.835C90.799 122.86 91.4322 122.167 92.0352 125.106C92.8342 129.204 93.378 133.347 93.6634 137.511C94.2088 145.666 94.113 153.85 93.3769 161.99C92.7538 169.382 91.5593 176.714 89.8041 183.921Z" fill="url(#paint2_linear)"/>
<path d="M34.7335 205.054C35.5023 204.134 36.241 203.185 36.9496 202.235C37.1305 202.024 37.2963 201.798 37.4621 201.587L38.3667 200.471C39.7878 198.599 41.5036 196.97 43.4471 195.648C45.9594 194.306 48.6142 193.249 51.3616 192.498C53.9476 191.698 56.4049 190.531 58.6581 189.031C62.8039 186.016 66.1958 182.263 69.9647 178.826C70.8843 177.982 71.8491 177.199 72.7988 176.4L73.5526 175.872C73.9596 175.601 74.3667 175.33 74.7888 175.073C75.2109 174.817 75.7988 174.561 76.2963 174.29C76.7724 174.506 77.2825 174.639 77.8039 174.681C77.8039 174.681 77.8039 174.787 77.8039 174.832C77.8039 174.832 77.8943 175.48 77.9094 175.631C77.9094 176.038 77.9094 176.43 77.9094 176.837C77.9094 177.651 77.9094 178.465 77.9094 179.279L77.8189 180.183C77.8189 180.108 77.8189 180.635 77.7134 180.892C77.5928 181.585 77.4571 182.278 77.3064 182.972C76.9446 184.569 76.5074 186.152 76.025 187.72C75.0451 190.855 73.8993 193.93 72.7687 197.02C70.8273 201.774 69.4167 206.728 68.5626 211.791C67.8982 211.655 67.2206 211.595 66.5425 211.61C64.7388 211.824 62.961 212.218 61.236 212.786C58.8916 213.319 56.4637 213.372 54.0983 212.942C51.7328 212.512 49.4789 211.608 47.4722 210.284C45.1958 208.777 43.236 206.697 40.643 205.762C38.44 205.131 36.0984 205.173 33.9194 205.883C34.236 205.611 34.4923 205.31 34.7335 205.054Z" fill="url(#paint3_linear)"/>
<path d="M104.488 100.281C104.212 101.777 104.016 103.286 103.9 104.803C103.836 106.058 104.08 107.31 104.608 108.45C103.934 108.154 103.204 108.005 102.468 108.013C101.91 108.255 101.246 109.521 100.809 110.003C99.539 111.333 98.0691 112.457 96.4525 113.334C95.9273 113.67 95.3257 113.867 94.7038 113.907C93.3018 113.907 92.2766 112.671 91.4626 111.54C88.7942 107.832 87.3621 104.984 88.3269 100.477C88.6912 98.0808 89.5263 95.7807 90.7842 93.709C94.2666 88.8254 100.628 91.3275 103.538 95.5329C104.445 96.9382 104.784 98.6351 104.488 100.281Z" fill="#DDC69B"/>
<path d="M90.9952 133.472C84.8444 135.235 79.5831 137.3 77.2313 143.767C75.9952 147.188 75.7238 151.198 77.5781 154.318C82.4776 162.337 92.156 159.925 98.8193 156.292C103.821 153.389 108.478 149.93 112.704 145.982C115.719 143.284 152.367 107.727 152.442 107.802C152.518 107.878 152.684 107.546 152.548 107.365L149.307 103.341C149.264 103.269 149.207 103.207 149.14 103.157C149.073 103.108 148.996 103.073 148.915 103.054C148.792 103.047 148.671 103.078 148.568 103.145C143.266 105.517 138.107 108.194 133.116 111.164C124.387 116.379 115.96 122.242 106.9 126.93C101.828 129.631 96.5 131.822 90.9952 133.472Z" fill="url(#paint4_linear)"/>
<path d="M99.844 102.271C96.8289 102.693 93.045 103.22 92.1706 106.144C91.8993 107.003 91.9746 107.953 91.7334 108.827C91.3185 109.805 90.6524 110.657 89.8026 111.294C88.9528 111.932 87.9495 112.334 86.8942 112.46C82.3716 113.349 77.849 111.842 73.3264 110.576C66.5274 108.646 59.1857 107.275 52.4772 109.46C48.2108 110.862 43.8691 113.666 39.6028 112.279C39.1161 112.08 38.6112 111.929 38.0953 111.827C36.0299 111.601 34.6731 113.816 33.045 115.113C30.8892 116.846 27.9043 117.027 25.1455 117.133C25.4018 115.505 27.4219 114.977 28.6581 113.892C30.8892 111.962 30.4068 108.466 30.7988 105.541C31.2209 102.837 32.5133 100.344 34.4802 98.4397C36.447 96.5357 38.9811 95.3247 41.6983 94.9902C46.2209 94.5531 51.3013 96.6181 55.2661 94.3572C59.2309 92.0962 60.0902 86.3233 63.1053 82.6454C65.5534 79.9109 68.9591 78.2219 72.6179 77.9276C76.246 77.6551 79.8945 77.9604 83.4269 78.832C84.9431 79.2733 86.5342 79.3964 88.1003 79.1937C89.6078 78.8923 90.9948 77.9276 92.6229 77.5809C95.638 76.9328 98.4721 78.6209 101.02 80.2488C102.655 81.1284 104.08 82.3524 105.196 83.8362C105.919 84.9516 106.266 86.278 106.96 87.4236C108.859 90.7547 112.718 92.88 109.764 96.7839C107.315 99.855 103.747 101.828 99.844 102.271Z" fill="url(#paint5_linear)"/>
<path d="M268.689 62.1612L275.427 66.3666L281.563 62.4777L277.131 70.2253L284.925 76.1339L276.995 76.6916L272.97 83.5348L270.663 74.506L262.236 74.4608L268.312 69.351L268.689 62.1612Z" fill="#4F329B"/>
<g style="mix-blend-mode:multiply" opacity="0.38">
<path style="mix-blend-mode:multiply" opacity="0.38" d="M322.07 83.3087C319.549 78.3257 317.558 73.0918 316.131 67.693C309.765 46.3219 306.62 24.1218 306.799 1.82384C306.794 1.21036 306.859 0.598339 306.995 0H288.648C285.633 16.3693 289.734 33.3415 297.618 48.6859L297.724 48.8818C305.261 63.3949 314.673 76.8548 325.719 88.9158C324.4 87.1152 323.182 85.2433 322.07 83.3087Z" fill="url(#paint6_linear)"/>
<path style="mix-blend-mode:multiply" opacity="0.38" d="M350.563 82.3139L351.076 81.6808L351.829 80.701L352.628 79.6007C353.156 78.8621 353.669 78.0934 354.136 77.3699C355.282 75.6817 356.397 73.9483 357.452 72.1998C359.337 69.0496 361.086 65.7938 362.684 62.4928C363.498 60.8197 364.267 59.1164 365.005 57.4132L365.126 57.172C365.292 56.7651 365.457 56.3731 365.608 55.9662C365.97 55.107 366.302 54.2328 366.648 53.3585C369.276 46.4163 371.437 39.306 373.116 32.0754C373.945 28.5333 374.623 24.9459 375.287 21.3585C375.618 19.399 375.905 17.4244 376.206 15.4649V15.3896C376.206 14.9223 376.327 14.4701 376.372 14.0029C376.478 13.204 376.568 12.39 376.658 11.5912C377.081 7.73247 377.382 3.87377 377.593 0.0150757H357.995C358.086 1.60277 358.161 3.18544 358.221 4.76308C359.237 30.8422 356.661 56.937 350.563 82.3139Z" fill="url(#paint7_linear)"/>
<path style="mix-blend-mode:multiply" opacity="0.38" d="M353.05 145.244C360.439 145.211 367.825 145.548 375.181 146.254C374.687 138.578 371.298 131.375 365.698 126.101C361.869 122.499 357.166 119.981 352.854 116.967C351.693 116.138 350.562 115.264 349.477 114.344C350.442 124.669 352.221 134.919 353.05 145.244Z" fill="url(#paint8_linear)"/>
<path style="mix-blend-mode:multiply" opacity="0.38" d="M326.759 134.632C326.292 128.89 327.452 123.086 328.628 117.494C329.261 114.48 330.136 111.465 330.905 108.36C328.683 111.795 325.766 114.727 322.342 116.967C318.045 119.981 313.297 122.499 309.498 126.101C303.908 131.383 300.522 138.581 300.015 146.254C309.704 145.322 319.444 145.03 329.171 145.379C327.884 141.923 327.072 138.307 326.759 134.632Z" fill="url(#paint9_linear)"/>
</g>
<path d="M355.085 28.3976L356.065 36.2808L362.94 38.602L354.136 40.049L354.452 49.8013L349.025 44.0132L341.171 45.1889L346.749 37.7127L341.457 31.1409L349.266 32.6482L355.085 28.3976Z" fill="#782F9A"/>
<path d="M391.493 57.1569L391.945 60.8348L395.171 61.9351L391.04 62.5983L391.191 67.1654L388.658 64.4523L384.995 65.01L387.603 61.5131L385.131 58.4382L388.764 59.1466L391.493 57.1569Z" fill="#C9DFF3"/>
<path d="M411 50.1932L407.427 53.8258L409.01 58.2271L404.774 54.3684L399.98 58.4381L400.734 53.3887L396.995 49.9068L402.98 49.7109L404.186 44.4353L406.538 48.9572L411 50.1932Z" fill="#7BB8DD"/>
<path d="M103.13 288.89H383.623V138.159H270.904C271.588 149.935 271.653 161.738 271.1 173.521L171.211 174.666C169.723 193.481 169.653 212.38 171 231.205L104.578 231.477L103.13 288.89Z" fill="url(#paint10_linear)"/>
<path d="M291.317 35.8437C282.799 40.8178 273.799 47.4499 272.081 57.8503C271.885 59.0109 273.588 59.5083 273.86 58.3326C275.503 48.3844 284.111 42.1743 292.236 37.4414C292.448 37.3195 292.603 37.1184 292.667 36.8824C292.73 36.6463 292.697 36.3947 292.576 36.1828C292.454 35.9709 292.252 35.8162 292.016 35.7526C291.78 35.689 291.529 35.7217 291.317 35.8437Z" fill="#FFA608"/>
<path d="M278.653 81.7109C283.527 83.6637 288.774 84.513 294.015 84.198C300.211 84.198 306.437 83.8814 312.618 83.4594C323.916 82.8035 335.073 80.6181 345.784 76.9629C355.917 73.3652 365.544 68.4764 374.427 62.4174C378.766 59.4569 382.929 56.246 386.894 52.8008C390.798 49.6628 394.159 45.9048 396.844 41.6769C398.119 39.6297 398.974 37.3495 399.36 34.9689C399.746 32.5882 399.654 30.1547 399.09 27.8098C398.62 25.7336 397.637 23.8083 396.231 22.21C394.824 20.6117 393.04 19.3913 391.04 18.6604C389.925 18.2836 389.427 20.0622 390.558 20.439C392.432 21.1778 394.074 22.4072 395.31 23.9984C396.546 25.5895 397.331 27.4839 397.583 29.4829C398.214 33.9237 397.083 38.4352 394.432 42.0538C391.596 46.0328 388.204 49.5858 384.362 52.6049C380.562 55.8497 376.575 58.8695 372.422 61.6487C355.551 72.9074 336.101 79.7061 315.889 81.4095C309.588 81.9521 303.256 82.1631 296.94 82.3289C291.09 82.4947 285.03 82.6153 279.573 80.1584C278.502 79.6761 277.568 81.2587 278.653 81.7561V81.7109Z" fill="#FFA608"/>
<path d="M284.125 13.7315C282.395 14.2625 280.854 15.2817 279.688 16.6666C278.522 18.0516 277.781 19.7435 277.553 21.5394C276.799 25.8503 278.623 29.9049 281.261 33.236C284.688 37.2149 288.495 40.8497 292.628 44.0886C296.578 47.465 300.663 50.6755 304.884 53.7203C321.844 65.9295 341.337 75.2295 362.291 77.6412C372.226 78.7717 383.804 77.9276 390.934 70.0142C391.718 69.14 390.422 67.8287 389.623 68.718C383.593 75.4707 373.975 76.6614 365.367 76.0736C355.984 75.3226 346.761 73.2051 337.99 69.7881C320.02 63.0204 303.919 51.8663 289.749 39.0844C285.844 35.5874 281.276 31.8041 279.708 26.6039C278.427 22.3835 279.98 16.7311 284.668 15.5102C284.904 15.4442 285.104 15.2872 285.224 15.0738C285.344 14.8604 285.375 14.608 285.309 14.3721C285.243 14.1363 285.086 13.9363 284.872 13.8162C284.659 13.696 284.407 13.6656 284.171 13.7315H284.125Z" fill="#FFA608"/>
<path d="M387 45.9275L384.98 42.521C384.858 42.3092 384.657 42.1544 384.421 42.0908C384.185 42.0272 383.933 42.06 383.721 42.1819C383.509 42.3038 383.355 42.5049 383.291 42.741C383.227 42.977 383.26 43.2286 383.382 43.4405L385.387 46.847C385.513 47.0571 385.716 47.2095 385.953 47.2715C386.189 47.3335 386.441 47.3001 386.653 47.1786C386.857 47.0507 387.004 46.8505 387.066 46.6183C387.127 46.3862 387.098 46.1394 386.985 45.9275H387Z" fill="#FFA608"/>
<path d="M355.085 28.3976L356.065 36.2808L362.94 38.602L354.136 40.049L354.452 49.8013L349.025 44.0132L341.171 45.1889L346.749 37.7127L341.457 31.1409L349.266 32.6482L355.085 28.3976Z" fill="#782F9A"/>
<defs>
<linearGradient id="paint0_linear" x1="64.3419" y1="213.51" x2="9.73885" y2="213.51" gradientUnits="userSpaceOnUse">
<stop stop-color="#F7F2A7"/>
<stop offset="0.53" stop-color="#F7C3A6"/>
<stop offset="1" stop-color="#EBC282"/>
</linearGradient>
<linearGradient id="paint1_linear" x1="98.7886" y1="69.7128" x2="59.9482" y2="133.628" gradientUnits="userSpaceOnUse">
<stop stop-color="#F69C00"/>
<stop offset="1" stop-color="#942400"/>
</linearGradient>
<linearGradient id="paint2_linear" x1="94.0252" y1="168.351" x2="3.67309e-05" y2="168.351" gradientUnits="userSpaceOnUse">
<stop stop-color="#C02078"/>
<stop offset="1"/>
</linearGradient>
<linearGradient id="paint3_linear" x1="77.638" y1="166.602" x2="51.3223" y2="208.795" gradientUnits="userSpaceOnUse">
<stop stop-color="#762078"/>
<stop offset="1"/>
</linearGradient>
<linearGradient id="paint4_linear" x1="13945.2" y1="4703.07" x2="13606.1" y2="5735.63" gradientUnits="userSpaceOnUse">
<stop stop-color="#C02078"/>
<stop offset="1"/>
</linearGradient>
<linearGradient id="paint5_linear" x1="130.221" y1="97.3115" x2="44.5023" y2="97.3115" gradientUnits="userSpaceOnUse">
<stop stop-color="#F6C600"/>
<stop offset="1" stop-color="#C65F00"/>
</linearGradient>
<linearGradient id="paint6_linear" x1="287.638" y1="44.4654" x2="387.558" y2="44.4654" gradientUnits="userSpaceOnUse">
<stop stop-color="#F7A356"/>
<stop offset="0.53" stop-color="#F7C03E"/>
<stop offset="1" stop-color="#FF6E1E"/>
</linearGradient>
<linearGradient id="paint7_linear" x1="-5087.09" y1="2477.21" x2="-3295.53" y2="2477.21" gradientUnits="userSpaceOnUse">
<stop stop-color="#F7A356"/>
<stop offset="0.53" stop-color="#F7C03E"/>
<stop offset="1" stop-color="#FF6E1E"/>
</linearGradient>
<linearGradient id="paint8_linear" x1="-4821.31" y1="2961.64" x2="-3117.68" y2="2961.64" gradientUnits="userSpaceOnUse">
<stop stop-color="#F7A356"/>
<stop offset="0.53" stop-color="#F7C03E"/>
<stop offset="1" stop-color="#FF6E1E"/>
</linearGradient>
<linearGradient id="paint9_linear" x1="-5914.02" y1="3414.58" x2="-3866.66" y2="3414.58" gradientUnits="userSpaceOnUse">
<stop stop-color="#F7A356"/>
<stop offset="0.53" stop-color="#F7C03E"/>
<stop offset="1" stop-color="#FF6E1E"/>
</linearGradient>
<linearGradient id="paint10_linear" x1="-198.995" y1="255.262" x2="394.235" y2="208.159" gradientUnits="userSpaceOnUse">
<stop stop-color="#DD9178"/>
<stop offset="0.08" stop-color="#DE9376"/>
<stop offset="0.11" stop-color="#E19A6E"/>
<stop offset="0.14" stop-color="#E7A561"/>
<stop offset="0.17" stop-color="#EFB54E"/>
<stop offset="0.19" stop-color="#F9CA36"/>
<stop offset="0.2" stop-color="#FFD529"/>
<stop offset="0.58" stop-color="#632E6A"/>
<stop offset="1" stop-color="#B7D0EE"/>
</linearGradient>
</defs>
</svg>
