<svg width="234" height="360" viewBox="0 0 234 360" fill="none" xmlns="http://www.w3.org/2000/svg">
<path opacity="0.1" d="M27.2226 292.987C27.4498 299.147 31.3129 305.602 28.5634 311.105C26.5865 315.113 21.9513 316.879 18.5883 319.801C15.2253 322.722 13.7254 329.109 17.77 331.012C19.4417 331.594 21.2553 331.633 22.9509 331.125C35.7893 328.656 48.7643 325.418 61.7617 326.822C74.7592 328.226 88.0747 335.496 92.3694 347.816C93.6873 351.643 94.8913 356.626 98.8905 357.396C105.707 349.877 103.572 336.65 111.547 330.468C114.996 328.231 118.946 326.878 123.045 326.528L137.338 324.263C150.381 322.111 165.128 318.828 171.672 307.368C173.444 304.266 174.172 299.758 171.331 297.584C170.221 296.848 168.952 296.382 167.627 296.225C157.084 294.255 146.245 294.255 135.679 292.421C119.046 289.522 103.595 282.117 87.3477 277.497C73.2141 273.398 26.2909 267.328 27.2226 292.987Z" fill="#606060"/>
<path opacity="0.78" d="M129.793 0.0891418C167.662 33.9775 193.019 79.555 201.802 129.518C203.786 125.336 205.672 121.101 207.46 116.813C236.999 148.927 242.612 200.608 220.503 238.293C224.448 237.64 228.002 235.528 230.456 232.381C233.866 242.485 234.027 253.397 230.914 263.596C227.802 273.795 221.572 282.771 213.095 289.271C204.778 295.386 194.78 298.76 184.828 301.5C148.04 311.646 108.115 293.779 70.032 296.089C46.9228 297.493 27.0401 279.125 15.8605 258.924C4.64643 238.54 -0.803883 215.503 0.0909437 192.273C1.4624 194.66 3.45007 196.637 5.84766 197.999C8.24524 199.361 10.9652 200.058 13.7247 200.018C2.99947 179.636 9.33915 154.339 20.5415 134.183C31.7439 114.027 47.2636 96.385 56.3073 75.3004L71.2363 94.9354C77.1443 60.3304 114.205 39.8347 128.361 7.69829" fill="url(#paint0_linear)"/>
<path opacity="0.78" d="M70.078 295.999C51.4226 297.132 38.834 275.458 32.4716 260.149C24.701 241.829 23.5211 221.395 29.1314 202.308C30.8147 205.685 33.2219 208.652 36.1824 211C39.1429 213.348 42.5847 215.019 46.2645 215.896C40.2884 201.334 47.1732 184.461 57.3758 172.458C67.5783 160.455 80.8714 151.396 91.0512 139.393C101.935 126.552 108.821 110.881 115.069 95.2542C122.904 102.266 131.404 108.501 140.451 113.871C141.554 111.014 143.454 108.53 145.927 106.714C163.867 126.846 176.818 150.892 183.738 176.92C185.806 184.665 187.26 193.113 184.147 200.518L190.123 195.513C192.25 197.743 193.583 200.608 193.918 203.667C198.212 223.891 200.075 245.156 194.372 265.041C189.6 281.596 178.739 296.27 161.31 300.845C131.43 308.771 100.39 294.165 70.078 295.999Z" fill="url(#paint1_linear)"/>
<path style="mix-blend-mode:multiply" opacity="0.5" d="M178.92 302.023C188.009 290.541 199.211 278.878 203.665 264.678C208.8 248.395 201.097 232.111 194.78 217.323C191.19 208.898 188.145 200.043 184.351 191.709C182.215 186.975 179.806 182.945 174.648 181.246C164.036 177.759 151.357 182.718 140.427 181.677C124.249 180.159 102.116 176.468 87.5283 186.206C82.7792 189.354 79.689 194.676 75.6898 198.707C70.254 204.088 63.8878 208.445 56.8979 211.57C42.9916 218.138 36.8793 227.061 33.1982 241.986C29.7897 255.733 29.8808 270.929 37.9247 283.045C38.5753 284.016 39.0803 285.077 39.4242 286.193C48.1572 292.938 58.9911 296.41 70.0318 296C105.888 293.735 143.358 309.588 178.306 302.907C178.495 302.602 178.7 302.307 178.92 302.023Z" fill="url(#paint2_linear)"/>
<path style="mix-blend-mode:multiply" opacity="0.78" d="M225.888 236.255C226.297 237.931 226.661 239.607 226.956 241.305C229.751 257.34 226.115 270.929 219.503 283.453C225.749 276.679 230.059 268.36 231.986 259.362C233.912 250.365 233.383 241.017 230.455 232.292C229.202 233.892 227.651 235.238 225.888 236.255Z" fill="url(#paint3_linear)"/>
<path d="M143.518 200.585C142.041 204.571 141.495 209.916 145.086 212.226C146.473 213.001 148.04 213.4 149.63 213.382C155.725 213.6 161.769 212.203 167.146 209.335C172.522 206.466 177.04 202.229 180.238 197.053C185.896 187.61 183.851 171.801 170.24 171.643C157.243 171.507 147.335 190.326 143.518 200.585Z" fill="#DDC69B"/>
<path d="M145.585 200.835C146.903 199.499 148.676 197.937 150.448 198.571C151.03 198.837 151.549 199.223 151.971 199.703L155.516 203.145C155.777 203.364 155.999 203.623 156.174 203.915C156.403 204.606 156.403 205.353 156.174 206.044C155.674 209.522 155.969 213.068 157.038 216.416C157.524 217.479 157.728 218.649 157.629 219.813C157.151 222.078 154.311 223.006 151.948 223.369C146.176 224.275 139.655 224.773 135.088 221.104C132.437 218.725 130.648 215.541 129.998 212.045C128.93 207.516 132.475 207.991 135.61 207.085C139.403 205.856 142.83 203.709 145.585 200.835Z" fill="#DDC69B"/>
<path d="M30.9259 318.805L27.2673 318.623C24.6641 318.397 22.0444 318.442 19.4507 318.759C15.8605 319.348 12.8386 321.024 12.2933 324.738C11.7479 328.453 12.8155 332.438 16.4284 333.616C18.8763 334.174 21.4271 334.096 23.8361 333.389C27.7249 332.784 31.4733 331.488 34.9024 329.562C36.1317 328.905 37.0712 327.815 37.538 326.504C37.7211 325.338 37.596 324.144 37.1747 323.04L36.0158 319.077L30.9259 318.805Z" fill="#7627D5"/>
<path d="M37.1749 323.04L36.016 319.077L30.9261 318.805L28.0402 318.669C28.0402 318.669 28.0402 318.873 28.0402 318.986C28.0328 320.008 27.911 321.025 27.6769 322.02C27.6146 322.305 27.5308 322.586 27.4267 322.859C27.0479 323.924 26.592 324.961 26.0631 325.962C25.4976 327.021 24.6686 327.918 23.6549 328.566C23.0919 329.139 22.3858 329.553 21.6095 329.766C20.4979 330.347 19.2507 330.621 17.9969 330.558L15.5199 330.241L14.8836 330.061C14.1015 329.806 13.3415 329.487 12.6113 329.109C12.8135 330.13 13.2748 331.083 13.9511 331.875C14.6273 332.668 15.4957 333.275 16.4741 333.638C18.922 334.196 21.4728 334.119 23.8818 333.413C27.7745 332.81 31.5247 331.505 34.9481 329.562C36.1801 328.919 37.1217 327.835 37.5837 326.528C37.7564 325.35 37.6155 324.147 37.1749 323.04Z" fill="#5D278B"/>
<path d="M91.5044 349.129C91.209 353.658 93.0043 360.158 98.5942 359.999C104.184 359.841 106.956 351.959 106.456 347.317C105.825 343.228 104.228 339.347 101.798 335.993C101.642 335.714 101.424 335.474 101.162 335.291C100.649 335.1 100.084 335.1 99.5711 335.291L95.3449 336.107C95.0329 336.129 94.7332 336.238 94.4812 336.423C94.1992 336.675 94.0011 337.008 93.9131 337.375C92.5909 341.17 91.7808 345.122 91.5044 349.129Z" fill="#7627D5"/>
<path d="M93.3909 356.285C93.4327 354.367 94.0501 352.506 95.1633 350.941L95.2998 350.647C96.119 349.265 97.2759 348.112 98.6627 347.295C100.089 346.461 101.713 346.023 103.366 346.027H103.684C104.571 346.005 105.457 346.097 106.32 346.299C105.512 342.609 103.966 339.12 101.775 336.039C101.62 335.76 101.402 335.52 101.139 335.337C100.629 335.13 100.059 335.13 99.5487 335.337L95.3225 336.153C95.0105 336.175 94.7108 336.284 94.4588 336.469C94.1768 336.721 93.9786 337.054 93.8907 337.421C92.5665 341.223 91.7564 345.182 91.4819 349.197C91.2614 352.001 91.9035 354.806 93.3226 357.237C93.3681 356.898 93.3909 356.625 93.3909 356.285Z" fill="#5D278B"/>
<path d="M167.785 233.81C172.594 246.203 174.376 259.559 172.985 272.774C171.595 285.989 167.07 298.684 159.787 309.813L154.879 307.844C158.651 293.916 159.423 278.697 153.924 265.335C151.947 260.466 149.152 255.891 147.903 250.796C145.857 242.643 147.902 233.923 151.811 226.45C153.901 222.328 157.037 218.138 161.196 222.237C164.133 225.626 166.372 229.559 167.785 233.81Z" fill="url(#paint4_linear)"/>
<path d="M136.724 280.123C138.088 280.893 146.79 268.799 147.676 267.486C150.901 262.652 153.519 257.442 155.471 251.973C157.415 246.509 158.682 240.827 159.242 235.055C159.651 230.639 160.878 222.917 157.947 219.202C155.405 220.448 152.618 221.118 149.786 221.165C146.954 221.212 144.146 220.635 141.564 219.474C139 218.275 136.734 216.523 134.93 214.346C133.127 212.168 131.831 209.619 131.135 206.882C131.057 206.201 130.743 205.569 130.248 205.093C129.85 204.878 129.406 204.762 128.953 204.754C121.5 204.052 113.752 206.566 106.594 208.378C97.8344 210.541 89.3269 213.614 81.212 217.549C70.5322 222.758 58.4895 230.051 50.9 239.472C47.384 244.156 44.9615 249.562 43.8097 255.299C42.6579 261.035 42.8053 266.955 44.2419 272.627C53.8536 274.121 63.4659 275.616 73.1458 276.16C80.1899 276.568 87.2108 276.454 94.2549 276.341C107.593 276.092 124.613 273.238 136.724 280.123Z" fill="url(#paint5_linear)"/>
<path style="mix-blend-mode:multiply" opacity="0.7" d="M125.295 271.201C112.115 269.547 93.2552 263.093 99.4585 246.062C103.867 233.923 133.316 219.724 128.385 204.664C121.113 204.143 113.57 206.543 106.594 208.309C97.8344 210.473 89.3269 213.547 81.212 217.482C70.5322 222.691 58.4895 229.983 50.9001 239.404C47.384 244.088 44.9615 249.495 43.8097 255.232C42.6579 260.968 42.8053 266.888 44.2419 272.56C53.8536 274.055 63.4659 275.549 73.1458 276.093C80.1899 276.501 87.2108 276.387 94.2549 276.274C107.593 276.093 124.545 273.239 136.724 280.124C138.088 280.894 146.79 268.8 147.676 267.486C147.994 267.033 148.245 266.558 148.54 266.105C141.725 270.692 133.412 272.514 125.295 271.201Z" fill="url(#paint6_linear)"/>
<path d="M58.4435 297.086C60.5283 299.108 62.7701 300.963 65.1472 302.634C71.638 307.168 79.031 310.257 86.8249 311.693C90.8092 312.379 94.8471 312.705 98.8903 312.667C103.094 312.667 104.935 311.06 108.389 308.591C112.524 305.625 117 303.178 120.977 300.03C125.34 296.633 127.044 292.873 129.907 288.434C133.066 283.588 138.837 280.599 138.996 274.212C122.643 275.82 106.206 276.433 89.7784 276.047C81.4391 275.843 73.0998 275.368 64.7833 274.666C60.6477 274.304 56.4895 273.986 52.3767 273.397C49.7635 273.035 46.5824 271.744 43.9238 272.378C45.5144 281.505 51.4449 290.383 58.4435 297.086Z" fill="url(#paint7_linear)"/>
<path d="M129.497 314.592C134.937 305.484 138.657 295.459 140.473 285.015C141.632 277.994 143.495 268.075 140.132 261.53C139.073 259.311 137.526 257.358 135.608 255.815C133.689 254.272 131.447 253.179 129.048 252.616C126.648 252.052 124.152 252.034 121.744 252.561C119.336 253.089 117.078 254.15 115.137 255.664C106.911 261.779 102.843 271.947 99.9349 281.776C98.208 287.589 96.7463 293.478 95.5496 299.442C92.8718 313.054 92.069 326.966 93.1636 340.795L103.821 344.011C104.741 344.391 105.754 344.485 106.729 344.283C107.544 343.939 108.245 343.374 108.752 342.652C116.545 333.976 123.491 324.581 129.497 314.592Z" fill="url(#paint8_linear)"/>
<path d="M127.339 210.981C125.927 213.282 124.017 215.239 121.749 216.711C117.109 220.19 112.285 223.418 107.297 226.381C97.8898 231.952 87.801 236.641 79.6435 243.91C71.486 251.18 65.3962 261.915 67.1004 272.695C67.2368 273.578 67.3505 274.665 66.6233 275.186C66.2337 275.397 65.7938 275.499 65.3507 275.48L58.8068 275.707C56.2618 275.707 59.4655 245.382 60.2608 242.528C66.8732 218.771 88.3917 197.574 113.66 195.513C117.178 194.992 120.773 195.512 123.999 197.008C128.884 199.68 129.838 206.316 127.339 210.981Z" fill="url(#paint9_linear)"/>
<path d="M145.653 170.578C144.984 170.25 144.273 170.015 143.54 169.877C142.126 169.577 140.667 169.56 139.247 169.828C137.827 170.097 136.474 170.645 135.269 171.44C133.262 173.043 131.776 175.201 130.997 177.644C130.19 179.689 129.833 181.883 129.952 184.077C130.264 186.83 131.544 189.384 133.566 191.287C135.587 193.19 138.219 194.318 140.995 194.472C146.926 194.472 150.675 188.81 155.06 185.73C162.627 180.408 161.309 190.577 165.559 194.789C167.522 196.548 169.716 198.033 172.08 199.205C172.934 199.729 173.85 200.148 174.807 200.451C176.592 200.743 178.423 200.461 180.037 199.647C181.65 198.833 182.962 197.528 183.782 195.921C190.099 185.277 182.328 172.685 171.603 169.039C169.23 168.128 166.656 167.87 164.149 168.291C162.022 168.856 160.024 169.824 158.265 171.144C155.992 172.707 153.72 174.021 151.016 173.251C149.155 172.514 147.361 171.62 145.653 170.578Z" fill="#183EB5"/>
<path d="M152.812 175.946C152.466 175.42 152.162 174.867 151.903 174.293C151.802 176.592 151.063 178.819 149.768 180.724C148.964 182.11 147.813 183.266 146.427 184.077C145.001 184.911 143.377 185.348 141.724 185.344C140.063 185.351 138.43 184.914 136.997 184.077C135.612 183.266 134.461 182.11 133.657 180.724C133.407 180.249 133.225 179.751 133.021 179.276C132.816 178.8 132.612 178.369 132.452 177.916V177.69C132.463 177.645 132.463 177.598 132.452 177.554C132.452 176.806 132.248 176.059 132.157 175.289C131.745 176.016 131.388 176.773 131.089 177.554C130.282 179.598 129.925 181.792 130.044 183.986C130.356 186.74 131.637 189.294 133.658 191.196C135.679 193.099 138.311 194.227 141.087 194.381C147.018 194.381 150.767 188.72 155.153 185.64C157.311 184.122 158.743 183.895 159.697 184.393C157.177 181.767 154.875 178.942 152.812 175.946Z" fill="#0C368C"/>
<path d="M161.196 186.001C162.56 188.266 163.218 192.456 165.559 194.744C167.523 196.503 169.716 197.988 172.08 199.159C172.935 199.684 173.851 200.103 174.807 200.406C176.293 200.694 177.83 200.558 179.241 200.013C180.653 199.468 181.881 198.536 182.783 197.325C174.557 195.95 166.991 191.981 161.196 186.001Z" fill="#0C368C"/>
<path d="M154.379 324.149C157.817 321.77 161.027 319.079 163.968 316.11C164.922 315.136 161.559 311.988 160.945 311.58C160.332 311.173 160.241 311.33 159.991 310.945C159.514 310.175 159.991 310.017 159.173 309.519C158.355 309.021 156.674 308.478 155.469 307.98C155.294 307.914 155.1 307.914 154.924 307.98C154.821 308.03 154.734 308.108 154.674 308.205C153.72 309.351 153.003 310.673 152.562 312.095C152.121 313.518 151.967 315.012 152.106 316.494C152.295 319.181 153.071 321.793 154.379 324.149Z" fill="#DDC69B"/>
<path d="M103.502 256.14C110.478 266.128 104.661 279.467 98.4124 288.073C83.4181 308.631 61.6284 323.258 36.8788 329.381C33.993 329.766 32.9023 325.01 32.3342 323.04C31.3571 319.281 30.8803 317.288 33.8798 314.638C41.7191 307.663 48.8085 301.05 54.1939 291.855C60.17 281.618 63.8513 269.932 71.4635 260.828C74.7491 256.638 79.0933 253.394 84.0514 251.429C86.5322 250.466 89.1943 250.055 91.8513 250.223C94.5084 250.391 97.0963 251.135 99.4349 252.404C101.045 253.342 102.433 254.617 103.502 256.14Z" fill="url(#paint10_linear)"/>
<defs>
<linearGradient id="paint0_linear" x1="5.03376e-05" y1="152.278" x2="234" y2="152.278" gradientUnits="userSpaceOnUse">
<stop stop-color="#D55E24"/>
<stop offset="0.45" stop-color="#FF350C"/>
<stop offset="0.82" stop-color="#7F2E00"/>
<stop offset="1" stop-color="#BC0026"/>
</linearGradient>
<linearGradient id="paint1_linear" x1="3.31823" y1="187.27" x2="372.109" y2="223.745" gradientUnits="userSpaceOnUse">
<stop stop-color="#D58D24"/>
<stop offset="0.3" stop-color="#FF470C"/>
<stop offset="0.53" stop-color="#7F2E00"/>
<stop offset="1" stop-color="#BC0026"/>
</linearGradient>
<linearGradient id="paint2_linear" x1="-379507" y1="701805" x2="-361561" y2="701805" gradientUnits="userSpaceOnUse">
<stop stop-color="#D55E24"/>
<stop offset="0.45" stop-color="#FF350C"/>
<stop offset="0.82" stop-color="#7F2E00"/>
<stop offset="1" stop-color="#BC0026"/>
</linearGradient>
<linearGradient id="paint3_linear" x1="-29441.9" y1="288105" x2="-28039.3" y2="288105" gradientUnits="userSpaceOnUse">
<stop stop-color="#D55E24"/>
<stop offset="0.45" stop-color="#FF350C"/>
<stop offset="0.82" stop-color="#7F2E00"/>
<stop offset="1" stop-color="#BC0026"/>
</linearGradient>
<linearGradient id="paint4_linear" x1="147.198" y1="265.176" x2="173.557" y2="265.176" gradientUnits="userSpaceOnUse">
<stop stop-color="#4B2F9A"/>
<stop offset="0.99" stop-color="#F28555"/>
</linearGradient>
<linearGradient id="paint5_linear" x1="43.0604" y1="242.37" x2="159.833" y2="242.37" gradientUnits="userSpaceOnUse">
<stop stop-color="#4B2F9A"/>
<stop offset="0.82" stop-color="#EB8158"/>
<stop offset="1" stop-color="#F28555"/>
</linearGradient>
<linearGradient id="paint6_linear" x1="43.0604" y1="242.371" x2="159.833" y2="242.371" gradientUnits="userSpaceOnUse">
<stop stop-color="#4B2F9A"/>
<stop offset="1" stop-color="#AC2FBA"/>
</linearGradient>
<linearGradient id="paint7_linear" x1="43.9466" y1="292.534" x2="139.019" y2="292.534" gradientUnits="userSpaceOnUse">
<stop stop-color="#183ED0"/>
<stop offset="0.82" stop-color="#0A006A"/>
</linearGradient>
<linearGradient id="paint8_linear" x1="94.1774" y1="298.444" x2="142.801" y2="299.066" gradientUnits="userSpaceOnUse">
<stop stop-color="#183ED0"/>
<stop offset="0.16" stop-color="#1635C1"/>
<stop offset="0.82" stop-color="#0A006A"/>
<stop offset="1" stop-color="#0A006A"/>
</linearGradient>
<linearGradient id="paint9_linear" x1="57.8297" y1="235.531" x2="128.679" y2="235.531" gradientUnits="userSpaceOnUse">
<stop stop-color="#4B2F9A"/>
<stop offset="0.77" stop-color="#ED8257"/>
<stop offset="1" stop-color="#F28555"/>
</linearGradient>
<linearGradient id="paint10_linear" x1="79.3234" y1="345.993" x2="150.285" y2="350.977" gradientUnits="userSpaceOnUse">
<stop stop-color="#0D4BC0"/>
<stop offset="0.12" stop-color="#503298"/>
<stop offset="0.82" stop-color="#0A006A"/>
<stop offset="1" stop-color="#183ED0"/>
</linearGradient>
</defs>
</svg>
