<svg width="396" height="384" viewBox="0 0 396 384" fill="none" xmlns="http://www.w3.org/2000/svg">
<path opacity="0.89" d="M219.74 169.037C222.866 174.243 228.808 177.228 231.761 182.573C230.49 173.48 230.731 162.339 239.935 157.584C250.548 152.065 259.134 157.375 269.335 159.874C280.428 162.582 291.213 157.098 302.238 156.647C309.274 156.927 316.29 157.587 323.257 158.625C339.571 159.701 357.43 151.683 363.475 136.412C364.952 132.629 365.673 128.568 367.356 124.889C372.37 113.782 384.735 107.882 390.986 97.4695C393.345 93.4698 394.729 88.9597 395.022 84.3124C395.314 79.6651 394.508 75.0141 392.669 70.7444C389.921 64.4275 384.941 59.152 383.258 52.4533C381.575 45.7547 383.533 38.5701 381.781 31.6286C379.343 22.3268 370.55 16.3224 361.964 12.2268C347.058 5.28525 330.092 1.3633 314.087 5.11175C301.448 8.06193 290.045 15.524 277.131 16.9471C269.974 17.2928 262.801 16.9792 255.7 16.01C244.279 14.8044 232.737 16.2284 221.939 20.175C216.556 22.1659 211.625 25.2328 207.441 29.1925C203.257 33.1522 199.906 37.9233 197.588 43.221C195.149 49.3643 194.462 56.0977 192.093 62.241C188.658 70.675 182.545 77.4777 177.633 85.0788C174.614 89.2975 172.732 94.2373 172.172 99.4132C171.692 108.645 180.896 117.357 188.898 120.238C195.768 122.806 206.621 122.529 211.498 128.811C214.451 132.663 211.91 143.249 212.528 147.935C213.123 152.403 214.277 156.776 215.962 160.95C216.99 163.751 218.254 166.456 219.74 169.037Z" fill="#A3A3A3"/>
<path d="M275.586 138.668C276.444 137.106 277.475 135.405 279.02 134.954C280.458 134.743 281.925 134.998 283.21 135.683L364.505 169.454C364.505 172.716 360.865 174.417 357.636 175.354C329.266 184.009 301.688 195.123 275.208 208.57C269.266 211.589 251.166 225.542 246.804 215.962C243.37 208.188 252.54 189.862 255.082 182.851C260.751 167.599 267.607 152.825 275.586 138.668Z" fill="#A3A3A3"/>
<path d="M269.85 280.38C272.529 285.957 275.345 291.452 278.299 296.867C278.963 298.315 279.909 299.614 281.081 300.684C282.888 301.904 285.022 302.534 287.195 302.489C294.991 302.473 302.723 301.063 310.034 298.324C336.082 290.018 361.318 279.306 385.422 266.324C389.75 264.584 393.294 261.299 395.382 257.091C396.195 253.646 396.041 250.04 394.935 246.679C391.381 231.662 386.977 216.864 381.747 202.357C379.205 195.415 373.367 171.12 364.574 169.419C362.8 169.277 361.026 169.689 359.491 170.599C340.533 179.241 320.338 184.482 300.383 190.14C290.08 193.02 279.982 196.04 270.022 199.719C263.565 202.114 249.071 204.543 247.045 212.11C246.326 216.422 246.789 220.852 248.385 224.917C254.075 243.95 261.253 262.496 269.85 280.38Z" fill="#A3A3A3"/>
<path d="M265.007 95.2828C255.906 84.0028 232.311 97.1223 242.786 109.478C244.471 111.281 246.596 112.605 248.946 113.318C251.297 114.031 253.792 114.107 256.181 113.539C258.169 113.135 260.05 112.307 261.696 111.11C263.343 109.913 264.718 108.375 265.729 106.598C266.703 104.843 267.154 102.84 267.026 100.832C266.898 98.8243 266.197 96.8967 265.007 95.2828Z" fill="#A3A3A3"/>
<path d="M282.249 64.7052C280.304 65.7587 278.588 67.1952 277.202 68.9299C275.816 70.6646 274.787 72.6623 274.178 74.8052C273.704 78.1309 274.395 81.5194 276.133 84.3843C277.87 87.2492 280.544 89.4101 283.691 90.4931C286.881 91.4568 290.246 91.6732 293.531 91.1259C296.816 90.5786 299.935 89.282 302.65 87.3347C303.911 86.4989 305.065 85.508 306.084 84.3846C307.463 82.7883 308.435 80.8751 308.914 78.812C309.393 76.749 309.365 74.5987 308.832 72.5492C305.775 60.7832 291.075 59.3948 282.249 64.7052Z" fill="#A3A3A3"/>
<path d="M321.162 56.3406C321.941 59.1297 323.399 61.6773 325.403 63.7507C327.406 65.8242 329.892 67.3575 332.633 68.2107C338.194 69.8226 344.151 69.2651 349.325 66.6488C361.483 60.7485 366.497 40.2708 351.557 34.3358C338.266 29.0601 317.246 40.3402 321.162 56.3406Z" fill="#A3A3A3"/>
<path d="M289.255 323.279C289.202 322.847 289.009 322.444 288.706 322.134C288.195 321.641 287.586 321.262 286.92 321.023C282.469 319.117 277.875 317.574 273.182 316.407C263.325 314.012 271.568 303.704 273.731 296.971L283.829 265.734C278.856 268.277 274.45 271.82 270.881 276.146C255.357 292.459 239.97 308.771 224.721 325.501C223.652 326.369 222.789 327.468 222.195 328.717C221.601 329.967 221.29 331.334 221.286 332.72C223.003 342.264 248.968 328.312 241.55 347.471C236.57 360.347 228.327 372.044 222.797 384.747C222.282 385.892 221.836 387.419 222.797 388.218C234.429 378.407 245.877 368.33 257.143 357.987C261.195 354.239 290.663 330.776 289.255 323.279Z" fill="#A3A3A3"/>
<g style="mix-blend-mode:multiply">
<path d="M275.586 138.668C276.445 137.106 277.475 135.405 279.02 134.954C280.458 134.743 281.925 134.998 283.211 135.683L324.425 152.759C337.51 158.208 352.553 162.512 364.746 169.731C358.804 181.983 355.129 195.519 349.153 207.91C343.132 220.383 336.246 232.411 328.546 243.902C327.999 244.966 327.134 245.829 326.073 246.367C324.784 246.706 323.421 246.609 322.192 246.089C297.509 238.321 273.27 229.178 249.587 218.704C239.283 214.123 252.849 189.688 255.357 182.851C260.937 167.608 267.701 152.834 275.586 138.668Z" fill="#A3A3A3"/>
</g>
<g style="mix-blend-mode:multiply">
<path d="M275.586 138.668C276.444 137.106 277.475 135.405 279.02 134.954C280.458 134.743 281.925 134.998 283.21 135.683L324.424 152.759C333.32 156.438 342.524 159.423 351.385 163.172C354.545 164.49 370.447 169.037 360.727 172.3C330.572 182.481 300.875 193.888 271.636 206.522L259.89 211.659C257.28 212.804 251.99 216.587 249.243 216.483C244.709 216.309 244.915 211.589 245.637 207.216C247.045 198.435 252.506 191.077 255.391 182.92C260.957 167.654 267.71 152.857 275.586 138.668Z" fill="#A3A3A3"/>
</g>
<path d="M140.403 140.889C145.644 140.189 150.972 141.147 155.652 143.631C160.461 146.789 162.693 152.69 164.616 158.139C180.988 204.185 199.099 249.571 218.951 294.298C222.385 301.899 225.82 310.923 221.664 318.177C219.684 321.282 217 323.865 213.833 325.709C191.887 340.425 165.063 345.319 139.064 350.004C134.789 351.167 130.287 351.167 126.012 350.004C120.105 347.748 116.808 341.536 114.026 335.774C89.9844 286.142 65.9428 236.058 52.7199 182.469C47.9803 163.172 56.7039 157.028 72.7775 153.106C95.3079 147.449 117.014 141.896 140.403 140.889Z" fill="#A3A3A3"/>
<g style="mix-blend-mode:multiply">
<path d="M223.381 308.771C200.748 321.474 168.429 327.548 142.91 332.234C140.191 333.038 137.286 332.929 134.633 331.922C132.353 330.433 130.56 328.295 129.481 325.778C101.284 273.716 73.6362 216.622 57.5627 159.388C51.9644 163.866 49.8694 170.669 52.72 182.33C65.9429 235.919 90.0876 286.003 114.026 335.635C116.808 341.397 120.105 347.61 126.013 349.866C130.287 351.028 134.789 351.028 139.064 349.866C165.063 345.319 191.887 340.39 213.833 325.57C216.993 323.716 219.675 321.136 221.664 318.038C223.159 315.199 223.758 311.965 223.381 308.771Z" fill="#A3A3A3"/>
</g>
<g style="mix-blend-mode:multiply">
<path d="M169.597 285.656C166.262 285.85 163.007 286.757 160.046 288.319C157.086 289.881 154.488 292.061 152.424 294.715C148.749 300.303 149.745 309.188 155.859 312.069C163.346 315.886 173.649 313.388 180.69 308.598C182.732 307.49 184.458 305.871 185.702 303.896C186.947 301.921 187.669 299.656 187.8 297.318C187.699 295.56 187.142 293.86 186.185 292.389C183.644 288.398 174.302 284.996 169.597 285.656Z" fill="#A3A3A3"/>
</g>
<path d="M78.6848 184.552C85.5539 205.758 94.5867 227.381 103.757 248.171C108.119 257.994 113.545 280.241 125.188 284.059C132.057 286.315 140.575 281.179 146.757 279.027C154.597 276.077 162.708 273.926 170.97 272.606C177.16 272.338 183.28 271.169 189.139 269.135C190.024 268.838 190.785 268.252 191.303 267.469C191.744 266.516 191.864 265.443 191.646 264.415C189.482 246.228 181.617 231.06 174.748 214.505C168.326 198.955 162.041 182.608 156.648 166.504C155.61 162.621 153.901 158.955 151.6 155.675C144.937 147.414 128.623 152.829 119.727 154.113C105.391 155.71 91.3255 159.211 77.8949 164.525C77.1004 164.756 76.3613 165.15 75.7233 165.681C75.0853 166.212 74.562 166.87 74.1856 167.614C73.9646 168.777 74.0717 169.98 74.4947 171.085C75.8342 175.632 77.2423 180.109 78.6848 184.552Z" fill="#A3A3A3"/>
<path d="M139.544 161.818C139.39 163.097 139.39 164.391 139.544 165.671C139.91 169.286 141.205 172.743 143.302 175.696C145.399 178.649 148.224 180.996 151.497 182.504C155.008 184.187 158.919 184.833 162.778 184.366C166.637 183.899 170.287 182.339 173.306 179.866C181.102 173.619 184.914 157.653 185.155 148.004C185.155 141.826 185.498 135.613 185.773 129.435C186.151 121.418 186.22 113.4 186.597 105.348C186.597 107.951 199.03 107.222 200.335 106.875C213.455 103.786 221.767 89.5214 225.82 77.443L222.007 74.3887C220.261 78.4158 217.579 81.9576 214.189 84.713C210.799 87.4684 206.8 89.356 202.534 90.2155C195.762 91.0601 188.891 90.5051 182.339 88.5843C180.69 88.2025 170.215 86.12 170.352 84.3151C168.772 105.487 166.437 126.763 165.819 147.969C165.819 141.722 153.489 145.54 150.672 146.859C147.759 148.258 145.225 150.35 143.287 152.955C141.349 155.56 140.065 158.601 139.544 161.818Z" fill="#A3A3A3"/>
<g style="mix-blend-mode:multiply">
<path d="M221.011 73.6945C219.331 77.7499 216.709 81.3368 213.367 84.152C210.026 86.9672 206.062 88.928 201.812 89.8684C195.747 90.8169 189.554 90.5098 183.609 88.966C184.183 91.3611 184.38 93.8325 184.193 96.2894C182.923 115.309 181.892 135.197 175.607 153.349C171.774 165.837 163.455 176.424 152.287 183.025C155.827 184.637 159.746 185.206 163.593 184.666C167.439 184.126 171.056 182.498 174.027 179.97C181.755 173.619 185.258 157.549 185.361 147.9C185.361 141.722 185.361 135.544 185.636 129.366C185.876 121.314 185.636 113.296 186.014 105.071C186.014 107.674 198.515 106.736 199.923 106.355C212.975 103.057 221.046 88.7578 224.892 76.4712L221.011 73.6945Z" fill="#A3A3A3"/>
</g>
<path d="M63.7103 137.765C68.4339 135.867 73.2898 134.324 78.2383 133.149C71.7098 116.607 64.2798 100.443 55.9826 84.7316C55.7364 84.1329 55.3019 83.6329 54.7462 83.3087C53.9966 83.1342 53.2093 83.2584 52.5481 83.6557C45.3013 87.1265 36.0968 91.4998 30.9106 97.7125C35.4442 100.906 61.5122 138.668 63.7103 137.765Z" fill="#A3A3A3"/>
<path d="M77.002 60.0544C86.5843 55.0217 97.6091 54.2929 108.531 53.7029C109.166 53.5892 109.821 53.6995 110.385 54.0152C110.658 54.275 110.877 54.5866 111.03 54.932C111.183 55.2774 111.268 55.6499 111.278 56.0282L122.269 126.971C122.269 127.214 100.631 133.115 98.5364 132.108C93.8998 129.921 94.7927 121.14 93.728 116.663C89.1945 97.5736 82.5659 78.7619 77.002 60.0544Z" fill="#A3A3A3"/>
<path d="M41.2141 147.9C41.7293 148.143 42.2788 148.49 42.3819 149.046C42.3977 149.509 42.2519 149.964 41.9697 150.33L35.4098 161.263L3.43445 148.525C5.2426 142.3 7.69463 136.286 10.75 130.581C21.0535 135.509 31.0136 142.451 41.2141 147.9Z" fill="#A3A3A3"/>
<path opacity="0.89" d="M216.306 165.566C219.431 170.773 225.373 173.758 228.327 179.103C227.056 170.009 227.296 158.868 236.501 154.113C247.113 148.594 255.7 153.905 265.9 156.404C276.994 159.111 287.778 153.627 298.803 153.176C305.839 153.456 312.856 154.117 319.822 155.154C336.136 156.23 353.996 148.213 360.04 132.941C361.517 129.158 362.239 125.097 363.921 121.418C368.936 110.311 381.3 104.411 387.551 93.9987C389.911 89.999 391.294 85.4889 391.587 80.8416C391.88 76.1943 391.073 71.5433 389.234 67.2736C386.486 60.9567 381.506 55.6812 379.823 48.9825C378.14 42.2839 380.098 35.0994 378.346 28.1578C375.908 18.856 367.116 12.8516 358.529 8.75604C343.623 1.81445 326.657 -2.1075 310.652 1.64096C298.013 4.59113 286.61 12.0532 273.697 13.4763C266.54 13.8221 259.366 13.5084 252.265 12.5392C240.845 11.3337 229.302 12.7576 218.504 16.7042C213.121 18.6951 208.19 21.7621 204.007 25.7217C199.823 29.6814 196.472 34.4525 194.153 39.7502C191.715 45.8935 191.028 52.6269 188.658 58.7702C185.223 67.2042 179.11 74.0069 174.199 81.608C171.179 85.8267 169.297 90.7665 168.738 95.9424C168.257 105.175 177.461 113.886 185.464 116.767C192.333 119.336 203.186 119.058 208.063 125.34C211.017 129.193 208.475 139.779 209.093 144.464C209.688 148.932 210.842 153.306 212.528 157.48C213.555 160.28 214.819 162.985 216.306 165.566Z" fill="url(#paint0_linear)"/>
<path d="M272.152 135.197C273.01 133.635 274.041 131.934 275.586 131.483C277.024 131.272 278.491 131.528 279.776 132.212L361.071 165.983C361.071 169.245 357.431 170.946 354.202 171.883C325.832 180.539 298.253 191.652 271.774 205.099C265.832 208.118 247.732 222.071 243.37 212.492C239.936 204.717 249.106 186.391 251.647 179.38C257.317 164.128 264.173 149.354 272.152 135.197Z" fill="url(#paint1_linear)"/>
<path d="M244.847 221.585C243.252 217.52 242.788 213.09 243.507 208.778C245.534 201.211 260.027 198.782 266.484 196.387C276.444 192.708 286.611 189.688 296.845 186.808C316.8 181.116 336.995 175.909 355.954 167.267C357.488 166.357 359.263 165.945 361.037 166.087C369.932 167.753 375.771 192.014 378.209 199.025C383.428 213.43 387.832 228.124 391.398 243.035C392.503 246.396 392.658 250.002 391.844 253.447C389.757 257.654 386.212 260.94 381.884 262.679C357.78 275.662 332.544 286.374 306.496 294.68C299.186 297.418 291.454 298.828 283.657 298.845C281.484 298.89 279.35 298.26 277.543 297.04C276.372 295.969 275.425 294.671 274.762 293.222C271.808 287.808 268.992 282.312 266.313 276.736C257.73 258.953 250.552 240.512 244.847 221.585Z" fill="url(#paint2_linear)"/>
<path d="M261.573 91.812C252.471 80.5319 228.876 93.6515 239.352 106.008C241.037 107.811 243.161 109.135 245.512 109.847C247.863 110.56 250.357 110.636 252.746 110.068C254.735 109.665 256.615 108.836 258.262 107.639C259.908 106.442 261.283 104.904 262.294 103.127C263.269 101.372 263.719 99.3695 263.591 97.3615C263.463 95.3535 262.762 93.4259 261.573 91.812Z" fill="white"/>
<path d="M278.814 61.2344C276.87 62.2879 275.154 63.7244 273.767 65.4591C272.381 67.1938 271.353 69.1915 270.743 71.3344C270.269 74.6601 270.961 78.0486 272.698 80.9135C274.436 83.7784 277.109 85.9393 280.257 87.0224C283.447 87.986 286.812 88.2024 290.097 87.6551C293.382 87.1079 296.5 85.8113 299.215 83.8639C300.477 83.0281 301.63 82.0372 302.65 80.9138C304.029 79.3175 305 77.4043 305.479 75.3413C305.958 73.2782 305.93 71.128 305.397 69.0784C302.341 57.3124 287.641 55.924 278.814 61.2344Z" fill="white"/>
<path d="M317.727 52.8698C318.506 55.659 319.965 58.2065 321.968 60.2799C323.972 62.3534 326.458 63.8867 329.199 64.7399C334.76 66.3518 340.717 65.7943 345.89 63.178C358.049 57.2777 363.063 36.8 348.123 30.865C334.831 25.5894 313.812 36.8694 317.727 52.8698Z" fill="white"/>
<path d="M285.821 319.808C285.767 319.376 285.574 318.973 285.271 318.663C284.76 318.17 284.151 317.791 283.485 317.552C279.035 315.646 274.441 314.103 269.747 312.936C259.89 310.541 268.133 300.233 270.296 293.5L280.394 262.263C275.421 264.806 271.015 268.349 267.446 272.675C251.922 288.988 236.535 305.301 221.286 322.03C220.217 322.899 219.354 323.998 218.76 325.247C218.166 326.496 217.855 327.863 217.851 329.249C219.569 338.794 245.534 324.841 238.115 344C233.135 356.877 224.892 368.573 219.363 381.276C218.847 382.422 218.401 383.949 219.363 384.747C230.994 374.936 242.442 364.859 253.708 354.516C257.76 350.768 287.229 327.305 285.821 319.808Z" fill="url(#paint3_linear)"/>
<path style="mix-blend-mode:multiply" d="M272.151 135.197C273.01 133.635 274.04 131.934 275.586 131.483C277.024 131.272 278.491 131.527 279.776 132.212L320.99 149.288C334.076 154.738 349.119 159.041 361.311 166.261C355.37 178.513 351.695 192.049 345.719 204.439C339.698 216.913 332.812 228.94 325.112 240.431C324.565 241.496 323.699 242.358 322.639 242.896C321.35 243.235 319.986 243.138 318.758 242.618C294.075 234.85 269.836 225.708 246.152 215.233C235.848 210.652 249.415 186.218 251.922 179.38C257.503 164.137 264.267 149.363 272.151 135.197Z" fill="url(#paint4_linear)"/>
<path style="mix-blend-mode:multiply" d="M272.151 135.197C273.01 133.635 274.04 131.934 275.586 131.483C277.024 131.272 278.491 131.528 279.776 132.212L320.99 149.288C329.886 152.967 339.09 155.952 347.951 159.701C351.111 161.02 367.013 165.566 357.293 168.829C327.138 179.01 297.441 190.417 268.202 203.051L256.456 208.188C253.845 209.333 248.556 213.116 245.809 213.012C241.275 212.839 241.481 208.118 242.202 203.745C243.61 194.964 249.071 187.606 251.956 179.45C257.523 164.184 264.275 149.387 272.151 135.197Z" fill="url(#paint5_linear)"/>
<path d="M136.969 137.418C142.21 136.718 147.537 137.676 152.218 140.16C157.026 143.319 159.259 149.219 161.182 154.668C177.553 200.714 195.665 246.1 215.516 290.827C218.951 298.428 222.385 307.452 218.229 314.706C216.25 317.811 213.565 320.394 210.399 322.238C188.452 336.954 161.629 341.848 135.629 346.534C131.355 347.696 126.852 347.696 122.578 346.534C116.671 344.278 113.374 338.065 110.592 332.303C86.55 282.671 62.5084 232.587 49.2855 178.998C44.5458 159.701 53.2695 153.558 69.343 149.636C91.8735 143.978 113.58 138.425 136.969 137.418Z" fill="url(#paint6_linear)"/>
<path style="mix-blend-mode:multiply" d="M219.947 305.301C197.313 318.004 164.994 324.078 139.476 328.763C136.756 329.568 133.852 329.458 131.199 328.451C128.919 326.962 127.126 324.825 126.047 322.308C97.8495 270.246 70.2016 213.151 54.1281 155.918C48.5298 160.395 46.4348 167.198 49.2855 178.86C62.5084 232.449 86.653 282.532 110.592 332.165C113.374 337.926 116.671 344.139 122.578 346.395C126.852 347.558 131.355 347.558 135.629 346.395C161.629 341.848 188.452 336.92 210.399 322.099C213.558 320.245 216.241 317.665 218.229 314.568C219.724 311.728 220.324 308.494 219.947 305.301Z" fill="url(#paint7_linear)"/>
<g style="mix-blend-mode:multiply">
<path d="M166.162 282.185C162.828 282.379 159.573 283.287 156.612 284.848C153.651 286.41 151.053 288.59 148.99 291.244C145.315 296.832 146.311 305.717 152.424 308.598C159.911 312.416 170.215 309.917 177.256 305.127C179.297 304.019 181.023 302.4 182.268 300.425C183.513 298.45 184.235 296.185 184.365 293.847C184.264 292.089 183.708 290.39 182.751 288.918C180.209 284.927 170.867 281.526 166.162 282.185Z" fill="#CECECE"/>
</g>
<path d="M75.2503 181.081C82.1193 202.287 91.1521 223.911 100.322 244.701C104.684 254.523 110.111 276.771 121.754 280.589C128.623 282.845 137.14 277.708 143.322 275.556C151.162 272.607 159.273 270.456 167.536 269.135C173.726 268.867 179.845 267.698 185.704 265.664C186.589 265.367 187.35 264.781 187.868 263.998C188.309 263.045 188.43 261.973 188.212 260.944C186.048 242.757 178.183 227.59 171.314 211.034C164.891 195.485 158.606 179.137 153.214 163.033C152.176 159.151 150.466 155.485 148.165 152.204C141.502 143.943 125.188 149.358 116.293 150.642C101.956 152.24 87.8909 155.741 74.4603 161.054C73.6658 161.286 72.9268 161.679 72.2888 162.21C71.6508 162.742 71.1274 163.4 70.7511 164.143C70.53 165.307 70.6371 166.509 71.0602 167.614C72.3996 172.161 73.8078 176.638 75.2503 181.081Z" fill="url(#paint8_linear)"/>
<path d="M136.11 158.347C135.956 159.627 135.956 160.92 136.11 162.2C136.475 165.816 137.771 169.272 139.868 172.225C141.964 175.178 144.79 177.525 148.062 179.033C151.574 180.716 155.485 181.362 159.344 180.895C163.202 180.429 166.852 178.869 169.871 176.395C177.668 170.148 181.48 154.182 181.72 144.533C181.72 138.355 182.064 132.143 182.339 125.965C182.716 117.947 182.785 109.93 183.163 101.877C183.163 104.48 195.596 103.752 196.901 103.404C210.021 100.315 218.332 86.0506 222.385 73.9722L218.573 70.9179C216.827 74.945 214.145 78.4868 210.755 81.2422C207.364 83.9976 203.366 85.8852 199.099 86.7447C192.328 87.5893 185.457 87.0343 178.904 85.1135C177.256 84.7317 166.78 82.6492 166.918 80.8443C165.338 102.016 163.002 123.292 162.384 144.499C162.384 138.251 150.054 142.069 147.238 143.388C144.325 144.787 141.791 146.879 139.853 149.484C137.915 152.089 136.631 155.131 136.11 158.347Z" fill="url(#paint9_linear)"/>
<path style="mix-blend-mode:multiply" d="M217.577 70.2237C215.896 74.2791 213.275 77.866 209.933 80.6812C206.591 83.4964 202.628 85.4572 198.378 86.3976C192.312 87.3461 186.119 87.039 180.175 85.4952C180.748 87.8903 180.945 90.3617 180.759 92.8186C179.488 111.839 178.458 131.726 172.172 149.878C168.34 162.367 160.02 172.953 148.852 179.554C152.392 181.167 156.312 181.736 160.158 181.195C164.005 180.655 167.622 179.027 170.593 176.499C178.32 170.148 181.823 154.078 181.926 144.429C181.926 138.251 181.926 132.073 182.201 125.895C182.442 117.843 182.201 109.826 182.579 101.6C182.579 104.203 195.081 103.266 196.489 102.884C209.54 99.5866 217.611 85.287 221.458 73.0004L217.577 70.2237Z" fill="url(#paint10_linear)"/>
<path d="M60.2757 134.295C64.9993 132.397 69.8552 130.854 74.8037 129.678C68.2752 113.137 60.8452 96.9725 52.5481 81.2608C52.3019 80.6621 51.8673 80.1621 51.3116 79.8379C50.562 79.6634 49.7747 79.7876 49.1135 80.1849C41.8667 83.6557 32.6622 88.029 27.4761 94.2417C32.0096 97.4348 58.0776 135.197 60.2757 134.295Z" fill="url(#paint11_linear)"/>
<path d="M73.5674 56.5836C83.1497 51.5509 94.1745 50.8221 105.096 50.2321C105.732 50.1184 106.386 50.2287 106.951 50.5444C107.223 50.8042 107.442 51.1157 107.596 51.4612C107.749 51.8066 107.833 52.1791 107.844 52.5574L118.834 123.5C118.834 123.743 97.1969 129.644 95.1018 128.637C90.4652 126.451 91.3582 117.67 90.2935 113.192C85.7599 94.1028 79.1313 75.2911 73.5674 56.5836Z" fill="url(#paint12_linear)"/>
<path d="M37.7797 144.429C38.2949 144.672 38.8444 145.019 38.9474 145.575C38.9633 146.038 38.8174 146.493 38.5353 146.859L31.9754 157.792L0 145.054C1.80815 138.83 4.26018 132.815 7.31551 127.11C17.6191 132.039 27.5792 138.98 37.7797 144.429Z" fill="url(#paint13_linear)"/>
<defs>
<linearGradient id="paint0_linear" x1="168.738" y1="89.6949" x2="391.638" y2="89.6949" gradientUnits="userSpaceOnUse">
<stop stop-color="#C9DDFF"/>
<stop offset="1" stop-color="#74DFBC"/>
</linearGradient>
<linearGradient id="paint1_linear" x1="242.889" y1="173.584" x2="361.243" y2="173.584" gradientUnits="userSpaceOnUse">
<stop stop-color="#7C94FF"/>
<stop offset="1" stop-color="#74CABC"/>
</linearGradient>
<linearGradient id="paint2_linear" x1="29037.9" y1="-36921.5" x2="35530.2" y2="-36921.5" gradientUnits="userSpaceOnUse">
<stop stop-color="#7C94FF"/>
<stop offset="1" stop-color="#74CABC"/>
</linearGradient>
<linearGradient id="paint3_linear" x1="217.886" y1="323.522" x2="285.889" y2="323.522" gradientUnits="userSpaceOnUse">
<stop stop-color="#FB852F"/>
<stop offset="0.21" stop-color="#FBE931"/>
<stop offset="0.53" stop-color="#F7C03E"/>
<stop offset="1" stop-color="#FF6E1E"/>
</linearGradient>
<linearGradient id="paint4_linear" x1="23185" y1="-32520.3" x2="27303.8" y2="-32520.3" gradientUnits="userSpaceOnUse">
<stop stop-color="#7C94FF"/>
<stop offset="1" stop-color="#74CABC"/>
</linearGradient>
<linearGradient id="paint5_linear" x1="23090.2" y1="-24079.4" x2="27185.3" y2="-24079.4" gradientUnits="userSpaceOnUse">
<stop stop-color="#7C94FF"/>
<stop offset="1" stop-color="#74CABC"/>
</linearGradient>
<linearGradient id="paint6_linear" x1="48.0147" y1="242.306" x2="220.084" y2="242.306" gradientUnits="userSpaceOnUse">
<stop stop-color="#7C94FF"/>
<stop offset="0.21" stop-color="#CECECE"/>
<stop offset="1" stop-color="#74CABC"/>
</linearGradient>
<linearGradient id="paint7_linear" x1="23485" y1="-52237.4" x2="32102.5" y2="-52237.4" gradientUnits="userSpaceOnUse">
<stop stop-color="#7C94FF"/>
<stop offset="0.21" stop-color="#CECECE"/>
<stop offset="1" stop-color="#74CABC"/>
</linearGradient>
<linearGradient id="paint8_linear" x1="70.5793" y1="214.47" x2="188.28" y2="214.47" gradientUnits="userSpaceOnUse">
<stop stop-color="#FECD2C"/>
<stop offset="0.37" stop-color="#FFFF38"/>
<stop offset="1" stop-color="#FF6422"/>
</linearGradient>
<linearGradient id="paint9_linear" x1="143.558" y1="126.341" x2="228.494" y2="128.022" gradientUnits="userSpaceOnUse">
<stop stop-color="#FFA055"/>
<stop offset="0.01" stop-color="#F79058"/>
<stop offset="0.49" stop-color="#AA0076"/>
<stop offset="1" stop-color="#EB8658"/>
</linearGradient>
<linearGradient id="paint10_linear" x1="12003.2" y1="-34398" x2="13798.7" y2="-34398" gradientUnits="userSpaceOnUse">
<stop stop-color="#FFA055"/>
<stop offset="0.01" stop-color="#F79058"/>
<stop offset="0.49" stop-color="#AA0076"/>
<stop offset="1" stop-color="#EB8658"/>
</linearGradient>
<linearGradient id="paint11_linear" x1="6191.9" y1="-17129.1" x2="6844.08" y2="-17129.1" gradientUnits="userSpaceOnUse">
<stop stop-color="#FECD2C"/>
<stop offset="0.37" stop-color="#FFFF38"/>
<stop offset="1" stop-color="#FF6422"/>
</linearGradient>
<linearGradient id="paint12_linear" x1="6577.07" y1="-25132.8" x2="7173.69" y2="-25132.8" gradientUnits="userSpaceOnUse">
<stop stop-color="#FECD2C"/>
<stop offset="0.37" stop-color="#FFFF38"/>
<stop offset="1" stop-color="#FF6422"/>
</linearGradient>
<linearGradient id="paint13_linear" x1="4761.47" y1="-9238.83" x2="5203.14" y2="-9238.83" gradientUnits="userSpaceOnUse">
<stop stop-color="#FECD2C"/>
<stop offset="0.37" stop-color="#FFFF38"/>
<stop offset="1" stop-color="#FF6422"/>
</linearGradient>
</defs>
</svg>
