<svg width="387" height="411" viewBox="0 0 387 411" fill="none" xmlns="http://www.w3.org/2000/svg">
<path opacity="0.89" d="M344.362 314.746C348.871 317.176 352.915 320.385 356.307 324.225C366.123 335.473 369.1 352.806 362.009 365.95C353.222 382.2 332.868 388.104 314.464 389.603C298.02 390.94 281.47 390.017 265.277 386.858C267.244 387.238 249.723 401.61 247.63 402.512C238.608 405.962 229.187 408.261 219.59 409.355C199.391 412.042 178.9 407.377 161.851 396.211C159.65 394.48 157.157 393.159 154.489 392.311C150.88 391.481 147.272 392.564 143.771 393.611C112.501 402.91 76.2156 407.46 49.2765 389.043C38.2879 381.514 29.23 367.846 33.8311 355.352C14.5605 357.284 -1.58856 336.538 0.12558 317.237C1.83972 297.936 16.7798 281.957 33.9213 272.966C51.4447 263.821 71.3923 260.405 90.9573 263.198C95.29 264.118 99.7231 264.476 104.147 264.263C109.56 263.631 114.36 260.887 119.232 258.594C152.468 242.958 194.383 247.887 223.073 270.799C225.001 272.591 227.263 273.983 229.731 274.897C232.039 275.385 234.424 275.385 236.732 274.897C254.92 272.135 271.376 266.321 289.78 273.092C304.648 278.509 317.116 292.953 316.016 308.805C325.836 308.064 335.664 310.124 344.362 314.746Z" fill="url(#paint0_linear)"/>
<path d="M210.298 323.791C225.815 326.156 241.567 328.522 257.211 326.662C260.423 326.283 264.429 324.856 264.429 321.607C264.302 320.626 263.936 319.691 263.364 318.885C262.791 318.079 262.029 317.426 261.145 316.984C257.476 314.919 253.497 313.461 249.362 312.669L225.076 306.675C218.887 305.158 214.249 305.916 210.893 311.405C208.584 315.07 204.361 322.888 210.298 323.791Z" fill="#8173CC"/>
<path d="M246.909 321.588C241.496 321.209 236.082 321.155 230.579 320.83C224.341 320.501 218.155 319.521 212.12 317.905C210.68 318.033 209.23 317.829 207.88 317.309C206.834 320.361 206.816 323.25 210.298 323.791C225.816 326.156 241.568 328.522 257.212 326.662C259.738 326.373 262.751 325.398 263.924 323.43C258.186 322.816 252.52 321.968 246.909 321.588Z" fill="#4B36CC"/>
<path d="M60.1571 320.939C60.3212 321.84 60.6515 322.704 61.1314 323.484C61.926 324.397 63.0189 324.998 64.2151 325.18C65.4114 325.362 66.6333 325.113 67.6631 324.477C69.6898 323.125 71.2371 321.166 72.0838 318.88C73.7438 315.143 79.9327 277.967 76.7751 277.732C71.1816 277.299 65.949 278.852 60.3555 278.671C58.082 292.104 57.1438 307.56 60.1571 320.939Z" fill="#8173CC"/>
<path d="M67.7717 323.232C67.1402 317.346 66.5989 311.441 66.1838 305.537C65.841 302.937 65.5704 300.319 65.3899 297.683C65.1282 294.149 65.1282 290.601 65.3899 287.067V283.456C65.3899 281.795 65.3899 280.134 65.3899 278.472C63.7602 278.648 62.1206 278.715 60.4821 278.671C58.2086 292.104 57.2703 307.56 60.2836 320.939C60.4477 321.84 60.7781 322.704 61.2579 323.484C62.0526 324.397 63.1454 324.998 64.3417 325.18C65.538 325.362 66.76 325.113 67.7898 324.477L68.3311 324.134C68.0354 323.917 67.8351 323.593 67.7717 323.232Z" fill="#4B36CC"/>
<path d="M367.999 45.3061C367.999 41.8215 370.237 37.6687 371.337 34.3826C371.451 33.9197 371.667 33.488 371.969 33.1188C373.232 31.8188 373.358 33.859 374.206 33.8771C375.397 33.8771 375.704 32.0716 376.407 31.0063C377.236 29.6705 378.517 28.6773 380.016 28.2078C380.933 27.9665 381.898 27.9705 382.813 28.2196C383.728 28.4686 384.562 28.9538 385.231 29.6267C385.899 30.2995 386.38 31.1364 386.624 32.0535C386.867 32.9706 386.866 33.9356 386.62 34.8521C386.099 36.2037 385.368 37.4649 384.455 38.5896C381.032 43.2237 377.184 47.5275 372.961 51.4449C372.203 52.1491 368.035 46.3353 367.927 45.577C367.999 45.4867 367.999 45.3964 367.999 45.3061Z" fill="#DDC69B"/>
<path d="M321.086 72.1544C323.089 71.5947 325.056 70.9989 327.022 70.3489C335.294 67.6806 343.222 64.0443 350.641 59.5157C353.754 57.6202 356.737 55.5212 359.573 53.2324C362.433 50.669 364.96 47.7575 367.097 44.5659C370.445 46.3838 373.962 47.8713 377.599 49.0075C355.171 80.0059 325.145 104.704 290.412 120.723C288.337 121.68 286.262 122.529 284.151 123.486C281.39 111.876 272.368 102.307 271.105 90.4805C270.69 86.5084 271.953 81.7417 275.724 79.6473C279.116 77.8418 282.942 78.889 286.55 78.6182C291.17 78.2932 295.843 77.3904 300.426 76.6321C307.39 75.5227 314.287 74.0278 321.086 72.1544Z" fill="url(#paint1_linear)"/>
<path style="mix-blend-mode:multiply" d="M338.86 87.2486C322.62 94.2721 302.772 93.1708 289.384 80.6043C288.742 80.0444 288.139 79.4411 287.58 78.7987L286.443 78.8891C282.834 79.1779 278.973 78.1126 275.617 79.9723C271.864 82.0126 270.619 86.7792 271.052 90.8055C272.387 102.614 281.481 112.183 284.296 123.738C286.389 122.836 288.482 121.933 290.539 120.94C311.451 111.165 330.722 98.2033 347.665 82.5181C344.873 84.3488 341.927 85.9316 338.86 87.2486Z" fill="url(#paint2_linear)"/>
<path d="M226.61 242.669C222.673 250.352 218.06 257.67 212.824 264.534C207.262 271.682 201.235 278.456 194.781 284.81C183.562 295.984 170.802 305.494 156.889 313.048C132.158 326.464 104.436 333.395 76.3062 333.198C78.5457 328.794 79.9526 324.013 80.4563 319.097C81.0432 315.524 80.5008 311.856 78.9045 308.607C78.0384 307.072 76.8114 305.772 75.9814 304.219C72.3726 297.665 76.5588 288.782 72.6614 282.445C71.0014 279.736 68.1505 278.021 65.9131 275.782C60.8609 270.709 63.9824 261.627 66.7791 255.921C69.1983 257.288 71.9646 257.916 74.7363 257.727L91.2283 258.305C96.2891 258.566 101.36 258.566 106.421 258.305C146.37 255.452 172.767 218.583 200.789 194.443C203.55 192.042 204.975 193.558 207.628 192.926C209.252 192.212 210.8 191.335 212.247 190.308C215.855 188.488 219.708 187.205 223.687 186.499C231.193 185.217 238.23 186.824 242.181 193.721C246.133 200.618 241.153 208.905 238.428 215.929C234.978 225.051 231.032 233.977 226.61 242.669Z" fill="url(#paint3_linear)"/>
<path style="mix-blend-mode:multiply" d="M239.276 204.482C230.66 217.35 221.222 229.648 211.019 241.297C192.846 261.831 170.454 278.195 145.376 289.269C131.248 295.589 116.687 301.655 101.458 304.743C96.0451 305.844 90.5057 306.548 85.0024 307.144C82.7481 307.37 80.4836 307.478 78.218 307.469C78.4795 307.835 78.7204 308.214 78.9397 308.607C80.536 311.856 81.0784 315.524 80.4914 319.097C79.9878 324.013 78.5809 328.794 76.3414 333.198C104.459 333.389 132.168 326.458 156.888 313.048C170.801 305.494 183.561 295.984 194.78 284.81C201.234 278.456 207.262 271.682 212.824 264.534C218.04 257.668 222.635 250.35 226.555 242.669C230.975 233.995 234.921 225.086 238.373 215.983C240.557 210.35 244.274 204.103 243.57 198.162C242.181 200.347 240.737 202.387 239.276 204.482Z" fill="url(#paint4_linear)"/>
<path style="mix-blend-mode:multiply" d="M69.8462 275.204H69.6656C70.0987 275.439 70.5498 275.692 70.9648 275.963C70.4957 275.602 70.1348 275.367 69.8462 275.204Z" fill="url(#paint5_linear)"/>
<path d="M274.587 266.05C270.852 280.747 267.676 296.185 262.479 310.43C262.239 311.437 261.643 312.322 260.801 312.922C260.016 313.278 259.141 313.385 258.293 313.229C238.752 311.766 219.139 308.625 199.669 310.791C204.83 306.603 205.083 298.315 210.243 294.126C212.318 292.447 215.205 291.346 215.963 288.8C216.174 287.705 216.277 286.593 216.27 285.478C216.739 280.928 221.015 277.895 224.588 275.06C232.292 268.957 232.87 260.616 234.819 251.714C236.104 247.162 238.016 242.811 240.502 238.787C249.091 222.934 252.898 207.118 245.717 190.038C244.923 188.232 277.456 185.885 279.657 185.867C281.266 185.675 282.888 186.094 284.204 187.04C284.741 187.709 285.139 188.478 285.375 189.303C285.61 190.128 285.679 190.991 285.575 191.843C285.629 217.012 280.794 241.676 274.587 266.05Z" fill="url(#paint6_linear)"/>
<path style="mix-blend-mode:multiply" d="M241.694 236.584C248.601 233.06 255.858 230.271 263.346 228.261C269.804 226.465 276.411 225.256 283.086 224.65C284.682 213.841 285.497 202.931 285.522 192.006C285.625 191.154 285.557 190.29 285.321 189.465C285.086 188.641 284.688 187.871 284.15 187.203C282.848 186.207 281.216 185.743 279.585 185.903C277.384 185.903 244.851 188.232 245.645 190.074C252.52 206.323 249.416 221.472 241.694 236.584Z" fill="url(#paint7_linear)"/>
<path d="M216.036 205.222C234.649 211.268 254.259 213.635 273.775 212.191C282.057 211.686 290.411 209.826 298.766 209.23C299.343 209.23 298.964 194.786 298.91 193.45C298.712 188.467 297.106 160.246 296.492 150.966C294.995 130.87 292.541 110.721 286.947 91.3833C283.898 80.8751 281.823 75.6572 271.087 71.7753C262.534 68.6878 253.711 69.6086 247.233 76.4335C234.602 89.8486 225.581 106.297 216.866 122.619C205.823 143.401 194.78 165.139 193.68 188.647C193.466 190.451 193.721 192.279 194.419 193.956C195.561 195.733 197.207 197.129 199.147 197.964C204.567 200.844 210.216 203.272 216.036 205.222Z" fill="url(#paint8_linear)"/>
<path style="mix-blend-mode:multiply" d="M225.22 200.961C225.22 201.087 225.834 200.546 226.213 200.094L225.545 200.69L225.22 200.961Z" fill="url(#paint9_linear)"/>
<path style="mix-blend-mode:multiply" d="M225.219 200.961L226.266 200.022C226.913 199.276 227.516 198.492 228.07 197.675V197.53L228.63 196.393C228.861 195.886 229.065 195.368 229.243 194.84C229.243 194.515 229.351 194.19 229.387 193.865C228.539 193.522 227.691 193.251 226.825 192.981C224.227 192.349 221.611 191.753 219.085 190.868C215.404 189.506 212.084 187.319 209.377 184.476C208.253 183.097 207.526 181.436 207.274 179.673C207.023 177.911 207.257 176.113 207.952 174.474C211.037 167.125 214.032 159.65 218.615 153.078C222.964 146.867 228.936 142.245 234.422 137.154C235.847 135.835 237.236 134.463 238.608 133.091L239.203 132.477C239.853 131.791 240.502 131.087 241.116 130.383C243.7 127.559 246.11 124.58 248.333 121.463C249.344 120.019 250.282 118.538 251.184 117.04L251.527 116.408C251.762 115.975 251.978 115.523 252.195 115.09C253.277 112.851 254.234 110.558 255.154 108.265C257.184 103.08 258.931 97.7877 260.386 92.4125C261.997 86.5172 262.953 80.4621 263.237 74.3572C263.174 72.9363 262.993 71.5232 262.696 70.1322C262.704 70.0784 262.704 70.0236 262.696 69.9697C259.829 69.8486 256.971 70.3508 254.317 71.4418C251.663 72.5327 249.277 74.1865 247.323 76.2891C234.692 89.7042 225.67 106.153 216.955 122.475C205.913 143.256 194.87 164.995 193.769 188.503C193.556 190.306 193.811 192.135 194.509 193.811C195.65 195.589 197.297 196.985 199.237 197.819C204.643 200.723 210.28 203.175 216.089 205.15C218.038 205.818 220.005 206.432 221.99 206.955C222.394 204.662 223.527 202.56 225.219 200.961Z" fill="url(#paint10_linear)"/>
<path d="M257.844 97.5402C251.222 113.429 237.166 124.948 222.622 134.138C208.079 143.328 192.417 151.02 179.624 162.521C177.82 164.074 176.16 166.71 177.712 168.425C172.684 167.813 167.589 168.063 162.645 169.166C163.331 161.041 167.21 153.548 171.505 146.615C180.716 132.206 191.395 118.791 203.37 106.586C217.047 92.25 232.24 78.6002 250.59 71.2516C268.94 63.9031 261.543 88.8556 257.844 97.5402Z" fill="url(#paint11_linear)"/>
<path style="mix-blend-mode:multiply" d="M250.589 71.2516C232.184 78.6002 217.046 92.25 203.369 106.586C191.394 118.791 180.715 132.206 171.504 146.615C167.209 153.548 163.33 161.059 162.644 169.166C167.588 168.063 172.683 167.813 177.711 168.425C176.159 166.71 177.891 164.074 179.623 162.521C181.807 160.553 184.098 158.712 186.426 156.942C189.511 154.595 191.839 141.324 194.167 137.316C197.775 131.051 202.232 125.056 206.328 119.044C213.687 108.266 221.676 97.9319 230.254 88.0972C233.834 83.7848 238.102 80.094 242.884 77.1738C245.645 75.5127 255.515 69.0128 258.835 70.403C256.94 69.6267 254.324 69.7711 250.589 71.2516Z" fill="url(#paint12_linear)"/>
<path d="M199.598 122.095V122.258C198.144 136.473 194.358 150.351 188.393 163.334C189.096 164.616 189.638 166.186 190.197 167.125C192.633 170.935 196.747 172.722 201.023 173.752C204.691 174.393 208.308 175.292 211.849 176.442C216.914 178.473 221.025 182.342 223.361 187.275C215.058 189.647 206.964 192.703 199.165 196.411V196.519L198.353 196.772L197.595 197.151V197.025C189.356 199.629 181.347 202.915 173.651 206.847C171.996 201.633 172.363 195.986 174.68 191.031C176.495 187.751 178.546 184.607 180.814 181.624C183.214 178.013 185.019 173.878 184.207 169.436C184.008 168.335 183.322 166.818 182.98 165.392C169.768 159.956 157.544 152.373 146.802 142.949L146.676 142.859C137.474 134.752 130.328 124.587 128.073 112.959L156.095 101.928L160.461 100.212L162.951 99.2374L192.868 87.4653C199.147 97.5763 200.825 109.89 199.598 122.095ZM184.658 161.637H184.567H184.658Z" fill="url(#paint13_linear)"/>
<g style="mix-blend-mode:multiply" opacity="0.38">
<path style="mix-blend-mode:multiply" opacity="0.38" d="M171.882 159.47C168.913 156.826 166.228 153.879 163.871 150.677C154.131 138.178 146.305 124.298 140.649 109.493C140.49 109.086 140.381 108.662 140.324 108.229L128.163 113.014C130.418 124.641 137.563 134.806 146.766 142.913L146.892 143.003C155.626 150.658 165.334 157.124 175.762 162.232C174.417 161.386 173.122 160.463 171.882 159.47Z" fill="url(#paint14_linear)"/>
<path style="mix-blend-mode:multiply" opacity="0.38" d="M190.485 151.399L190.648 150.839L190.9 149.991C190.9 149.684 191.063 149.377 191.135 149.07C191.297 148.438 191.442 147.806 191.586 147.264C191.911 145.838 192.181 144.412 192.434 142.967C192.867 140.385 193.174 137.785 193.372 135.167C193.481 133.849 193.535 132.531 193.589 131.213V131.015C193.589 130.708 193.589 130.401 193.589 130.094C193.589 129.42 193.589 128.752 193.589 128.09C193.526 122.814 193.11 117.548 192.344 112.327C191.965 109.764 191.514 107.2 190.991 104.654C190.702 103.282 190.377 101.891 190.052 100.519L189.8 99.5623L189.367 97.8832C188.645 95.2291 187.833 92.593 186.967 89.993L174.011 95.0846C174.481 96.1138 174.932 97.1429 175.383 98.1721C182.827 115.14 187.908 133.049 190.485 151.399Z" fill="url(#paint15_linear)"/>
<path style="mix-blend-mode:multiply" opacity="0.38" d="M208.493 192.421C213.373 190.473 218.347 188.774 223.397 187.329C221.061 182.396 216.95 178.527 211.886 176.496C208.345 175.346 204.727 174.447 201.059 173.806C200.085 173.553 199.111 173.282 198.154 172.939C201.42 179.475 205.264 185.794 208.493 192.421Z" fill="url(#paint16_linear)"/>
<path style="mix-blend-mode:multiply" opacity="0.38" d="M188.339 192.24C186.707 188.471 185.62 184.489 185.109 180.414C184.73 178.193 184.549 175.972 184.243 173.752C183.67 176.603 182.509 179.302 180.832 181.678C178.564 184.662 176.513 187.805 174.698 191.085C172.381 196.04 172.014 201.687 173.669 206.901C179.841 203.762 186.212 201.029 192.741 198.722C190.99 196.769 189.509 194.588 188.339 192.24Z" fill="url(#paint17_linear)"/>
</g>
<path d="M167.949 166.204C169.783 165.856 171.591 165.385 173.362 164.796C178.775 162.232 193.21 150.803 196.62 161.691C196.996 163.337 196.903 165.056 196.351 166.652C195.799 168.247 194.811 169.656 193.499 170.718C190.829 172.805 187.758 174.317 184.477 175.16C177.404 177.471 167.715 180.107 162.464 172.921C162.057 172.422 161.763 171.841 161.601 171.218C161.439 170.595 161.413 169.944 161.526 169.31C162.013 167.848 164.99 166.891 167.949 166.204Z" fill="#DDC69B"/>
<path d="M257.463 9.52054C262.1 11.5608 267.531 9.62887 272.511 10.5316C274.433 10.8851 276.256 11.6486 277.857 12.7703C279.457 13.8919 280.797 15.3453 281.786 17.0316C283.951 20.7871 284.276 25.5356 287.073 28.8758C288.246 30.2661 289.779 31.3133 290.952 32.7216C292.049 34.0947 292.756 35.7387 292.997 37.4801C293.239 39.2215 293.006 40.9959 292.323 42.616C290.519 46.7145 286.044 49.2423 284.565 53.4491C284.114 54.7311 283.969 56.1032 283.482 57.3671C282.748 58.9368 281.643 60.3043 280.263 61.3517C278.883 62.3991 277.269 63.0951 275.561 63.3796C274.168 63.5532 272.804 63.9051 271.501 64.4268C268.794 65.7809 267.604 69.1573 265.005 70.71C260.819 73.2197 255.532 70.06 250.679 70.3308C245.825 70.6017 241.657 74.5558 236.929 76.4516C231.426 78.6724 225.219 78.0043 219.409 76.8849C215.979 75.9137 212.385 75.6617 208.854 76.1446C205.407 76.921 202.502 79.196 199.182 80.4237C195.862 81.6515 191.459 81.471 189.655 78.4377C191.879 74.8193 194.783 71.6675 198.208 69.1572C205.786 63.6323 216.053 61.0504 220.889 53.0158C222.458 50.3978 223.288 47.4006 224.894 44.8006C229.225 37.8313 237.922 35.2855 244.742 30.6994C247.738 28.6592 250.607 25.8425 251.003 22.2495C251.184 20.6065 250.823 18.9454 251.003 17.2843C251.172 16.1587 251.573 15.0806 252.18 14.1185C252.788 13.1564 253.589 12.3315 254.533 11.6963C255.477 11.0611 256.542 10.6294 257.662 10.4289C258.781 10.2284 259.93 10.2634 261.036 10.5316" fill="url(#paint18_linear)"/>
<path d="M270.924 55.9046C270.003 61.5096 270.493 67.2561 272.35 72.6239C267.857 72.1003 263.328 72.985 259.033 71.4141C258.868 71.3632 258.719 71.2699 258.6 71.1433C258.506 70.167 258.592 69.1817 258.853 68.2364C260.079 65.3922 260.622 62.3007 260.441 59.2087C260.152 54.5144 258.149 49.7478 257.013 45.1617C256.525 43.2659 256.146 41.009 257.482 39.5826C257.99 39.097 258.609 38.7437 259.286 38.5535C260.584 38.2404 261.94 38.2546 263.231 38.5949C264.522 38.9353 265.708 39.5911 266.684 40.5035C268.616 42.3724 269.937 44.7834 270.473 47.4186C271.059 50.2072 271.211 53.0696 270.924 55.9046Z" fill="#DDC69B"/>
<path d="M282.363 29.3453C282.527 31.5907 282.804 33.8264 283.193 36.0438C283.609 37.896 284.47 39.6188 285.701 41.0631C284.604 40.8944 283.483 40.9683 282.417 41.2798C281.695 41.8576 281.262 43.9881 280.811 44.8909C279.505 47.3445 277.818 49.5751 275.813 51.4991C275.174 52.1849 274.383 52.7106 273.504 53.0338C271.483 53.6116 269.48 52.2213 267.856 50.9033C262.443 46.57 259.249 42.995 258.834 36.0799C258.379 32.4486 258.668 28.7627 259.682 25.2467C262.768 16.7607 272.998 17.8259 278.917 22.7731C280.871 24.4358 282.106 26.7912 282.363 29.3453Z" fill="#DDC69B"/>
<path d="M276.428 34.0757C272.206 35.8813 266.919 38.2104 266.811 42.7964C266.811 44.1686 267.28 45.5047 267.262 46.8589C267.262 50.0908 264.519 52.6546 261.651 54.081C255.462 57.1865 248.172 56.8435 241.243 56.7893C230.597 56.7893 219.392 57.674 210.569 63.56C204.939 67.2975 199.743 73.1294 193.012 72.8224C192.209 72.7413 191.399 72.7413 190.595 72.8224C187.509 73.328 186.427 77.0835 184.586 79.6293C182.15 83.0056 177.892 84.4681 173.922 85.7319C173.652 83.2764 176.358 81.6876 177.73 79.6112C180.183 75.9099 178.09 71.0349 177.495 66.6114C177.008 62.5121 177.872 58.3658 179.956 54.8034C182.041 51.241 185.232 48.4576 189.043 46.8769C195.503 44.4034 203.622 45.3964 208.512 40.4853C213.402 35.5743 212.301 26.8897 215.206 20.3176C217.66 15.3527 221.932 11.5247 227.133 9.62883C232.294 7.78298 237.714 6.76536 243.192 6.61362C245.568 6.64007 247.925 6.18556 250.121 5.27749C252.232 4.19417 253.82 2.2623 255.913 1.14287C259.936 -1.00572 264.844 0.294247 269.193 1.63034C271.927 2.27434 274.489 3.50659 276.699 5.2414C278.197 6.57749 279.243 8.36495 280.705 9.73716C284.873 13.7093 291.332 15.2621 288.608 22.0509C287.473 24.7614 285.812 27.2198 283.722 29.2839C281.631 31.3479 279.152 32.9766 276.428 34.0757Z" fill="url(#paint19_linear)"/>
<path d="M137.943 78.9974L139.422 84.4501L144.511 85.389L138.448 87.2848L139.657 94.1277L135.254 90.5889L129.841 92.2139L133.017 86.382L128.632 82.2834L134.28 82.5723L137.943 78.9974Z" fill="url(#paint20_linear)"/>
<path d="M168.418 81.507L164.954 82.7348L164.575 86.075L163.059 82.2293L158.674 83.3487L160.749 80.3154L159.45 76.8668L163.384 78.6543L165.838 75.621L165.928 79.2862L168.418 81.507Z" fill="url(#paint21_linear)"/>
<path d="M146.369 44.6923L155.12 48.4659L161.706 42.7604L157.845 52.745L168.13 58.324L158.855 60.4185L155.319 69.2656L150.952 58.974L140.956 60.4546L147.235 53.3047L146.369 44.6923Z" fill="url(#paint22_linear)"/>
<defs>
<linearGradient id="paint0_linear" x1="365.906" y1="329.804" x2="-0.0368234" y2="329.804" gradientUnits="userSpaceOnUse">
<stop stop-color="#C9DDFF"/>
<stop offset="1" stop-color="#74DFBC"/>
</linearGradient>
<linearGradient id="paint1_linear" x1="272.758" y1="90.6519" x2="382.923" y2="75.083" gradientUnits="userSpaceOnUse">
<stop stop-color="#4B2F9A"/>
<stop offset="0.16" stop-color="#4B2F9A"/>
<stop offset="0.65" stop-color="#B247AD"/>
<stop offset="1" stop-color="#8A48AE"/>
</linearGradient>
<linearGradient id="paint2_linear" x1="261.981" y1="106.814" x2="372.943" y2="106.375" gradientUnits="userSpaceOnUse">
<stop stop-color="#4B2F9A"/>
<stop offset="0.14" stop-color="#592F9F"/>
<stop offset="1" stop-color="#AC2FBA"/>
</linearGradient>
<linearGradient id="paint3_linear" x1="65.1087" y1="271.727" x2="251.873" y2="245.333" gradientUnits="userSpaceOnUse">
<stop stop-color="#FCA136"/>
<stop offset="0.53" stop-color="#F7C3A6"/>
<stop offset="1" stop-color="#B12B38"/>
</linearGradient>
<linearGradient id="paint4_linear" x1="172331" y1="-126898" x2="154838" y2="-126898" gradientUnits="userSpaceOnUse">
<stop stop-color="#FCA136"/>
<stop offset="0.53" stop-color="#F7C3A6"/>
<stop offset="1" stop-color="#B12B38"/>
</linearGradient>
<linearGradient id="paint5_linear" x1="65.5804" y1="275.07" x2="252.352" y2="248.673" gradientUnits="userSpaceOnUse">
<stop stop-color="#F7F2A7"/>
<stop offset="0.01" stop-color="#FC9E2D"/>
<stop offset="0.53" stop-color="#F7C3A6"/>
<stop offset="1" stop-color="#B12B38"/>
</linearGradient>
<linearGradient id="paint6_linear" x1="200.524" y1="239.383" x2="281.515" y2="254.687" gradientUnits="userSpaceOnUse">
<stop stop-color="#FCA135"/>
<stop offset="0.53" stop-color="#F7C3A6"/>
<stop offset="1" stop-color="#B12B38"/>
</linearGradient>
<linearGradient id="paint7_linear" x1="41725.3" y1="-49185.1" x2="39776.5" y2="-48612.2" gradientUnits="userSpaceOnUse">
<stop stop-color="#FCA135"/>
<stop offset="0.53" stop-color="#F7C3A6"/>
<stop offset="1" stop-color="#B12B38"/>
</linearGradient>
<linearGradient id="paint8_linear" x1="189.693" y1="151.396" x2="297.09" y2="136.218" gradientUnits="userSpaceOnUse">
<stop stop-color="#4B2F9A"/>
<stop offset="0.14" stop-color="#592F9F"/>
<stop offset="0.76" stop-color="#AC2FBA"/>
<stop offset="1" stop-color="#AC2FBA"/>
</linearGradient>
<linearGradient id="paint9_linear" x1="197.07" y1="203.59" x2="304.467" y2="188.413" gradientUnits="userSpaceOnUse">
<stop stop-color="#4B2F9A"/>
<stop offset="1" stop-color="#AC2FBA"/>
</linearGradient>
<linearGradient id="paint10_linear" x1="-81932.2" y1="-126061" x2="-77793.1" y2="-126646" gradientUnits="userSpaceOnUse">
<stop stop-color="#4B2F9A"/>
<stop offset="0.14" stop-color="#592F9F"/>
<stop offset="1" stop-color="#AC2FBA"/>
</linearGradient>
<linearGradient id="paint11_linear" x1="193.013" y1="97.6305" x2="215.856" y2="125.62" gradientUnits="userSpaceOnUse">
<stop stop-color="#4B2F9A"/>
<stop offset="0.24" stop-color="#4D309B"/>
<stop offset="0.71" stop-color="#9F45AC"/>
<stop offset="1" stop-color="#8A48AE"/>
</linearGradient>
<linearGradient id="paint12_linear" x1="-99860.5" y1="-85784.6" x2="-101161" y2="-86977.2" gradientUnits="userSpaceOnUse">
<stop stop-color="#4B2F9A"/>
<stop offset="0.14" stop-color="#592F9F"/>
<stop offset="1" stop-color="#AC2FBA"/>
</linearGradient>
<linearGradient id="paint13_linear" x1="130.93" y1="178.821" x2="197.007" y2="152.55" gradientUnits="userSpaceOnUse">
<stop stop-color="#FCBC2D"/>
<stop offset="0.13" stop-color="#FBE931"/>
<stop offset="0.53" stop-color="#F7C03E"/>
<stop offset="1" stop-color="#FF6E1E"/>
</linearGradient>
<linearGradient id="paint14_linear" x1="123.386" y1="159.847" x2="189.463" y2="133.575" gradientUnits="userSpaceOnUse">
<stop stop-color="#F7A356"/>
<stop offset="0.11" stop-color="#F7A555"/>
<stop offset="0.53" stop-color="#F7C03E"/>
<stop offset="1" stop-color="#FF6E1E"/>
</linearGradient>
<linearGradient id="paint15_linear" x1="122.518" y1="157.664" x2="188.595" y2="131.392" gradientUnits="userSpaceOnUse">
<stop stop-color="#DD9178"/>
<stop offset="0.03" stop-color="#DF9276"/>
<stop offset="0.05" stop-color="#E5966E"/>
<stop offset="0.06" stop-color="#EF9D61"/>
<stop offset="0.07" stop-color="#F7A356"/>
<stop offset="0.53" stop-color="#F7C03E"/>
<stop offset="1" stop-color="#FF6E1E"/>
</linearGradient>
<linearGradient id="paint16_linear" x1="145.972" y1="216.652" x2="212.048" y2="190.381" gradientUnits="userSpaceOnUse">
<stop stop-color="#F7A356"/>
<stop offset="0.53" stop-color="#F7C03E"/>
<stop offset="1" stop-color="#FF6E1E"/>
</linearGradient>
<linearGradient id="paint17_linear" x1="145.184" y1="214.671" x2="211.261" y2="188.399" gradientUnits="userSpaceOnUse">
<stop stop-color="#F7A356"/>
<stop offset="0.07" stop-color="#F7A555"/>
<stop offset="0.53" stop-color="#F7C03E"/>
<stop offset="1" stop-color="#FF6E1E"/>
</linearGradient>
<linearGradient id="paint18_linear" x1="261.824" y1="-12.7651" x2="231.041" y2="95.7121" gradientUnits="userSpaceOnUse">
<stop stop-color="#0966C9"/>
<stop offset="1" stop-color="#005853"/>
</linearGradient>
<linearGradient id="paint19_linear" x1="318.558" y1="14.6952" x2="194.063" y2="49.1047" gradientUnits="userSpaceOnUse">
<stop offset="0.37" stop-color="#096AC9"/>
<stop offset="1" stop-color="#00B8C4"/>
</linearGradient>
<linearGradient id="paint20_linear" x1="-15188.8" y1="-11680.4" x2="-15053.9" y2="-11699.5" gradientUnits="userSpaceOnUse">
<stop stop-color="#FCF72D"/>
<stop offset="0.53" stop-color="#F7C03E"/>
<stop offset="1" stop-color="#FF6E1E"/>
</linearGradient>
<linearGradient id="paint21_linear" x1="28962.4" y1="78843.6" x2="28973.9" y2="78897" gradientUnits="userSpaceOnUse">
<stop stop-color="#FCF72D"/>
<stop offset="0.53" stop-color="#F7C03E"/>
<stop offset="1" stop-color="#FF6E1E"/>
</linearGradient>
<linearGradient id="paint22_linear" x1="-214363" y1="-13904.3" x2="-214163" y2="-14242.1" gradientUnits="userSpaceOnUse">
<stop stop-color="#FCF72D"/>
<stop offset="0.53" stop-color="#F7C03E"/>
<stop offset="1" stop-color="#FF6E1E"/>
</linearGradient>
</defs>
</svg>
