<svg width="388" height="458" viewBox="0 0 388 458" fill="none" xmlns="http://www.w3.org/2000/svg">
<path d="M37.8462 73.1997C-5.64764 128.744 -14.2182 224.16 25.8313 283.909C59.1926 333.304 112.379 364.17 171.853 365.321C215.907 366.154 262.405 362.386 300.011 339.017C356.081 304.064 398.813 242.251 385.717 175.717C378.348 138.344 368.576 100.337 345.667 69.4705C323.437 40.6088 292.439 19.5804 257.238 9.48253C211.435 -4.89255 161.998 -2.92778 117.505 15.0365C83.7836 29.1606 56.7896 48.919 37.8462 73.1997Z" fill="url(#paint0_linear)"/>
<path d="M69.8063 95.615C35.2436 139.892 28.3547 215.669 60.3943 263.159C86.9071 302.437 129.199 326.956 176.538 327.868C211.661 328.543 248.627 325.528 278.263 306.96C322.758 279.188 356.841 230.033 346.348 177.147C340.5 147.431 332.771 117.119 314.669 92.6801C296.969 69.7684 272.32 53.082 244.342 45.071C207.927 33.6389 168.621 35.1965 133.244 49.4743C108.447 59.1993 86.5991 75.0903 69.8063 95.615Z" fill="#7BB8DD"/>
<path d="M69.8063 95.615C35.2436 139.892 28.3547 215.669 60.3943 263.159C86.9071 302.437 129.199 326.956 176.538 327.868C211.661 328.543 248.627 325.528 278.263 306.96C322.758 279.188 356.841 230.033 346.348 177.147C340.5 147.431 332.771 117.119 314.669 92.6801C296.969 69.7684 272.32 53.082 244.342 45.071C207.927 33.6389 168.621 35.1965 133.244 49.4743C108.447 59.1993 86.5991 75.0903 69.8063 95.615Z" fill="url(#paint1_linear)"/>
<g style="mix-blend-mode:multiply">
<path style="mix-blend-mode:multiply" d="M188.233 193.65H201.489C200.929 179.248 200.849 74.6272 200.849 67.0097C208.098 66.613 211.342 66.216 218.59 65.7796C209.726 49.9099 201.316 33.7503 193.359 17.2987L193.078 17.9321L192.759 17.2987C185.149 33.8561 177.139 50.1871 168.729 66.2949C176.018 66.5726 179.222 66.8908 186.511 67.1686C186.511 74.786 188.473 179.248 188.233 193.65Z" fill="url(#paint2_linear)"/>
<path style="mix-blend-mode:multiply" d="M214.104 180.32L220.793 191.627C229.684 186.033 296.087 148.62 300.893 145.843C304.897 151.953 306.659 154.571 310.544 160.641C316.231 147.417 322.306 134.431 328.767 121.682H328.246L328.446 121.205C314.135 120.571 299.73 119.473 285.233 117.912C288.677 124.26 290.119 127.116 293.563 133.464C288.797 136.321 223.396 175.36 214.104 180.32Z" fill="url(#paint3_linear)"/>
<path style="mix-blend-mode:multiply" d="M173.134 176.829C170.16 180.867 168.427 185.669 168.143 190.659C167.859 195.649 169.036 200.614 171.532 204.958C173.649 208.201 176.53 210.886 179.928 212.78C183.326 214.674 187.138 215.721 191.036 215.829C196.958 216.34 202.901 215.125 208.137 212.336C215.626 207.655 221.314 199.403 219.592 190.516C218.885 185.465 217.066 180.63 214.265 176.353C211.286 172.523 207.145 169.741 202.45 168.418C196.336 166.486 189.733 166.739 183.787 169.133C179.626 170.745 175.955 173.396 173.134 176.829Z" fill="url(#paint4_linear)"/>
</g>
<path d="M188.152 184.882H201.369C200.848 170.52 200.768 65.8603 200.728 58.2825C208.017 57.8461 211.221 57.4481 218.51 57.0117C209.673 41.142 201.262 24.9947 193.279 8.56953L192.999 9.16426L192.678 8.56953C185.069 25.1269 176.992 41.4457 168.448 57.527C175.697 57.8047 178.941 58.122 186.23 58.4394C186.51 65.9775 188.393 170.48 188.152 184.882Z" fill="#353868"/>
<path d="M214.025 171.511L220.713 182.819C229.604 177.225 295.966 139.852 300.812 137.075C304.817 143.145 306.539 145.764 310.464 151.874C316.151 138.649 322.225 125.661 328.687 112.912H328.126L328.366 112.437C314.055 111.803 299.65 110.691 285.152 109.104C288.597 115.451 289.999 118.348 293.443 124.696C288.717 127.513 223.317 166.591 214.025 171.511Z" fill="#353868"/>
<path d="M173.053 168.061C170.08 172.099 168.347 176.901 168.063 181.891C167.778 186.881 168.955 191.846 171.452 196.19C173.568 199.433 176.451 202.118 179.849 204.012C183.247 205.906 187.059 206.953 190.956 207.061C196.877 207.549 202.813 206.336 208.056 203.569C215.506 198.887 221.233 190.635 219.471 181.748C218.777 176.682 216.957 171.83 214.144 167.544C211.121 163.67 206.901 160.883 202.129 159.609C196.024 157.69 189.433 157.958 183.506 160.365C179.41 161.994 175.809 164.646 173.053 168.061Z" fill="#C9DFF3"/>
<path style="mix-blend-mode:multiply" opacity="0.73" d="M172.774 170.481C171.357 169.832 169.805 169.526 168.245 169.588C166.685 169.65 165.163 170.078 163.803 170.837C157.891 174.392 152.823 179.17 148.945 184.843C146.462 188.057 144.018 191.309 141.295 194.324C139.147 197.057 136.411 199.28 133.285 200.831C131.911 201.267 130.689 202.077 129.761 203.171C129.265 204.297 128.928 205.486 128.76 206.703C128.12 209.654 126.582 212.341 124.354 214.399C119.788 218.645 113.781 220.986 109.215 225.192C104.317 230.516 101.077 237.128 99.8841 244.235C98.6026 249.273 97.0401 254.194 95.358 259.074C92.3387 268.31 88.6995 277.337 84.4647 286.092C78.1368 298.828 67.8842 313.863 53.4263 316.322C83.0025 344.605 121.613 361.78 162.601 364.885C163.527 363.706 164.668 362.709 165.966 361.948C169.116 360.114 172.533 358.775 176.098 357.98C194.04 353.775 213.144 355.878 230.766 350.046C237.614 347.824 244.302 343.818 246.345 336.518C247.144 334.231 247.144 331.742 246.345 329.455C245.361 327.529 243.734 326.001 241.739 325.131C236.868 322.896 232.204 320.241 227.802 317.196C223.483 313.647 220.632 308.648 219.792 303.151C219.012 298.953 218.73 294.679 218.951 290.416C219.432 286.171 219.432 281.885 218.951 277.64C217.382 269.408 215.103 261.326 212.142 253.479C209.463 245.569 206.294 237.832 202.651 230.31C198.957 222.836 194.616 215.695 189.675 208.966C184.903 203.444 180.565 197.567 176.699 191.389C175.192 188.629 174.356 185.558 174.255 182.422C174.255 179.922 174.737 177.424 174.817 174.925C174.897 172.425 174.817 171.473 172.774 170.481Z" fill="url(#paint5_linear)"/>
<path d="M92.6347 434.554C89.0821 436.862 86.0589 439.884 83.7614 443.424C81.4639 446.965 79.9431 450.944 79.2979 455.104C79.9309 456.051 80.8153 456.81 81.8537 457.293C82.8922 457.776 84.0446 457.966 85.185 457.843C87.2242 457.432 89.1096 456.47 90.6322 455.065C96.671 450.015 100.656 442.967 101.846 435.228C98.3554 434.198 94.7062 433.796 91.0722 434.038C91.0722 434.038 92.4344 434.673 92.6347 434.554Z" fill="#199158"/>
<path d="M140.895 410.351C140.055 413.511 140.055 416.833 140.895 419.992L142.497 428.443C143.098 431.577 144.018 435.226 146.982 436.575C148.852 437.294 150.914 437.367 152.832 436.784C154.75 436.201 156.414 434.995 157.556 433.361C158.213 430.949 157.913 428.381 156.715 426.182C154.425 420.462 151.844 414.861 148.984 409.4C148.743 408.801 148.359 408.27 147.864 407.852C146.462 406.543 141.536 408.407 140.895 410.351Z" fill="#199158"/>
<path d="M144.138 425.15C142.749 421.769 141.651 418.279 140.855 414.716C140.855 413.962 140.534 413.207 140.414 412.453C140.216 414.981 140.418 417.526 141.014 419.993C141.535 422.81 142.096 425.626 142.617 428.443C143.137 431.26 144.138 435.226 147.102 436.575C148.067 436.968 149.101 437.172 150.145 437.172H150.867C147.979 433.554 145.705 429.493 144.138 425.15Z" fill="#195C58"/>
<path d="M100.524 433.362C99.3372 437.739 97.1901 441.803 94.2364 445.264L93.2752 446.653C90.342 450.866 86.7926 454.624 82.7427 457.802H83.3029C85.6978 457.933 88.0862 457.446 90.2344 456.389C92.3825 455.332 94.2171 453.741 95.5583 451.771C98.2163 447.814 100.066 443.379 101.005 438.718C101.431 436.928 101.263 435.049 100.524 433.362Z" fill="#195C58"/>
<path d="M218.871 322.989C220.693 325.397 223.159 327.25 225.992 328.337C228.824 329.424 231.908 329.701 234.891 329.137C235.338 329.081 235.764 328.919 236.132 328.663C236.43 328.283 236.611 327.826 236.653 327.347C236.696 326.869 236.598 326.389 236.373 325.964C234.962 323.057 232.79 320.577 230.085 318.783C227.521 316.759 215.267 304.341 212.704 310.61C212.376 313.317 212.805 316.062 213.945 318.545C214.346 319.933 214.786 322.512 216.107 323.504C216.708 323.901 219.913 324.377 218.871 322.989Z" fill="#DDC69B"/>
<path d="M51.3031 310.094C50.4338 310.663 49.7055 311.419 49.1716 312.305C48.6377 313.191 48.3118 314.185 48.2192 315.213C48.3502 316.291 48.8378 317.295 49.6057 318.07C50.3736 318.845 51.3789 319.348 52.4647 319.498C54.6347 319.732 56.8158 319.167 58.5924 317.911C59.5937 317.276 60.9555 316.522 61.7966 317.355C60.9207 318.041 60.3461 319.037 60.194 320.133C60.194 321.204 61.6761 322.195 62.437 321.402C64.3995 319.061 64.6798 315.649 66.442 313.229C68.2042 310.809 70.9273 309.778 71.2076 307.08C71.488 304.382 68.9249 302.716 66.3217 302.716C61.7961 302.676 54.6673 307.317 51.3031 310.094Z" fill="#DDC69B"/>
<path d="M183.267 308.546C182.413 305.299 180.825 302.288 178.622 299.74C178.376 299.394 178.06 299.102 177.695 298.883C177.329 298.665 176.922 298.523 176.499 298.469C175.662 298.583 174.894 298.992 174.336 299.62C164.404 308.388 148.344 308.269 135.809 308.785C128.48 309.102 119.428 308.784 113.701 303.666C112.211 301.868 110.26 300.497 108.054 299.699C106.491 299.646 104.938 299.98 103.539 300.673C102.14 301.366 100.939 302.395 100.044 303.666C96.1561 307.488 92.863 311.86 90.272 316.64C88.1437 320.248 86.2187 323.97 84.5051 327.789C82.5147 333.536 80.8566 339.39 79.539 345.324C76.8746 356.916 75.6767 368.791 75.9741 380.675C76.3002 390.617 78.0535 400.463 81.1807 409.915C82.1018 412.692 90.3523 435.266 93.4361 434.75C96.2892 434.311 99.1933 434.311 102.046 434.75C99.491 415.295 100.743 395.535 105.732 376.549C111.079 358.85 121.703 343.168 136.209 331.559C143.685 347.184 146.956 364.458 145.701 381.705C145.18 391.403 143.334 400.986 140.214 410.192L150.987 415.549C159.09 405.061 165.582 393.443 170.251 381.072C176.899 363.576 183.027 346.515 184.228 327.63C184.976 321.26 184.651 314.811 183.267 308.546Z" fill="url(#paint6_linear)"/>
<g style="mix-blend-mode:multiply">
<path style="mix-blend-mode:multiply" d="M105.17 378.85C103.849 380.834 102.607 382.817 101.486 384.999C100.765 386.308 100.084 387.657 99.4033 388.966L98.5624 390.832L98.1214 391.862C98.1214 391.862 98.1214 392.141 98.1214 392.3C95.9765 397.588 94.3799 403.077 93.3557 408.685C93.3557 409.518 93.075 410.352 92.9549 411.145C92.8347 411.939 92.6745 413.406 92.9549 412.255C92.9549 413.604 92.6751 414.914 92.595 416.223C92.4149 419.103 92.4149 421.992 92.595 424.873C92.595 426.261 92.5944 427.649 92.9148 429.038C92.9148 429.434 92.9148 429.831 92.9148 430.188C92.9148 430.783 93.1153 431.379 93.2355 431.974C93.722 432.737 93.998 433.611 94.0363 434.512C96.8107 434.097 99.6326 434.097 102.407 434.512C99.9817 415.943 100.917 397.094 105.17 378.85Z" fill="url(#paint7_linear)"/>
</g>
<g style="mix-blend-mode:multiply">
<path style="mix-blend-mode:multiply" d="M113.541 315.807C122.856 319.185 132.743 320.749 142.657 320.41C156.76 320.249 170.784 318.302 184.389 314.618C184.201 312.565 183.825 310.532 183.267 308.546C182.414 305.299 180.825 302.288 178.622 299.74C178.376 299.394 178.06 299.102 177.695 298.883C177.329 298.665 176.922 298.523 176.499 298.469C175.662 298.583 174.895 298.992 174.336 299.62C164.404 308.388 148.344 308.269 135.809 308.785C128.48 309.102 119.429 308.784 113.702 303.666C111.539 301.603 108.454 298.232 105.05 299.978C102.626 301.917 100.693 304.389 99.4036 307.198C99.1633 308.785 100.725 309.976 102.127 310.73C105.802 312.694 109.617 314.39 113.541 315.807Z" fill="url(#paint8_linear)"/>
</g>
<g style="mix-blend-mode:multiply">
<path style="mix-blend-mode:multiply" d="M164.524 388.61C161.431 389.907 158.047 390.373 154.715 389.962C151.382 389.551 148.217 388.278 145.54 386.27C144.69 394.366 142.958 402.347 140.374 410.074L151.147 415.429C157.904 406.683 163.542 397.143 167.928 387.023C166.833 387.631 165.695 388.161 164.524 388.61Z" fill="url(#paint9_linear)"/>
</g>
<path d="M116.664 180.122C118.207 185.833 120.8 191.213 124.314 195.992C125.324 197.574 125.904 199.389 125.995 201.259C126.087 203.13 125.687 204.992 124.835 206.664C126.912 207.7 129.258 208.087 131.563 207.774C133.858 207.453 136.113 206.895 138.291 206.108C139.725 205.762 141.083 205.156 142.296 204.322C138.731 198.886 140.093 197.063 142.296 191.627C143.565 188.038 144.11 184.235 143.898 180.438C144.132 175.732 142.84 171.076 140.213 167.149C138.806 165.313 136.989 163.823 134.905 162.798C132.821 161.772 130.525 161.238 128.198 161.236C124.21 162.29 120.602 164.435 117.786 167.426C116.741 169.149 116.069 171.068 115.814 173.063C115.559 175.057 115.725 177.083 116.304 179.01C116.405 179.386 116.526 179.758 116.664 180.122Z" fill="#DDC69B"/>
<path d="M116.144 190.595C117.327 191.762 118.676 192.752 120.149 193.532C120.393 193.627 120.666 193.627 120.91 193.532C121.231 193.532 121.391 193.016 121.471 192.699C122.792 186.708 118.707 180.796 118.507 174.766C118.433 174.28 118.503 173.785 118.707 173.338C119.188 172.346 120.429 172.147 121.511 171.949C124.984 171.204 128.086 169.281 130.281 166.513C130.632 166.224 131.05 166.026 131.498 165.936C131.945 165.846 132.408 165.867 132.845 165.998C133.715 166.252 134.559 166.584 135.368 166.99C136.926 167.633 138.607 167.93 140.294 167.861C142.657 173.703 143.696 179.988 143.338 186.271C143.803 186.282 144.262 186.167 144.665 185.936C145.068 185.705 145.399 185.367 145.621 184.961C146.042 184.133 146.287 183.229 146.341 182.303C147.541 176.292 146.798 170.058 144.218 164.489C143.003 161.823 141.114 159.514 138.732 157.784C137.34 156.921 135.787 156.342 134.166 156.079C124.875 154.334 117.345 160.761 108.134 155.167C107.39 157.617 107.203 160.199 107.583 162.73C107.964 165.26 108.904 167.677 110.337 169.806C110.965 170.522 111.406 171.38 111.619 172.305C111.672 173.026 111.604 173.75 111.418 174.448C110.848 177.318 110.98 180.281 111.802 183.09C112.625 185.899 114.113 188.472 116.144 190.595Z" fill="#3522A8"/>
<path d="M224.518 312.91C220.513 311.997 214.145 301.247 212.222 298.985C204.573 290.019 201.769 279.544 199.046 268.197C196.434 255.204 192.169 242.593 186.351 230.665C180.063 218.763 161.961 195.99 145.821 201.307C144.843 201.692 143.892 202.142 142.977 202.655C138.375 204.946 133.181 205.804 128.078 205.115C124.736 204.172 121.297 203.613 117.826 203.449C107.854 204.401 100.004 215.946 95.1576 223.563C89.8936 231.928 85.6715 240.894 82.5825 250.264C77.6964 264.626 76.1746 279.862 69.5664 293.549C68.1437 297.256 65.8505 300.574 62.8774 303.23C64.5544 306.373 66.7168 309.238 69.2858 311.72C78.8882 307.766 87.0176 300.96 92.5548 292.24C100.925 277.124 104.57 260.738 108.575 244.075C109.53 237.327 112.565 231.037 117.265 226.062C114.902 228.125 113.661 235.466 112.7 238.441C111.378 242.607 110.256 246.853 109.255 251.138C107.453 258.716 105.611 266.57 104.369 274.227L99.1225 306.482C102.89 307.659 106.768 308.457 110.697 308.863C128.84 313.545 148.224 318.266 166.767 314.219C171.468 313.286 176.012 311.697 180.263 309.498C183.467 307.713 183.147 308.11 182.907 304.857C182.422 302.146 181.67 299.488 180.664 296.922C176.979 284.504 172.653 272.284 168.208 260.144C164.203 248.916 159.317 239.274 158.115 227.054C163.082 238.533 168.035 250.001 172.975 261.453C175.378 266.968 177.78 272.481 180.544 277.798C187.821 291.697 197.702 304.097 209.66 314.338C210.36 315.022 211.209 315.54 212.142 315.847C213.321 316.071 214.539 315.974 215.667 315.568L224.438 313.307L224.518 312.91Z" fill="url(#paint10_linear)"/>
<path style="mix-blend-mode:multiply" opacity="0.65" d="M114.421 228.921C114.372 228.704 114.305 228.491 114.221 228.285C113.78 228.285 113.34 228.563 112.9 228.762H112.659H112.419L111.578 229.198C110.777 229.634 110.056 230.111 109.335 230.587L109.014 230.866L108.093 231.699C107.452 232.294 106.852 232.928 106.251 233.562L105.97 233.88V234.118L105.41 234.951C104.889 235.705 104.368 236.459 103.928 237.253C103.101 238.626 102.353 240.042 101.686 241.497C101.325 242.172 101.045 242.887 100.724 243.601L100.203 244.949C99.0419 247.965 98.0406 251.098 97.1194 254.232C95.157 260.779 93.3955 267.365 90.7923 273.713C85.466 286.177 78.0895 297.68 68.9645 307.754C68.5186 308.29 67.9389 308.699 67.2827 308.943C68.0437 309.777 68.8049 310.61 69.6059 311.404C79.2083 307.449 87.3378 300.643 92.8749 291.923C101.245 276.807 104.89 260.423 108.895 243.76C109.745 238.505 111.622 233.463 114.421 228.921Z" fill="url(#paint11_linear)"/>
<path style="mix-blend-mode:multiply" opacity="0.65" d="M224.477 312.793C222.475 312.317 219.832 309.34 217.469 306.206C212.214 301.848 207.276 297.128 202.691 292.082C195.873 284.71 189.871 276.638 184.789 268C182.237 263.798 179.988 259.422 178.06 254.907C177.259 252.883 176.498 250.939 175.697 248.876L174.095 244.909V244.711L173.615 243.64L172.653 241.617C171.382 238.846 169.867 236.191 168.127 233.682C167.927 233.365 167.687 233.086 167.487 232.809C167.046 232.333 166.646 231.857 166.165 231.381C165.684 230.905 165.124 230.627 164.804 230.23L164.283 229.913H163.843H163.602H163.201H162.481H162.2H161.76H161.359C160.908 230.141 160.421 230.288 159.918 230.348C164.363 240.584 168.768 250.781 173.174 261.017C175.577 266.531 177.98 272.046 180.744 277.363C188.021 291.262 197.903 303.662 209.86 313.903C210.56 314.587 211.409 315.103 212.342 315.41C213.521 315.634 214.739 315.539 215.867 315.133L224.638 312.872L224.477 312.793Z" fill="url(#paint12_linear)"/>
<path style="mix-blend-mode:multiply" opacity="0.65" d="M181.585 298.827H180.664C179.463 298.827 178.26 298.827 177.059 298.827L170.13 299.263C165.758 299.517 161.372 299.129 157.114 298.112C143.017 294.7 133.085 282.798 126.357 270.579C121.9 262.606 118.801 253.96 117.185 244.988C116.825 242.885 116.544 240.744 116.264 238.642C116.264 237.848 116.264 237.053 115.983 236.3V235.269C115.983 235.269 115.983 234.395 115.983 234.316C115.783 233.007 115.503 231.658 115.183 230.348C114.221 233.205 113.54 236.538 112.98 238.283C111.658 242.449 110.537 246.695 109.536 250.98C107.734 258.558 105.892 266.412 104.65 274.07L99.4033 306.324C103.171 307.501 107.048 308.299 110.977 308.705C129.12 313.387 148.504 318.108 167.047 314.062C171.748 313.129 176.293 311.539 180.544 309.341C183.748 307.555 183.427 307.952 183.187 304.699C182.902 302.683 182.364 300.711 181.585 298.827Z" fill="url(#paint13_linear)"/>
<defs>
<linearGradient id="paint0_linear" x1="1.46102" y1="183.814" x2="389.321" y2="179.851" gradientUnits="userSpaceOnUse">
<stop stop-color="#C9DFF3"/>
<stop offset="1" stop-color="#4E88E9"/>
</linearGradient>
<linearGradient id="paint1_linear" x1="41.2286" y1="183.416" x2="349.593" y2="180.264" gradientUnits="userSpaceOnUse">
<stop stop-color="#7BB8DD"/>
<stop offset="1" stop-color="#4E64E9"/>
</linearGradient>
<linearGradient id="paint2_linear" x1="125816" y1="856530" x2="126439" y2="856530" gradientUnits="userSpaceOnUse">
<stop stop-color="#7BB8DD"/>
<stop offset="1" stop-color="#4E64E9"/>
</linearGradient>
<linearGradient id="paint3_linear" x1="290427" y1="359070" x2="293728" y2="359070" gradientUnits="userSpaceOnUse">
<stop stop-color="#7BB8DD"/>
<stop offset="1" stop-color="#4E64E9"/>
</linearGradient>
<linearGradient id="paint4_linear" x1="130677" y1="238290" x2="131347" y2="238290" gradientUnits="userSpaceOnUse">
<stop stop-color="#7BB8DD"/>
<stop offset="1" stop-color="#4E64E9"/>
</linearGradient>
<linearGradient id="paint5_linear" x1="479500" y1="956691" x2="498242" y2="956691" gradientUnits="userSpaceOnUse">
<stop stop-color="#C9DFF3"/>
<stop offset="1" stop-color="#4E88E9"/>
</linearGradient>
<linearGradient id="paint6_linear" x1="69.1068" y1="309.028" x2="159.006" y2="385.966" gradientUnits="userSpaceOnUse">
<stop stop-color="#183ED0"/>
<stop offset="0.82" stop-color="#0A006A"/>
</linearGradient>
<linearGradient id="paint7_linear" x1="31867.2" y1="274938" x2="31910" y2="274938" gradientUnits="userSpaceOnUse">
<stop stop-color="#183ED0"/>
<stop offset="0.82" stop-color="#0A006A"/>
</linearGradient>
<linearGradient id="paint8_linear" x1="212797" y1="108212" x2="214600" y2="108212" gradientUnits="userSpaceOnUse">
<stop stop-color="#183ED0"/>
<stop offset="0.82" stop-color="#0A006A"/>
</linearGradient>
<linearGradient id="paint9_linear" x1="69358.1" y1="144176" x2="69549.4" y2="144176" gradientUnits="userSpaceOnUse">
<stop stop-color="#183ED0"/>
<stop offset="0.82" stop-color="#0A006A"/>
</linearGradient>
<linearGradient id="paint10_linear" x1="63.9436" y1="258.453" x2="225.575" y2="256.801" gradientUnits="userSpaceOnUse">
<stop stop-color="#FF5D78"/>
<stop offset="0.1" stop-color="#FF5F76"/>
<stop offset="0.16" stop-color="#FF666E"/>
<stop offset="0.2" stop-color="#FE7161"/>
<stop offset="0.23" stop-color="#FD814E"/>
<stop offset="0.26" stop-color="#FC9636"/>
<stop offset="0.27" stop-color="#FC9E2D"/>
<stop offset="0.6" stop-color="#F7C360"/>
<stop offset="1" stop-color="#CE2B72"/>
</linearGradient>
<linearGradient id="paint11_linear" x1="64.0553" y1="269.403" x2="225.687" y2="267.751" gradientUnits="userSpaceOnUse">
<stop stop-color="#F7F2A7"/>
<stop offset="0.01" stop-color="#FC9E2D"/>
<stop offset="0.53" stop-color="#F7C3A6"/>
<stop offset="1" stop-color="#B12B38"/>
</linearGradient>
<linearGradient id="paint12_linear" x1="161502" y1="419662" x2="164114" y2="419662" gradientUnits="userSpaceOnUse">
<stop stop-color="#F7F2A7"/>
<stop offset="0.01" stop-color="#FC9E2D"/>
<stop offset="0.53" stop-color="#F7C3A6"/>
<stop offset="1" stop-color="#B12B38"/>
</linearGradient>
<linearGradient id="paint13_linear" x1="209319" y1="417852" x2="212707" y2="417852" gradientUnits="userSpaceOnUse">
<stop stop-color="#F7F2A7"/>
<stop offset="0.01" stop-color="#FC9E2D"/>
<stop offset="0.53" stop-color="#F7C3A6"/>
<stop offset="1" stop-color="#B12B38"/>
</linearGradient>
</defs>
</svg>
