<svg width="497" height="310" viewBox="0 0 497 310" fill="none" xmlns="http://www.w3.org/2000/svg">
<path opacity="0.2" d="M301.535 203.922C310.969 166.478 301.667 124.856 277.25 94.858C264.042 78.6524 246.984 65.9584 229.012 55.2173C211.473 44.7484 192.774 35.9227 172.914 31.0779C115.071 16.9943 48.492 42.063 18.3393 93.1679C-0.529666 125.157 -4.68085 164.948 5.13103 200.711C14.9429 236.474 38.3122 268.049 68.4743 289.841C82.2392 299.794 97.8816 307.962 114.807 309.643C123.421 310.507 132.119 309.643 140.695 308.535C209.501 299.531 282.392 280.208 301.535 203.922Z" fill="#F8C46B"/>
<path opacity="0.38" d="M338.953 176.731C348.387 139.278 339.085 97.6654 314.678 67.6672C301.469 51.4522 284.402 38.7582 266.43 28.0264C248.9 17.5482 230.201 8.72248 210.332 3.8871C152.499 -10.1966 85.91 14.8722 55.7573 65.9771C36.8883 97.9564 32.7371 137.747 42.549 173.52C52.3609 209.292 75.7396 240.859 105.892 262.651C119.657 272.594 169.537 282.471 178.123 281.344C246.9 272.303 319.801 253.008 338.953 176.731Z" fill="#F8C373"/>
<path d="M275.44 207.011C281.03 194.949 283.779 181.777 283.477 168.498C283.174 155.219 279.828 142.184 273.695 130.387C266.987 117.73 257.194 106.914 246.533 97.3088C236.155 87.9197 224.73 79.5162 212.003 73.6293C174.963 56.4754 126.79 64.5314 99.6567 94.9333C82.6746 113.956 74.5515 140.189 76.4006 165.567C78.2498 190.946 89.7222 215.33 107.11 233.958C115.035 242.483 124.479 250.05 135.64 253.431C141.301 255.149 147.292 255.731 153.216 256.116C200.7 259.158 252.354 255.825 275.44 207.011Z" fill="url(#paint0_linear)"/>
<path d="M108.901 176.806C104.913 173.582 102.161 169.089 101.108 164.084C100.348 169.212 97.6479 173.857 93.5605 177.069C96.4381 179.341 99.5797 182.928 100.212 186.599C100.334 187.359 100.495 188.28 101.212 188.561C102.155 185.67 102.552 182.599 104.523 180.318C104.976 179.754 107.995 176.083 108.901 176.806Z" fill="#E5F4DB"/>
<path d="M124.458 215.762C120.352 213.795 117.183 210.307 115.628 206.044C115.256 210.277 113.222 214.194 109.967 216.945C112.998 219.306 115.305 222.464 116.628 226.061C118.184 225.517 122.062 214.626 124.458 215.762Z" fill="#E5F4DB"/>
<path d="M93.0511 199.321C87.5225 195.782 83.9751 190.683 81.4561 184.759C80.6224 189.643 78.3691 194.177 74.9746 197.8C74.405 198.303 73.9153 198.889 73.5218 199.537C73.3224 199.861 73.2168 200.233 73.2168 200.612C73.2168 200.992 73.3224 201.364 73.5218 201.687C73.7599 201.971 74.0476 202.21 74.3709 202.392C77.5441 204.488 80.251 207.211 82.3241 210.391C82.5317 210.71 82.7959 211.086 83.1921 211.105C83.5884 211.123 83.9846 210.635 84.2016 210.166C84.9375 208.701 90.5321 197.706 93.0511 199.321Z" fill="#E5F4DB"/>
<g style="mix-blend-mode:multiply" opacity="0.2">
<g style="mix-blend-mode:multiply" opacity="0.2">
<path d="M338.009 73.451C341.462 77.7981 346.133 80.7275 352.246 79.7229C359.435 78.5398 363.568 71.0849 366.124 64.2778C368.832 56.9355 370.842 49.199 370.549 41.3873C370.096 30.6556 362.681 19.0975 352.265 15.4733C340.528 11.389 333.396 21.4353 330.679 31.829C329.362 37.5014 328.992 43.3509 329.584 49.1427C329.784 52.6722 330.354 56.1712 331.283 59.5833C332.636 64.5831 334.917 69.2867 338.009 73.451Z" fill="#CDCFD1"/>
</g>
<g style="mix-blend-mode:multiply" opacity="0.2">
<path d="M340.039 70.8312C344.592 70.4619 349.149 70.1241 353.709 69.8174C354.078 69.7578 354.457 69.7999 354.804 69.9393C355.379 70.2304 355.539 70.9721 355.653 71.6106C356.731 77.5487 359.801 82.9473 364.361 86.9243C364.795 87.2999 365.304 87.8632 364.974 88.3702C364.854 88.5215 364.698 88.6408 364.521 88.7175C358.86 91.7314 352.256 92.3793 345.897 92.9614C343.445 93.3276 340.952 93.3276 338.501 92.9614C336.935 92.6422 333.519 91.7221 333.048 89.9288C332.576 88.1354 335.482 85.7694 336.378 84.3517C338.952 80.3205 340.229 75.6037 340.039 70.8312Z" fill="#CDCFD1"/>
</g>
<g style="mix-blend-mode:multiply" opacity="0.31">
<path d="M265.958 293.982C265.647 296.363 265.879 298.782 266.638 301.061C267.032 302.194 267.706 303.21 268.598 304.016C269.489 304.822 270.571 305.391 271.742 305.672C274.931 306.235 278.044 303.841 279.374 300.902C280.705 297.963 280.667 294.621 280.61 291.41L280.488 284.17C280.488 281.739 280.374 279.204 279.223 277.063C272.61 264.791 266.308 289.804 265.958 293.982Z" fill="#314E66"/>
</g>
<g style="mix-blend-mode:multiply" opacity="0.31">
<path d="M419.996 269.486C420.091 277.213 420.383 285.504 425.015 291.71C425.525 292.501 426.252 293.13 427.11 293.522C427.743 293.727 428.415 293.778 429.072 293.672C431.025 293.431 432.823 292.489 434.129 291.024C436.016 288.874 436.648 285.898 436.959 283.044C437.854 275.578 437.442 268.014 435.742 260.688C435.431 259.346 434.035 259.487 433.025 258.538C431.711 257.434 430.108 256.726 428.403 256.497C426.699 256.267 424.964 256.526 423.402 257.242C420.289 258.752 417.871 261.384 416.638 264.604C416.468 265.101 419.562 269.223 419.996 269.486Z" fill="#314E66"/>
</g>
<g style="mix-blend-mode:multiply" opacity="0.2">
<path d="M265.052 203.18C269.599 213.78 279.902 221.451 289.714 227.273C293.912 229.761 298.29 231.967 302.686 234.051C320.046 242.408 338.084 249.074 355.642 256.895C367.137 262.009 379.085 266.044 391.333 268.951C399.446 270.875 412.636 274.415 420.966 271.833C425.627 270.378 428.325 265.58 429.948 260.989C430.438 259.88 430.639 258.665 430.533 257.458C430.259 255.731 428.863 254.416 427.542 253.252C404.654 232.887 378.605 216.175 354.057 197.856C343.462 190.12 332.773 182.336 320.819 176.919C305.724 170.074 283.676 162.525 269.646 175.37C267.31 177.59 265.479 180.282 264.275 183.265C263.07 186.248 262.522 189.453 262.665 192.664C262.805 196.286 263.614 199.85 265.052 203.18Z" fill="#CDCFD1"/>
</g>
<g style="mix-blend-mode:multiply" opacity="0.31">
<path d="M204.69 160.798C204.153 157.786 204.153 154.703 204.69 151.69C204.888 150.583 205.558 149.202 206.681 149.381C207.398 149.503 207.813 150.226 208.125 150.883C209.366 153.841 210.896 156.671 212.691 159.333C214.578 161.887 217.333 164.028 220.512 164.488C221.841 164.518 223.159 164.733 224.427 165.126C227.258 166.403 226.069 173.154 225.861 175.67C221.984 176.609 216.484 176.459 213.021 174.196C208.36 171.135 205.662 166.14 204.69 160.798Z" fill="#314E66"/>
</g>
<g style="mix-blend-mode:multiply" opacity="0.31">
<path d="M487.734 150.028C490.609 147.866 493.056 145.192 494.952 142.142C495.414 141.391 496.187 140.48 496.999 140.846L496.801 150.714C496.825 152.893 496.654 155.071 496.291 157.22C494.47 166.44 486.413 174.647 476.403 172.835C475.144 172.713 473.971 172.143 473.101 171.229C471.724 169.548 471.743 167.21 472.158 165.192C472.535 163.427 473.469 160.319 474.535 158.892C474.911 158.449 475.361 158.074 475.866 157.784C479.932 155.164 484.074 152.892 487.734 150.028Z" fill="#314E66"/>
</g>
<g style="mix-blend-mode:multiply" opacity="0.31">
<path d="M475.63 156.817C467.242 158.272 458.553 155.728 451.204 151.446C435.363 142.198 425.306 129.447 414.513 114.988C404.692 101.843 393.493 89.018 376.709 85.2154C372.35 84.2295 367.274 84.0136 363.906 86.8961C363.712 87.0584 363.526 87.2308 363.35 87.4125C362.991 87.5346 362.642 87.6753 362.293 87.8068C353.101 91.3547 342.892 91.2538 333.773 87.5251C323.31 81.1311 314.356 89.6752 307.714 97.1301C299.157 106.762 291.117 116.839 283.628 127.316C275.203 139.034 265.703 150.648 252.796 157.145C243.607 161.765 233.267 163.492 223.115 165.163L223.512 177.031C223.512 176.515 248.985 177.031 250.655 176.928C261.5 175.916 272.075 172.971 281.873 168.234C292.755 162.905 302.923 156.24 312.139 148.395C309.963 158.022 308.01 167.686 306.28 177.388C305.84 179.106 305.798 180.901 306.158 182.637C306.767 184.279 307.733 185.766 308.988 186.993C323.413 203.255 339.641 210.917 361.567 205.95C371.473 203.706 380.813 199.528 389.578 194.486C395.55 191.049 408.579 184.702 408.72 176.506C408.72 174.224 407.654 172.102 406.588 170.074C402.022 161.374 397.789 152.498 393.889 143.447C417.098 161.286 445.713 170.572 475.535 173.05C474.897 167.656 474.928 162.204 475.63 156.817Z" fill="#314E66"/>
</g>
<g style="mix-blend-mode:multiply" opacity="0.2">
<path d="M475.094 164.807C473.1 165.041 471.091 165.129 469.084 165.07C462.739 164.768 456.469 163.577 450.46 161.53C444.488 159.652 438.676 157.23 432.704 155.314C429.888 154.397 427.026 153.63 424.128 153.014L422.241 152.648C422.487 152.714 420.826 152.488 420.694 152.479C419.422 152.404 418.146 152.404 416.873 152.479L415.986 152.563H415.807C415.222 152.714 414.609 152.789 414.015 152.92C412.835 153.193 411.665 153.521 410.514 153.859L410.09 154C429.855 164.995 452.328 171.06 475.537 172.994C475.219 170.277 475.071 167.542 475.094 164.807Z" fill="#CDCFD1"/>
</g>
<g style="mix-blend-mode:multiply" opacity="0.2">
<path d="M400.485 157.934C399.239 158.469 397.994 158.995 396.711 159.502C394.55 160.385 392.362 161.211 390.107 161.896C378.785 165.38 366.52 164.788 355.331 161.098C344.547 157.559 334.99 151.775 327.679 143.09C324.546 139.334 321.65 135.466 318.244 131.983C317.301 131.044 316.357 130.199 315.414 129.335L315.206 129.138C314.725 128.856 314.263 128.49 313.81 128.199C313.612 128.077 312.574 127.448 311.81 127.044H311.602C311.284 126.991 310.969 126.919 310.659 126.828H310.517C310.234 126.842 309.951 126.842 309.668 126.828C309.395 126.884 309.111 126.922 308.847 126.988C308.583 127.053 307.036 127.701 306.545 127.795L305.658 128.246C303.852 129.27 302.11 130.402 300.441 131.635C302.187 130.405 299.592 132.349 299.168 132.706C298.422 133.325 297.696 133.973 296.969 134.583C290.809 140.123 285.431 146.47 279.242 151.972C271.836 158.544 262.618 163.765 253.608 167.83C243.929 172.205 233.928 175.219 223.418 174.609L223.503 177.06C223.503 176.543 248.976 177.06 250.646 176.956C261.492 175.944 272.066 172.999 281.865 168.262C292.747 162.934 302.914 156.269 312.131 148.423C309.954 158.05 308.001 167.714 306.272 177.416C305.831 179.134 305.789 180.929 306.149 182.665C306.758 184.307 307.725 185.795 308.979 187.021C323.405 203.283 339.632 210.945 361.558 205.978C371.464 203.734 380.804 199.556 389.569 194.514C395.541 191.077 408.57 184.731 408.711 176.534C408.711 174.252 407.645 172.13 406.579 170.102C404.491 166.09 402.46 162.034 400.485 157.934Z" fill="#CDCFD1"/>
</g>
<g style="mix-blend-mode:multiply" opacity="0.31">
<path d="M312.281 51.4712C316.244 48.2695 318.329 43.3119 319.687 38.4108C321.046 33.5097 321.867 28.4304 323.999 23.8109C333.433 3.27696 367.973 1.82163 380.389 20.2712C383.38 24.7123 384.823 30.0077 385.719 35.2938C386.972 43.1657 387.458 51.1395 387.172 59.1044C387.097 62.062 387.672 66.3717 386.399 69.1227C384.908 72.362 380.946 70.8502 377.493 70.6437C372.643 70.3526 367.728 70.0616 362.945 70.9348C365.586 64.062 368.549 57.7901 370.086 50.5887C370.46 49.1842 370.606 47.7293 370.52 46.279C370.058 41.96 365.143 40.2794 363.445 36.6646C361.869 33.322 361.463 29.5758 361.086 25.9047C358.935 26.7591 358.256 29.3693 357.52 31.5381C354.586 39.9883 346.915 43.4246 339.472 47.1521C331.141 51.3021 321.536 53.7527 312.281 51.4712Z" fill="#314E66"/>
</g>
<g style="mix-blend-mode:multiply" opacity="0.2">
<path d="M357.171 27.0407H357.114L356.736 26.9562C356.389 26.8885 356.046 26.8007 355.708 26.6932C354.963 26.6275 353.878 26.4962 354.85 26.6371C356.019 26.8155 354.717 26.6934 354.236 26.8248C353.755 26.9563 353.557 27.0312 353.217 27.1439C352.793 27.3692 352.359 27.5854 351.944 27.8295C351.095 28.3196 350.276 28.8588 349.491 29.4444L349.179 29.6979C348.679 30.1111 348.236 30.5428 347.708 30.9747C345.745 32.7211 343.858 34.5425 341.924 36.3171C335.981 41.7534 327.499 49.4619 318.621 52.3443C325.829 52.5697 333.037 50.382 339.481 47.1615C346.925 43.4059 354.576 39.979 357.529 31.5476C357.894 30.3353 358.358 29.1546 358.916 28.0172C358.331 27.6605 357.756 27.3506 357.171 27.0407Z" fill="#CDCFD1"/>
</g>
<g style="mix-blend-mode:multiply" opacity="0.2">
<path d="M374.549 40.7394L373.606 39.8005C372.054 38.2416 370.406 36.7802 368.672 35.425C366.785 33.9322 365.002 32.4111 363.143 30.937L363.03 30.8433L362.171 30.2046L361.539 29.7634C361.821 32.1651 362.457 34.5127 363.426 36.7303C365.124 40.3451 370.03 42.0257 370.502 46.3447C370.588 47.795 370.441 49.2496 370.068 50.6541C368.53 57.8931 365.568 64.1277 362.926 71.0005C367.709 70.1273 372.625 70.4183 377.474 70.7094C378.417 70.7751 379.484 70.9346 380.474 71.066C378.908 60.7662 377.634 50.5792 374.549 40.7394Z" fill="#CDCFD1"/>
</g>
<g style="mix-blend-mode:multiply" opacity="0.2">
<path d="M265.052 203.18C269.599 213.78 279.902 221.451 289.714 227.273C293.912 229.761 298.29 231.967 302.686 234.051C320.046 242.408 338.084 249.074 355.642 256.895C367.137 262.009 379.085 266.044 391.333 268.951C399.446 270.875 412.636 274.415 420.966 271.833C425.627 270.378 428.325 265.58 429.948 260.989C430.438 259.88 430.639 258.665 430.533 257.458C430.259 255.731 428.863 254.416 427.542 253.252C404.654 232.887 378.605 216.175 354.057 197.856C343.462 190.12 332.773 182.336 320.819 176.919C305.724 170.074 283.676 162.525 269.646 175.37C267.31 177.59 265.479 180.282 264.275 183.265C263.07 186.248 262.522 189.453 262.665 192.664C262.805 196.286 263.614 199.85 265.052 203.18Z" fill="#CDCFD1"/>
</g>
<g style="mix-blend-mode:multiply" opacity="0.2">
<path d="M265.052 203.18C269.599 213.78 279.902 221.451 289.714 227.273C293.912 229.761 298.29 231.967 302.686 234.051C320.046 242.408 338.084 249.074 355.642 256.895C367.137 262.009 379.085 266.044 391.333 268.951C399.446 270.875 412.636 274.415 420.966 271.833C425.627 270.378 428.325 265.58 429.948 260.989C430.438 259.88 430.639 258.665 430.533 257.458C430.259 255.731 428.863 254.416 427.542 253.252C404.654 232.887 378.605 216.175 354.057 197.856C343.462 190.12 332.773 182.336 320.819 176.919C305.724 170.074 283.676 162.525 269.646 175.37C267.31 177.59 265.479 180.282 264.275 183.265C263.07 186.248 262.522 189.453 262.665 192.664C262.805 196.286 263.614 199.85 265.052 203.18Z" fill="#CDCFD1"/>
</g>
<g style="mix-blend-mode:multiply" opacity="0.31">
<path d="M430.533 257.459C430.26 255.731 428.863 254.416 427.543 253.252C404.654 232.887 378.606 216.175 354.057 197.857C347.453 193.068 340.849 188.251 333.971 183.998C334.802 188.972 334.802 194.047 333.971 199.021C331.886 213.302 323.008 228.897 310.385 237.648C325.338 244.398 340.66 250.248 355.67 256.905C367.165 262.018 379.114 266.054 391.361 268.96C399.475 270.885 412.664 274.425 420.995 271.843C425.656 270.387 428.354 265.59 429.977 260.998C430.459 259.884 430.65 258.666 430.533 257.459Z" fill="#314E66"/>
</g>
<g style="mix-blend-mode:multiply" opacity="0.31">
<path d="M438.214 165.624C445.761 169.098 448.79 178.684 447.035 186.721C445.28 194.758 439.789 201.471 433.912 207.264C410.929 229.958 380.522 243.337 350.888 256.229L284.195 285.213C283.095 285.836 281.816 286.074 280.563 285.889C279.167 285.504 278.318 284.152 277.601 282.903C275.846 279.852 273.893 276.819 272.402 273.645C284.035 264.951 294.224 252.36 305.263 242.539C328.292 222.043 351.397 201.49 376.757 183.923C385.248 178.064 393.966 172.515 403.561 168.788C412.882 165.154 428.581 161.164 438.214 165.624Z" fill="#314E66"/>
</g>
<g style="mix-blend-mode:multiply" opacity="0.2">
<g style="mix-blend-mode:multiply" opacity="0.2">
<path d="M350.857 48.5698L348.395 63.9866C349.885 63.6275 351.422 63.5009 352.951 63.6112" fill="#CDCFD1"/>
</g>
<g style="mix-blend-mode:multiply" opacity="0.2">
<path d="M349.613 48.2319L347.15 63.6487C347.094 63.8668 347.096 64.0958 347.156 64.313C347.215 64.5302 347.331 64.728 347.491 64.8872C347.651 65.0464 347.85 65.1616 348.068 65.221C348.286 65.2804 348.516 65.282 348.735 65.226C350.117 64.9107 351.538 64.8001 352.953 64.8975C354.613 65.0008 354.613 62.4282 352.953 62.3249C351.305 62.2258 349.652 62.3681 348.047 62.7474L349.641 64.3247L352.103 48.9079C352.182 48.5746 352.127 48.2241 351.951 47.93C351.775 47.6359 351.492 47.4209 351.16 47.3303C350.994 47.2868 350.821 47.2767 350.651 47.3005C350.481 47.3243 350.317 47.3816 350.17 47.469C350.022 47.5564 349.893 47.6722 349.791 47.8096C349.689 47.9471 349.616 48.1032 349.575 48.2692L349.613 48.2319Z" fill="#D1C3DF"/>
</g>
</g>
</g>
<path d="M329.3 73.8266C332.762 78.1738 337.432 81.0937 343.546 80.0891C350.735 78.9061 354.867 71.4512 357.415 64.6441C360.132 57.3018 362.132 49.6214 361.849 41.7533C361.396 31.0216 353.971 19.4637 343.565 15.8489C331.828 11.7647 324.696 21.8015 321.969 32.1953C320.655 37.8713 320.289 43.7237 320.884 49.5181C321.08 53.045 321.649 56.5416 322.583 59.9495C323.938 64.9496 326.216 69.6553 329.3 73.8266Z" fill="#DDC69B"/>
<path d="M331.406 71.2071C335.96 70.8378 340.52 70.4966 345.086 70.1836C345.452 70.1234 345.828 70.1658 346.171 70.3058C346.433 70.5031 346.646 70.7567 346.794 71.0478C346.943 71.3389 347.024 71.6597 347.03 71.9863C348.104 77.9256 351.175 83.3254 355.738 87.2999C356.172 87.6755 356.681 88.2389 356.341 88.7365C356.224 88.8921 356.068 89.0151 355.888 89.0934C350.228 92.0979 343.624 92.7455 337.274 93.3371C334.822 93.694 332.33 93.694 329.878 93.3371C328.312 93.0178 324.896 92.0883 324.424 90.295C323.953 88.5017 326.859 86.1357 327.755 84.7179C330.319 80.6864 331.593 75.9749 331.406 71.2071Z" fill="#DDC69B"/>
<path d="M257.287 294.358C256.975 296.735 257.207 299.152 257.966 301.428C258.357 302.562 259.03 303.58 259.922 304.386C260.815 305.192 261.898 305.76 263.07 306.038C266.25 306.61 269.363 304.207 270.693 301.268C272.024 298.329 271.995 294.996 271.939 291.776L271.816 284.537C271.816 282.105 271.703 279.57 270.552 277.429C263.938 265.129 257.636 290.142 257.287 294.358Z" fill="#762078"/>
<path d="M411.315 269.871C411.419 277.598 411.702 285.898 416.334 292.095C416.845 292.889 417.575 293.518 418.438 293.907C419.07 294.115 419.743 294.17 420.4 294.066C422.354 293.821 424.151 292.877 425.457 291.41C427.344 289.259 427.967 286.283 428.288 283.438C429.182 275.969 428.771 268.402 427.071 261.073C426.759 259.731 425.363 259.872 424.344 258.933C423.033 257.827 421.431 257.117 419.728 256.886C418.025 256.654 416.291 256.912 414.73 257.628C411.617 259.137 409.199 261.769 407.966 264.989C407.824 265.467 410.89 269.589 411.315 269.871Z" fill="#762078"/>
<path d="M256.373 203.546C260.93 214.156 271.232 221.817 281.044 227.639C285.242 230.127 289.62 232.333 294.016 234.418C311.376 242.774 329.405 249.44 346.972 257.261C358.462 262.379 370.408 266.415 382.654 269.317C390.777 271.195 403.957 274.791 412.297 272.199C416.957 270.753 419.656 265.946 421.278 261.364C421.769 260.252 421.97 259.035 421.863 257.825C421.58 256.097 420.184 254.792 418.873 253.618C395.975 233.263 369.936 216.55 345.387 198.223C334.792 190.496 324.103 182.703 312.15 177.285C297.054 170.45 275.006 162.891 260.967 175.736C258.633 177.957 256.803 180.649 255.601 183.632C254.398 186.615 253.851 189.82 253.995 193.031C254.131 196.651 254.937 200.216 256.373 203.546Z" fill="#183E9C"/>
<path d="M196.009 161.164C195.471 158.155 195.471 155.075 196.009 152.066C196.207 150.949 196.877 149.568 197.99 149.756C198.707 149.869 199.132 150.601 199.443 151.249C200.684 154.207 202.214 157.038 204.009 159.699C205.896 162.263 208.651 164.394 211.83 164.854C213.159 164.885 214.477 165.099 215.746 165.492C218.576 166.779 217.387 173.529 217.17 176.036C213.293 176.975 207.802 176.825 204.339 174.562C199.688 171.511 196.981 166.506 196.009 161.164Z" fill="#DDC69B"/>
<path d="M479.063 150.404C481.938 148.237 484.385 145.56 486.281 142.508C486.743 141.757 487.517 140.855 488.328 141.212L488.13 151.08C488.15 153.259 487.979 155.437 487.621 157.587C485.8 166.807 477.743 175.013 467.733 173.21C466.474 173.078 465.302 172.51 464.421 171.605C463.053 169.924 463.063 167.577 463.478 165.558C463.904 163.339 464.708 161.208 465.855 159.258C466.234 158.818 466.683 158.443 467.185 158.15C471.252 155.53 475.403 153.258 479.063 150.404Z" fill="#DDC69B"/>
<path d="M466.959 157.22C458.572 158.676 449.874 156.141 442.533 151.85C426.693 142.602 416.636 129.86 405.843 115.392C396.021 102.247 384.823 89.4217 368.039 85.6191C363.68 84.6332 358.604 84.4173 355.227 87.2998C355.038 87.4594 354.859 87.6378 354.679 87.8162C354.321 87.9383 353.972 88.079 353.623 88.2105C344.431 91.7584 334.221 91.6575 325.102 87.9287C314.639 81.5348 305.686 90.0791 299.044 97.534C290.486 107.166 282.446 117.242 274.958 127.72C266.533 139.437 257.032 151.052 244.126 157.549C234.937 162.169 224.597 163.896 214.436 165.567C214.568 169.53 214.703 173.489 214.841 177.445C214.841 176.919 240.314 177.445 241.984 177.341C252.831 176.33 263.407 173.382 273.203 168.638C284.09 163.492 294.091 156.573 303.469 148.808C301.286 158.422 299.334 168.087 297.61 177.801C297.17 179.516 297.128 181.307 297.487 183.04C298.094 184.684 299.061 186.172 300.318 187.397C314.743 203.659 330.971 211.32 352.896 206.354C362.803 204.11 372.133 199.931 380.907 194.89C386.879 191.453 399.908 185.106 400.05 176.909C400.05 174.628 398.984 172.506 397.918 170.487C393.345 161.774 389.112 152.898 385.219 143.86C408.428 161.699 437.043 170.975 466.865 173.454C466.226 168.06 466.258 162.607 466.959 157.22Z" fill="url(#paint1_linear)"/>
<path style="mix-blend-mode:multiply" d="M466.422 165.173C464.428 165.411 462.419 165.499 460.412 165.436C454.068 165.138 447.798 163.949 441.788 161.906C435.816 159.981 430.005 157.596 424.033 155.681C421.216 154.768 418.354 154.003 415.457 153.39C414.834 153.258 414.211 153.136 413.57 153.023C413.815 153.08 412.154 152.864 412.022 152.855C410.766 152.772 409.505 152.772 408.249 152.855L407.305 152.939H407.126C406.541 153.089 405.928 153.164 405.343 153.296C404.163 153.568 402.994 153.897 401.843 154.235L401.418 154.385C421.23 165.37 443.656 171.445 466.865 173.37C466.542 170.65 466.394 167.912 466.422 165.173Z" fill="url(#paint2_linear)"/>
<path style="mix-blend-mode:multiply" d="M391.784 158.3C390.538 158.836 389.283 159.361 388.01 159.878C385.849 160.76 383.66 161.577 381.406 162.263C370.084 165.746 357.819 165.154 346.621 161.464C335.846 157.925 326.289 152.15 318.968 143.466C315.845 139.71 312.939 135.842 309.534 132.358C308.59 131.419 307.647 130.565 306.703 129.701L306.486 129.504C306.014 129.222 305.543 128.856 305.099 128.565C304.901 128.433 303.863 127.814 303.099 127.401H302.892C302.572 127.352 302.257 127.28 301.948 127.185H301.807C301.527 127.199 301.247 127.199 300.967 127.185C300.693 127.241 300.41 127.279 300.146 127.345C299.882 127.41 298.335 128.058 297.844 128.161C297.542 128.302 297.25 128.452 296.957 128.612C295.149 129.633 293.407 130.765 291.74 132.001C293.485 130.762 290.882 132.715 290.466 133.062C289.721 133.691 288.995 134.33 288.268 134.94C282.108 140.48 276.73 146.827 270.541 152.329C263.135 158.901 253.917 164.131 244.907 168.197C235.218 172.562 225.227 175.586 214.717 174.966L214.802 177.426C214.802 176.9 240.275 177.426 241.945 177.323C252.792 176.312 263.367 173.363 273.164 168.619C284.051 163.474 294.052 156.554 303.429 148.789C301.247 158.404 299.294 168.068 297.571 177.783C297.13 179.497 297.088 181.289 297.448 183.022C298.055 184.665 299.022 186.153 300.278 187.378C314.704 203.64 330.931 211.302 352.857 206.335C362.763 204.091 372.094 199.913 380.868 194.871C386.84 191.434 399.869 185.087 400.01 176.891C400.01 174.609 398.944 172.487 397.878 170.469C395.796 166.456 393.765 162.4 391.784 158.3Z" fill="url(#paint3_linear)"/>
<path d="M303.611 51.8372C307.574 48.6355 309.659 43.6782 311.017 38.7865C312.376 33.8947 313.197 28.7964 315.329 24.177C324.763 3.64301 359.303 2.18769 371.719 20.6467C374.71 25.0783 376.144 30.3738 377.05 35.6692C378.304 43.541 378.787 51.5154 378.493 59.4801C378.427 62.4376 379.002 66.7472 377.729 69.5076C376.238 72.7374 372.276 71.2351 368.823 71.0285C363.973 70.728 359.058 70.4464 354.275 71.3102C356.916 64.4374 359.879 58.1655 361.417 50.9641C361.786 49.5588 361.932 48.1047 361.851 46.6544C361.388 42.3354 356.473 40.6642 354.765 37.04C353.199 33.6975 352.793 29.9513 352.407 26.2801C350.265 27.1345 349.576 29.7447 348.85 31.9136C345.916 40.3638 338.245 43.8097 330.802 47.5278C322.471 51.659 312.867 54.1188 303.611 51.8372Z" fill="#471F93"/>
<g style="mix-blend-mode:multiply">
<path d="M348.491 27.4067H348.434L348.066 27.3129C347.718 27.2497 347.374 27.1618 347.038 27.05C346.283 26.9843 345.208 26.8528 346.179 27.003C347.349 27.1814 346.038 27.0593 345.566 27.1814C345.094 27.3034 344.887 27.3974 344.547 27.5007C344.123 27.726 343.689 27.942 343.274 28.1861C342.423 28.6783 341.601 29.2174 340.811 29.801L340.509 30.0545C340.009 30.4676 339.519 30.8996 339.028 31.3315C337.075 33.0779 335.188 34.9087 333.254 36.6739C327.301 42.1195 318.829 49.8187 309.941 52.7011C317.159 52.9265 324.367 50.7388 330.811 47.5183C338.254 43.7627 345.906 40.3355 348.859 31.9041C349.221 30.6921 349.681 29.5114 350.236 28.3738C349.661 28.0264 349.076 27.7165 348.491 27.4067Z" fill="#D1C3DF"/>
</g>
<g style="mix-blend-mode:multiply">
<path d="M365.877 41.1055C365.575 40.7675 365.264 40.4388 364.934 40.1196C363.381 38.5553 361.73 37.0909 359.99 35.735C358.103 34.2421 356.33 32.721 354.471 31.2469L354.358 31.1624L353.499 30.524L352.867 30.0827C353.149 32.4815 353.785 34.8257 354.754 37.0399C356.462 40.6641 361.358 42.3354 361.839 46.6544C361.921 48.1046 361.775 49.5588 361.405 50.9641C359.868 58.2031 356.905 64.4374 354.263 71.3102C359.047 70.4464 363.962 70.728 368.811 71.0285C369.755 71.0848 370.812 71.2445 371.812 71.376C370.236 61.1325 368.972 50.9453 365.877 41.1055Z" fill="#D1C3DF"/>
</g>
<path d="M256.373 203.546C260.93 214.156 271.232 221.817 281.044 227.639C285.242 230.127 289.62 232.333 294.016 234.418C311.376 242.774 329.405 249.44 346.972 257.261C358.462 262.379 370.408 266.415 382.654 269.317C390.777 271.195 403.957 274.791 412.297 272.199C416.957 270.753 419.656 265.946 421.278 261.364C421.769 260.252 421.97 259.035 421.863 257.825C421.58 256.097 420.184 254.792 418.873 253.618C395.975 233.263 369.936 216.55 345.387 198.223C334.792 190.496 324.103 182.703 312.15 177.285C297.054 170.45 275.006 162.891 260.967 175.736C258.633 177.957 256.803 180.649 255.601 183.632C254.398 186.615 253.851 189.82 253.995 193.031C254.131 196.651 254.937 200.216 256.373 203.546Z" fill="#183E9C"/>
<path d="M256.373 203.546C260.93 214.156 271.232 221.817 281.044 227.639C285.242 230.127 289.62 232.333 294.016 234.418C311.376 242.774 329.405 249.44 346.972 257.261C358.462 262.379 370.408 266.415 382.654 269.317C390.777 271.195 403.957 274.791 412.297 272.199C416.957 270.753 419.656 265.946 421.278 261.364C421.769 260.252 421.97 259.035 421.863 257.825C421.58 256.097 420.184 254.792 418.873 253.618C395.975 233.263 369.936 216.55 345.387 198.223C334.792 190.496 324.103 182.703 312.15 177.285C297.054 170.45 275.006 162.891 260.967 175.736C258.633 177.957 256.803 180.649 255.601 183.632C254.398 186.615 253.851 189.82 253.995 193.031C254.131 196.651 254.937 200.216 256.373 203.546Z" fill="url(#paint4_linear)"/>
<path style="mix-blend-mode:multiply" opacity="0.2" d="M421.863 257.825C421.58 256.097 420.184 254.792 418.872 253.619C395.975 233.263 369.936 216.55 345.387 198.223C338.783 193.434 332.179 188.627 325.301 184.374C326.137 189.347 326.137 194.423 325.301 199.396C323.216 213.668 314.338 229.272 301.715 238.014C316.669 244.774 331.99 250.614 347 257.271C358.49 262.388 370.436 266.425 382.682 269.326C390.805 271.204 403.985 274.8 412.325 272.209C416.986 270.763 419.684 265.956 421.307 261.374C421.789 260.256 421.98 259.036 421.863 257.825Z" fill="url(#paint5_linear)"/>
<path d="M429.524 165.999C437.072 169.464 440.1 179.05 438.346 187.097C436.591 195.143 431.09 201.838 425.222 207.631C402.24 230.324 371.832 243.704 342.198 256.595L275.497 285.579C274.401 286.206 273.123 286.445 271.874 286.255C270.477 285.87 269.628 284.518 268.911 283.269C267.156 280.218 265.204 277.195 263.713 274.021C275.346 265.317 285.535 252.736 296.564 242.915C319.603 222.409 342.708 201.856 368.068 184.289C376.559 178.44 385.276 172.891 394.862 169.163C404.212 165.52 419.892 161.511 429.524 165.999Z" fill="url(#paint6_linear)"/>
<defs>
<linearGradient id="paint0_linear" x1="283.669" y1="168.582" x2="76.0111" y2="154.43" gradientUnits="userSpaceOnUse">
<stop stop-color="#FECD2C"/>
<stop offset="1" stop-color="#FF6422"/>
</linearGradient>
<linearGradient id="paint1_linear" x1="214.436" y1="146.404" x2="466.959" y2="146.404" gradientUnits="userSpaceOnUse">
<stop stop-color="#FF57DF"/>
<stop offset="0.19" stop-color="#FFBFDF"/>
<stop offset="1" stop-color="#AC2FBA"/>
</linearGradient>
<linearGradient id="paint2_linear" x1="214.435" y1="163.136" x2="466.96" y2="163.136" gradientUnits="userSpaceOnUse">
<stop stop-color="#4B2F9A"/>
<stop offset="1" stop-color="#AC2FBA"/>
</linearGradient>
<linearGradient id="paint3_linear" x1="214.434" y1="167.502" x2="466.958" y2="167.502" gradientUnits="userSpaceOnUse">
<stop stop-color="#4B2F9A"/>
<stop offset="0.15" stop-color="#5A2F9F"/>
<stop offset="1" stop-color="#AC2FBA"/>
</linearGradient>
<linearGradient id="paint4_linear" x1="253.976" y1="220.935" x2="421.92" y2="220.935" gradientUnits="userSpaceOnUse">
<stop stop-color="#183ED0"/>
<stop offset="0.82" stop-color="#0A006A"/>
</linearGradient>
<linearGradient id="paint5_linear" x1="157131" y1="326985" x2="178524" y2="326985" gradientUnits="userSpaceOnUse">
<stop stop-color="#183ED0"/>
<stop offset="0.82" stop-color="#0A006A"/>
</linearGradient>
<linearGradient id="paint6_linear" x1="259.75" y1="225.188" x2="474.385" y2="225.188" gradientUnits="userSpaceOnUse">
<stop stop-color="#3AC2D0"/>
<stop offset="0.17" stop-color="#4AA4C7"/>
<stop offset="0.82" stop-color="#8536A6"/>
</linearGradient>
</defs>
</svg>
