<svg width="459" height="251" viewBox="0 0 459 251" fill="none" xmlns="http://www.w3.org/2000/svg">
<path opacity="0.2" d="M302.001 59.9224C300.352 69.6017 300.927 79.5313 303.684 88.9533C306.441 98.3752 311.307 107.041 317.909 114.29C325.311 121.863 333.965 128.091 343.486 132.699C352.579 137.567 362.349 141.037 372.469 142.994C402.001 148.153 434.566 133.184 447.947 106.287C452.013 97.7844 454.364 88.5591 454.866 79.1421C455.367 69.7251 454.009 60.3016 450.87 51.4128C444.403 33.5691 432.124 18.4372 416.02 8.46614C408.92 3.59395 400.668 0.68168 392.092 0.0221419C387.729 0.00893394 383.378 0.497484 379.126 1.47756C344.914 8.40018 308.989 20.6575 302.001 59.9224Z" fill="#F8C46B"/>
<path opacity="0.38" d="M284.136 74.9591C282.497 84.64 283.079 94.5679 285.84 103.989C288.6 113.41 293.466 122.075 300.067 129.325C307.456 136.912 316.113 143.142 325.644 147.734C334.737 152.602 344.506 156.073 354.626 158.03C384.137 163.189 416.723 148.219 430.105 121.323C434.172 112.82 436.524 103.596 437.025 94.1788C437.527 84.7616 436.168 75.337 433.028 66.4483C426.555 48.6081 414.277 33.478 398.177 23.5017C390.926 18.9381 365.548 15.6533 361.285 16.5131C327.073 23.4357 291.145 35.6942 284.136 74.9591Z" fill="#F8C373"/>
<path d="M314.987 57.519C312.592 63.8164 311.662 70.579 312.267 77.292C312.873 84.005 314.999 90.4907 318.482 96.2544C322.453 102.343 327.449 107.693 333.247 112.063C338.726 116.552 344.844 120.193 351.398 122.865C370.58 130.273 394.486 124.562 407.055 108.248C410.925 103.068 413.737 97.173 415.328 90.8999C416.92 84.6269 417.26 78.1006 416.328 71.6953C414.342 58.8245 408.087 47.0018 398.574 38.14C394.435 33.9223 389.257 30.8796 383.566 29.3214C380.675 28.7272 377.725 28.4759 374.777 28.5721C350.716 28.506 324.897 31.967 314.987 57.519Z" fill="url(#paint0_linear)"/>
<path d="M399.629 67.0432C401.757 68.5332 403.309 70.7137 404.024 73.2169C404.235 70.5983 405.439 68.1598 407.386 66.4038C405.687 65.3242 404.402 63.7008 403.738 61.7964C403.628 61.4216 403.518 60.9582 403.145 60.848C402.988 62.3523 402.524 63.8092 401.782 65.126C401.453 65.4346 400.09 67.3959 399.629 67.0432Z" fill="#E5F4DB"/>
<path d="M390.466 47.8633C392.597 48.7222 394.308 50.3843 395.234 52.4933C395.281 50.3364 396.173 48.2841 397.717 46.7825C396.108 45.6847 394.837 44.1574 394.047 42.3732C393.3 42.726 391.718 48.3704 390.466 47.8633Z" fill="#E5F4DB"/>
<path d="M406.813 55.1167C409.574 56.7394 411.775 59.1696 413.12 62.0827C413.378 59.586 414.355 57.2191 415.932 55.2707C416.202 54.9963 416.432 54.6846 416.613 54.3449C416.71 54.1773 416.76 53.9872 416.76 53.7937C416.76 53.6002 416.71 53.4101 416.613 53.2426C416.478 53.1149 416.322 53.0103 416.152 52.9336C414.488 51.9752 413.037 50.6852 411.889 49.1422C411.78 48.9879 411.626 48.8106 411.428 48.8106C411.23 48.8106 411.055 49.0752 410.967 49.3177C410.549 50.0893 408.044 55.8443 406.813 55.1167Z" fill="#E5F4DB"/>
<path d="M72.6438 28.8589C72.3013 31.2546 72.8834 33.6908 74.2703 35.671C78.1156 40.3448 86.4215 38.4275 87.4543 32.5631C89.2121 23.48 83.0596 15.5208 79.1703 7.91471C79.434 8.42178 75.2587 16.2707 74.9291 17.6817C73.8625 21.3382 73.098 25.0764 72.6438 28.8589Z" fill="url(#paint1_linear)"/>
<path d="M22.3243 46.0107C22.0991 47.8369 22.2491 49.6905 22.7642 51.4567C25.8404 60.9808 41.0898 60.8704 40.8042 49.6708C40.5847 46.8131 39.9175 44.0081 38.8268 41.3592C36.981 36.0239 35.0254 30.5348 31.1801 26.4121C27.9061 31.0639 23.0494 39.0881 22.3243 46.0107Z" fill="url(#paint2_linear)"/>
<path d="M54.6035 69.2705C53.7685 74.275 52.8464 81.2855 58.6034 83.7988C66.5797 87.2821 69.1066 77.8459 68.5353 71.9154C67.873 65.2466 65.1971 58.9401 60.8661 53.8379C60.6903 53.6394 60.4925 53.4191 60.2288 53.4191C59.9651 53.4191 59.6799 53.7719 59.5261 54.0585C57.1266 58.8497 55.4665 63.9788 54.6035 69.2705Z" fill="url(#paint3_linear)"/>
<path d="M443.619 207.436C438.477 197.802 433.753 188.587 432.347 186.25C422.499 169.626 411.063 154.002 398.2 139.599C372.689 111.269 341.07 88.1429 304.638 76.1496C251.265 58.5124 191.674 65.9201 140.366 88.9147C110.513 102.659 82.772 120.618 57.9878 142.245C35.7069 161.337 17.9308 184.949 1.1212 209.09C0.440593 209.85 0.0439074 210.825 0 211.846C0.193131 212.88 0.728025 213.82 1.5171 214.513L11.5145 225.272C15.4199 229.742 19.7389 233.832 24.4131 237.486C45.903 253.161 76.5992 252.544 101.429 248.95C127.797 245.158 154.341 238.787 180.665 242.645C192.069 244.321 203.1 247.87 214.482 249.655C231.67 252.274 249.231 250.763 265.723 245.246C281.764 239.889 296.486 230.805 312.857 226.462C356.803 214.8 402.441 238.94 447.816 236.67C451.881 236.449 455.002 233.231 458.979 232.525C452.387 225.536 448.146 215.88 443.619 207.436Z" fill="url(#paint4_linear)"/>
<path style="mix-blend-mode:multiply" opacity="0.37" d="M118.635 193.722C108 196.698 98.3757 202.387 87.6308 205.231C79.3496 207.345 70.875 208.608 62.339 209.001C60.9858 210.292 59.3197 211.204 57.5055 211.647C51.7485 213.19 32.5659 223.221 36.1255 232.017C37.5099 235.413 47.1118 236.912 50.0563 237.64C56.0391 239.076 62.1332 239.998 68.2722 240.396C76.666 240.991 86.9716 242.467 96.9694 242.357C99.3206 242.092 101.65 241.806 103.891 241.475C107.275 240.99 110.636 240.461 114.02 239.91C119.815 238.167 124.908 234.625 128.567 229.791C132.456 224.544 129.907 222.67 129.687 216.74C129.572 212.536 130.978 208.432 133.643 205.187C136.499 201.373 140.805 199.235 136.191 194.737C131.577 190.24 123.711 192.311 118.635 193.722Z" fill="url(#paint5_linear)"/>
<path d="M383.346 192.422C385.288 194.14 386.585 196.475 387.016 199.036C387.501 196.448 388.955 194.144 391.08 192.599C389.501 191.348 388.386 189.601 387.916 187.638C387.916 187.241 387.807 186.779 387.455 186.624C387.125 188.106 386.505 189.508 385.631 190.747C385.367 191.012 383.873 192.819 383.346 192.422Z" fill="#E5F4DB"/>
<path d="M376.292 172.382C378.311 173.469 379.837 175.292 380.556 177.475C380.686 176.418 381.023 175.396 381.547 174.47C382.071 173.543 382.772 172.728 383.609 172.073C382.134 170.812 381.039 169.162 380.445 167.311C379.654 167.553 377.479 173 376.292 172.382Z" fill="#E5F4DB"/>
<path d="M391.762 181.333C394.344 183.236 396.278 185.892 397.299 188.939C397.816 186.48 399.038 184.227 400.815 182.457C401.116 182.214 401.376 181.923 401.584 181.597C401.681 181.434 401.732 181.248 401.732 181.058C401.732 180.868 401.681 180.681 401.584 180.517C401.467 180.37 401.326 180.243 401.167 180.143C399.612 179.017 398.303 177.584 397.322 175.931C397.288 175.839 397.232 175.757 397.16 175.691C397.087 175.626 396.999 175.58 396.904 175.557C396.662 175.557 396.486 175.778 396.376 175.998C396.025 176.748 392.992 182.193 391.762 181.333Z" fill="#E5F4DB"/>
<path d="M342.124 141.782C340.154 140.106 338.8 137.816 338.279 135.278C337.886 137.905 336.491 140.276 334.39 141.892C336 143.101 337.16 144.816 337.686 146.764C337.686 147.161 337.818 147.624 338.17 147.778C338.465 146.29 339.047 144.875 339.883 143.611C340.191 143.236 341.729 141.407 342.124 141.782Z" fill="#E5F4DB"/>
<path d="M349.75 161.624C347.693 160.602 346.116 158.814 345.355 156.641C345.142 158.786 344.092 160.76 342.433 162.131C343.936 163.358 345.076 164.973 345.729 166.804C346.52 166.539 348.563 161.139 349.75 161.624Z" fill="#E5F4DB"/>
<path d="M334.06 153.091C331.422 151.268 329.417 148.663 328.326 145.64C327.87 148.126 326.701 150.425 324.963 152.254C324.681 152.503 324.436 152.792 324.238 153.113C324.134 153.278 324.08 153.469 324.08 153.664C324.08 153.859 324.134 154.05 324.238 154.215C324.35 154.362 324.492 154.482 324.655 154.568C326.245 155.652 327.593 157.056 328.611 158.691C328.721 158.846 328.852 159.043 329.05 159.043C329.248 159.043 329.445 158.824 329.555 158.603C329.907 157.787 332.808 152.32 334.06 153.091Z" fill="#E5F4DB"/>
<path d="M89.9808 230.96C91.9849 230.794 93.8597 229.9 95.2542 228.446C95.5218 228.131 95.6769 227.736 95.6941 227.322C95.6941 226.242 94.2661 225.867 93.2113 225.823C90.5111 225.657 87.8025 225.657 85.1023 225.823C84.7935 225.824 84.4886 225.884 84.2021 225.999C83.8798 226.167 83.5893 226.392 83.3448 226.661C81.7188 228.16 73.874 227.94 75.8516 231.578C77.3018 234.289 87.388 231.445 89.9808 230.96Z" fill="url(#paint6_linear)"/>
<path d="M72.4686 222.978C72.8935 222.948 73.3085 222.831 73.6864 222.634C74.0643 222.437 74.3971 222.163 74.666 221.832C74.9148 221.263 74.9962 220.635 74.8988 220.021C74.8014 219.408 74.5293 218.834 74.1166 218.371C73.9074 217.964 73.5779 217.633 73.1725 217.423C72.8292 217.289 72.4634 217.222 72.0952 217.225C69.8979 217.225 60.2521 217.225 60.9992 220.62C61.7462 224.015 70.1834 223.419 72.4686 222.978Z" fill="url(#paint7_linear)"/>
<path d="M88.004 84.7025C86.0814 86.4422 84.9009 88.8585 84.708 91.4489C84.7946 92.9416 85.3154 94.3761 86.2058 95.5751C87.0962 96.7741 88.3167 97.685 89.7174 98.1953C92.5642 99.1534 95.6715 98.9556 98.3748 97.6441C100.23 96.8769 101.857 95.641 103.097 94.0572C104.336 92.4735 105.148 90.5955 105.451 88.6048C106.549 76.4131 93.4534 79.1027 88.004 84.7025Z" fill="#DDC69B"/>
<path d="M40.014 167.862C40.7131 179.728 43.2718 191.409 47.5952 202.476C50.3829 209.62 54.3328 216.25 59.2846 222.097C61.2733 222.548 63.3241 222.66 65.3498 222.427L60.9551 206.047C59.1352 200.713 58.3524 195.076 58.6483 189.446C60.0327 192.995 60.6918 196.743 61.9003 200.337C63.7581 205.835 65.9598 211.211 68.4923 216.431C69.1735 217.864 75.0842 230.761 76.095 230.541C78.5074 229.986 80.9624 229.639 83.4337 229.504C84.2687 229.504 87.9607 230.166 88.3123 229.504C88.4127 229.212 88.4504 228.903 88.4239 228.596C88.3974 228.288 88.3066 227.99 88.1578 227.719C84.7172 218.213 83.1353 208.129 83.4992 198.022C83.8068 187.837 83.4992 178.18 85.6965 167.994C86.4216 164.687 87.7624 161.38 88.3337 158.073C88.905 154.766 86.8836 155.406 84.6204 153.664C83.386 152.382 82.0563 151.196 80.6431 150.115C76.8916 148.291 72.826 147.206 68.6672 146.918L50.8472 144.713C49.2127 144.659 47.6308 144.123 46.2991 143.171C45.0686 142.09 42.9148 142.487 44.2112 141.517C42.494 144.338 41.4001 147.495 41.0032 150.776C40.0216 156.414 39.6894 162.147 40.014 167.862Z" fill="url(#paint8_linear)"/>
<path style="mix-blend-mode:multiply" d="M58.1842 189.578C57.8326 184.089 56.954 175.909 58.9975 170.706C60.7993 166.076 67.1495 164.092 71.5441 163.541C76.6859 162.968 81.9596 163.541 87.0574 162.748L88.9468 156.95L70.0721 151.394C68.7317 151.019 59.6348 148.55 61.2828 146.059C58.3384 144.846 54.0535 145.022 50.8015 144.625C49.167 144.571 47.5851 144.035 46.2534 143.082C45.3964 142.333 44.0559 142.289 43.8361 142.024C42.3349 144.702 41.3577 147.642 40.9575 150.688C39.9912 156.358 39.6817 162.121 40.0348 167.862C40.7339 179.728 43.2926 191.409 47.616 202.476C50.4038 209.62 54.3537 216.25 59.3054 222.097C61.2941 222.548 63.3438 222.66 65.3695 222.427C63.8753 216.96 62.4031 211.405 60.9749 206.047C59.5031 200.664 58.5683 195.147 58.1842 189.578Z" fill="url(#paint9_linear)"/>
<path d="M93.0362 89.0682C95.1344 89.1005 97.2323 89.0119 99.3203 88.8034C99.6487 88.7556 99.9838 88.8255 100.266 89.0015C100.537 89.2881 100.692 89.6647 100.704 90.0596C100.937 91.1138 101.422 92.0953 102.12 92.9177C102.817 93.7401 103.704 94.3787 104.704 94.7779C105.534 93.9017 106.17 92.8603 106.571 91.7207C106.972 90.581 107.129 89.3687 107.032 88.1639C106.846 85.717 105.875 83.3965 104.264 81.55C103.055 79.9659 101.27 78.9273 99.2989 78.6617C97.1964 78.7612 95.1435 79.3419 93.2991 80.3594C90.1514 81.5683 86.7581 81.9921 83.4111 81.5941C83.6529 82.7278 84.0925 83.8103 84.7083 84.7913C86.9564 87.0746 89.8755 88.5737 93.0362 89.0682Z" fill="#662045"/>
<path d="M70.096 98.7912C63.0569 104.328 57.2231 111.253 52.9562 119.14C48.3638 127.143 45.7926 136.226 41.1123 144.096C46.171 147.55 51.5775 150.461 57.2414 152.783C63.0752 155.41 69.2924 157.078 75.6548 157.722C77.984 157.92 80.5548 157.192 82.7961 157.478C85.1123 158.17 87.3746 159.032 89.564 160.058C91.0044 154.657 91.743 149.092 91.7614 143.501C91.0202 131.118 91.5577 118.691 93.3654 106.419C94.1125 101.459 94.112 93.7204 87.9815 92.089C82.2684 90.5898 74.3588 95.5945 70.096 98.7912Z" fill="url(#paint10_linear)"/>
<path d="M106.021 154.524L106.131 156.266C106.817 155.533 107.222 154.579 107.274 153.576C108.376 156.3 108.5 159.324 107.625 162.13C107.539 162.358 107.539 162.608 107.625 162.836C107.686 162.965 107.777 163.078 107.889 163.166L109.625 164.687C111.804 161.99 112.873 158.559 112.613 155.097C112.488 153.436 112.057 151.814 111.339 150.313C110.197 148.108 109.757 148.108 107.45 149.012C107.193 149.034 106.944 149.11 106.72 149.237C106.496 149.364 106.302 149.539 106.152 149.749C106.001 149.958 105.898 150.198 105.849 150.452C105.8 150.705 105.806 150.966 105.867 151.217L106.021 154.524Z" fill="#DDC69B"/>
<path d="M98.6826 111.512C101.1 117.839 103.319 124.21 105.384 130.648C105.78 131.926 110.922 148.682 110.285 148.792C108.797 149.021 107.328 149.36 105.89 149.806L98.6171 141.429C94.2225 136.358 89.6298 131.441 85.1692 126.371C82.1131 123.099 79.8565 119.158 78.5772 114.862C77.9361 112.708 77.8012 110.436 78.1824 108.221C78.5636 106.006 79.4506 103.911 80.7746 102.098C81.5524 101.078 82.5824 100.279 83.7626 99.7823C85.4207 99.1843 87.2025 99.0161 88.9427 99.2936C90.6828 99.5711 92.3255 100.286 93.7171 101.37C96.8154 103.994 97.2983 107.918 98.6826 111.512Z" fill="url(#paint11_linear)"/>
<defs>
<linearGradient id="paint0_linear" x1="312.087" y1="77.2068" x2="416.812" y2="77.2068" gradientUnits="userSpaceOnUse">
<stop stop-color="#FECD2C"/>
<stop offset="1" stop-color="#FFAC22"/>
</linearGradient>
<linearGradient id="paint1_linear" x1="71.2814" y1="12.8531" x2="85.6113" y2="36.3789" gradientUnits="userSpaceOnUse">
<stop stop-color="#0043E9"/>
<stop offset="1" stop-color="#00126A"/>
</linearGradient>
<linearGradient id="paint2_linear" x1="87177.2" y1="137913" x2="87334.3" y2="137913" gradientUnits="userSpaceOnUse">
<stop stop-color="#0043E9"/>
<stop offset="1" stop-color="#00126A"/>
</linearGradient>
<linearGradient id="paint3_linear" x1="68867.7" y1="134824" x2="68965" y2="134824" gradientUnits="userSpaceOnUse">
<stop stop-color="#0043E9"/>
<stop offset="1" stop-color="#00126A"/>
</linearGradient>
<linearGradient id="paint4_linear" x1="469.416" y1="149.102" x2="-48.2151" y2="169.995" gradientUnits="userSpaceOnUse">
<stop offset="0.01" stop-color="#FFC400"/>
<stop offset="0.21" stop-color="#E9A300"/>
<stop offset="0.47" stop-color="#C670A9"/>
<stop offset="0.53" stop-color="#9E5E9E"/>
<stop offset="0.6" stop-color="#774C94"/>
<stop offset="0.67" stop-color="#583E8B"/>
<stop offset="0.74" stop-color="#3F3284"/>
<stop offset="0.82" stop-color="#2E2A80"/>
<stop offset="0.9" stop-color="#23267D"/>
<stop offset="1" stop-color="#20247C"/>
</linearGradient>
<linearGradient id="paint5_linear" x1="501946" y1="221287" x2="477918" y2="223268" gradientUnits="userSpaceOnUse">
<stop offset="0.01" stop-color="#FFC400"/>
<stop offset="0.21" stop-color="#E9A300"/>
<stop offset="0.47" stop-color="#C670A9"/>
<stop offset="0.53" stop-color="#9E5E9E"/>
<stop offset="0.6" stop-color="#774C94"/>
<stop offset="0.67" stop-color="#583E8B"/>
<stop offset="0.74" stop-color="#3F3284"/>
<stop offset="0.82" stop-color="#2E2A80"/>
<stop offset="0.9" stop-color="#23267D"/>
<stop offset="1" stop-color="#20247C"/>
</linearGradient>
<linearGradient id="paint6_linear" x1="75.522" y1="229.218" x2="95.6941" y2="229.218" gradientUnits="userSpaceOnUse">
<stop stop-color="#35A37A"/>
<stop offset="1" stop-color="#00126A"/>
</linearGradient>
<linearGradient id="paint7_linear" x1="65868.7" y1="27030.7" x2="65957.9" y2="27030.7" gradientUnits="userSpaceOnUse">
<stop stop-color="#35A37A"/>
<stop offset="1" stop-color="#00126A"/>
</linearGradient>
<linearGradient id="paint8_linear" x1="229263" y1="390048" x2="227964" y2="390178" gradientUnits="userSpaceOnUse">
<stop stop-color="#0043E9"/>
<stop offset="1" stop-color="#00126A"/>
</linearGradient>
<linearGradient id="paint9_linear" x1="232822" y1="352260" x2="230210" y2="352552" gradientUnits="userSpaceOnUse">
<stop stop-color="#0043E9"/>
<stop offset="1" stop-color="#00126A"/>
</linearGradient>
<linearGradient id="paint10_linear" x1="247108" y1="297289" x2="248366" y2="297289" gradientUnits="userSpaceOnUse">
<stop stop-color="#35A37A"/>
<stop offset="1" stop-color="#00126A"/>
</linearGradient>
<linearGradient id="paint11_linear" x1="152690" y1="219916" x2="153431" y2="220738" gradientUnits="userSpaceOnUse">
<stop stop-color="#35A37A"/>
<stop offset="1" stop-color="#00126A"/>
</linearGradient>
</defs>
</svg>
