<svg width="458" height="328" viewBox="0 0 458 328" fill="none" xmlns="http://www.w3.org/2000/svg">
<path opacity="0.1" d="M0.183759 299.673C3.87848 304.734 10.6029 306.347 16.7361 307.59L57.9397 315.98C61.3193 316.833 64.8017 317.206 68.2849 317.09C73.3689 316.661 78.0538 314.13 83.0638 313.316C100.976 310.253 118.844 328.114 135.869 321.795C139.756 320.316 143.125 317.726 147.071 316.424C157.52 312.991 168.382 319.576 179.289 321.056C191.94 322.757 204.768 317.46 217.389 319.295C223.67 320.212 229.7 322.876 236.055 322.861C243.282 322.861 250.243 319.369 257.455 319.901C263.736 320.316 270.179 323.719 276.047 321.381C278.249 320.508 280.081 318.91 282.224 317.919C287.249 315.566 293.116 316.809 298.658 317.149C304.201 317.489 310.777 316.158 313.112 311.112C313.895 309.41 314.102 307.427 315.181 305.903C316.881 303.52 320.103 302.943 322.984 302.47C349.365 297.794 371.755 280.954 392.992 264.617L432.334 234.371C435.082 232.27 437.935 230.021 439.339 226.839C440.743 223.658 440.078 219.292 437.018 217.679C435.21 216.927 433.217 216.736 431.299 217.132C412.84 219.411 396.376 229.355 379.011 235.969C324.654 256.686 264.002 244.212 205.98 248.222C197.216 248.828 188.467 249.82 179.688 249.701C173.585 249.701 167.496 249.11 161.407 249.065C151.573 249.191 141.759 249.962 132.026 251.374L97.1777 255.635C91.34 256.346 85.3546 257.115 80.3297 260.282C67.6347 268.302 63.6591 279.77 47.8162 282.36C43.9293 283.07 -2.86069 295.515 0.183759 299.673Z" fill="#606060"/>
<path d="M137.332 71.9816C130.298 83.0277 124.551 94.8442 120.203 107.2C118.592 111.787 117.159 116.67 118.001 121.45C118.371 123.566 119.553 125.889 121.681 126.171C123.528 126.393 125.11 124.913 126.351 123.507C138.736 109.642 147.47 92.9351 155.48 76.1545C157.786 71.3009 171.338 50.5991 161.274 50.3919C151.475 50.1699 141.736 65.0711 137.332 71.9816Z" fill="url(#paint0_linear)"/>
<path d="M175.462 40.1373C175.802 39.5602 176.348 40.6701 176.082 41.2768C174.102 45.7161 171.22 51.7535 168.028 55.4825C173.2 56.4295 178.373 57.2582 183.501 58.2053C186.457 58.7232 189.531 59.2263 192.132 57.8649C189.107 52.1346 187.144 45.9027 186.339 39.4715C186.346 39.2121 186.298 38.9542 186.198 38.7146C186.099 38.4749 185.951 38.2589 185.762 38.0805C185.373 37.8724 184.923 37.8095 184.492 37.9029C181.595 38.1989 178.358 39.8414 175.462 40.1373Z" fill="#DDC69B"/>
<path d="M298.91 280.732L298.097 280.125C293.116 276.169 288.813 271.426 285.357 266.082C278.365 255.354 274.214 243.02 273.298 230.242C272.988 225.803 273.298 220.565 275.929 216.791C280.185 210.754 284.131 216.259 287.116 220.654L299.087 238.411C299.613 239.363 300.39 240.151 301.333 240.69C301.815 240.929 302.37 240.97 302.881 240.804C303.392 240.638 303.818 240.278 304.068 239.802C304.139 239.347 304.107 238.882 303.973 238.441C303.84 238.001 303.61 237.596 303.299 237.257C298.319 229.858 293.456 222.459 291.372 213.743C286.126 191.547 284.234 164.289 294.653 143.439C295.865 141.042 297.151 137.742 299.471 136.233C303.713 133.466 304.481 137.195 306.314 140.495C310.08 147.31 314.421 153.79 319.29 159.865C318.64 148.989 309.314 140.08 308.693 129.189C308.63 125.799 309.043 122.417 309.92 119.142C312.215 109.047 315.308 99.1502 319.172 89.5465C323.605 78.4483 331.719 65.1008 341.044 57.4356C341.916 56.7253 343.069 56.0298 344.089 56.5033C344.572 56.778 344.963 57.19 345.212 57.6872C350.325 65.9443 348.892 77.6048 355.631 84.5893C357.286 76.8797 353.651 69.0813 353.621 61.2386C353.621 53.8398 356.917 46.6037 361.661 40.877C364.863 36.9042 368.954 33.7411 373.602 31.6433C379.307 28.9205 384.243 24.57 389.623 21.1962C401.073 14.0246 413.312 8.2002 426.097 3.83853C434.107 1.10096 442.664 -1.05949 450.97 0.55345C464.744 3.20223 454.605 19.4056 451.191 26.8637C445.721 38.8012 439.14 50.1964 431.535 60.8982C426.851 67.4684 421.471 74.0089 414.052 77.1756C409.219 79.2029 403.884 79.632 398.771 80.7863C391.189 82.5124 384.073 85.8702 377.918 90.6267C376.44 91.7661 374.962 94.0598 376.44 95.1992C382.255 92.1245 388.365 89.6457 394.677 87.8004C398.815 86.587 406.131 83.6718 410.313 86.069C418.84 90.8339 409.072 103.634 405.732 108.591C401.564 114.732 397.721 121.213 392.135 126.2C380.593 136.559 364.055 138.601 350.207 145.644C346.69 147.45 343.143 149.788 341.591 153.428C352.705 152.037 363.08 144.549 373.528 140.658C383.977 136.766 387.879 147.775 384.553 156.225L378.125 172.606C374.504 181.854 370.617 191.458 364.158 199.241C356.858 208.12 345.744 211.583 335.65 216.407C332.916 217.709 329.738 219.603 329.738 222.622C331.859 222.462 333.939 221.962 335.901 221.142C341.635 218.952 347.222 216.096 353.311 215.371C354.345 215.252 355.587 215.371 356.148 216.155C356.373 216.568 356.49 217.031 356.488 217.502C357.538 231.456 350.311 245.366 342.596 256.523C335.694 266.511 325.748 273.881 318.95 283.795C315.033 289.537 315.684 297.468 315.994 304.201C313.295 304.944 310.502 305.293 307.703 305.237C308.72 300.874 309.172 296.398 309.048 291.919C308.856 284.402 303.846 284.165 298.91 280.732Z" fill="url(#paint1_linear)"/>
<path style="mix-blend-mode:multiply" d="M323.679 277.743C324.137 274.532 324.95 271.321 325.526 268.391C326.396 264.822 326.828 261.159 326.812 257.485C326.344 252.54 325.354 247.66 323.856 242.924C321.758 235.23 318.063 227.86 317.383 219.84C316.807 212.796 319.157 206.137 322.083 199.848C329.384 184.163 335.28 168.892 335.561 151.342C335.694 143.44 334.083 135.597 334.453 127.665C334.544 124.002 335.321 120.388 336.744 117.011C337.645 114.954 339.345 112.912 339.566 110.633C340.202 104.27 333.182 97.4931 329.531 93.0242C326.733 89.7449 324.328 86.1493 322.364 82.3106C321.137 84.7227 320.058 87.1199 319.127 89.4283C315.264 99.032 312.17 108.928 309.876 119.024C308.998 122.299 308.585 125.681 308.649 129.071C309.27 139.962 318.595 148.87 319.245 159.747C314.376 153.672 310.035 147.192 306.269 140.377C304.437 137.077 303.668 133.348 299.427 136.115C297.107 137.595 295.821 140.924 294.609 143.321C284.264 164.171 286.081 191.473 291.328 213.625C293.412 222.356 298.274 229.799 303.255 237.138C303.565 237.478 303.796 237.883 303.929 238.323C304.062 238.764 304.094 239.229 304.023 239.684C303.774 240.16 303.348 240.52 302.837 240.686C302.326 240.852 301.77 240.811 301.289 240.571C300.388 240.041 299.643 239.28 299.131 238.367L287.16 220.609C284.205 216.17 280.229 210.71 275.973 216.747C273.312 220.521 273.017 225.744 273.342 230.198C274.259 242.976 278.409 255.31 285.402 266.038C288.857 271.382 293.16 276.125 298.141 280.081L298.954 280.688C303.89 284.121 308.9 284.358 309.122 291.86C309.248 296.339 308.796 300.815 307.777 305.178C310.576 305.247 313.369 304.903 316.068 304.157C315.772 297.424 315.122 289.492 319.024 283.751C320.458 281.66 322.012 279.654 323.679 277.743Z" fill="url(#paint2_linear)"/>
<path d="M333.123 174.958C335.419 164.46 338.256 154.088 341.621 143.883C344.68 135.005 349.513 128.316 353.444 120.207C362.622 101.384 370.661 83.5089 383.992 67.0391C389.696 59.9954 395.815 53.3809 402.052 46.7663C409.042 39.2639 417.717 31.8651 423.496 23.4452C420.259 21.4624 408.643 34.7655 405.879 37.3846C397.788 45.1379 390.126 53.3282 382.928 61.9191C368.47 79.0145 356.289 97.916 346.69 118.15C324.403 165.932 310.526 216.258 309.137 269.086C309.048 272.46 309.137 276.056 310.91 278.897C311.955 279.042 313.019 278.847 313.945 278.341C314.871 277.835 315.61 277.044 316.053 276.085C316.904 274.152 317.328 272.057 317.295 269.944C319.246 237.833 325.733 206.388 333.123 174.958Z" fill="url(#paint3_linear)"/>
<path d="M254.07 60.3357C253.716 60.7353 253.346 61.1348 252.991 61.5639C251.888 62.8162 251.046 64.2771 250.515 65.8604C249.985 67.4438 249.777 69.1176 249.903 70.7829C250.021 71.7447 250.272 72.6917 250.302 73.6684C249.293 76.9447 247.962 80.1122 246.326 83.1241C249.711 82.7098 253.361 82.3546 256.317 84.0415C257.323 84.7991 258.433 85.4072 259.612 85.8469C261.076 85.9578 262.549 85.8024 263.957 85.3881C266.913 84.959 269.869 86.0984 272.825 86.6607C277.324 87.2729 281.889 87.2331 286.377 86.5423L300.772 85.0626C298.703 81.9107 299.013 77.8413 299.397 74.0975L300.225 66.092C300.306 65.493 300.306 64.8857 300.225 64.2867C300.034 63.5368 299.725 62.8224 299.308 62.1706C297.638 59.1223 297.343 54.7718 295.466 52.0342C293.589 49.2967 290.722 49.9034 287.84 50.081C275.012 50.88 263.189 50.4805 254.07 60.3357Z" fill="#530065"/>
<path d="M264.238 81.5854C264.628 82.9049 265.216 84.1574 265.982 85.2996C268.938 89.2358 275.278 89.0286 279.283 86.1283C283.288 83.228 285.372 78.4779 287.175 73.9054C289.083 69.7087 290.191 65.1919 290.441 60.5876C290.441 48.5719 276.475 42.4457 266.795 49.1786C257.115 55.9115 261.135 72.3517 264.238 81.5854Z" fill="#DDC69B"/>
<path d="M226.833 62.881C254.455 66.0477 282.416 68.0306 309.994 64.5236C314.546 63.9465 319.408 63.0438 322.659 59.8179C322.977 59.5446 323.208 59.1846 323.324 58.7821C323.561 57.5983 322.068 56.888 320.886 56.6364C315.506 55.4822 309.92 55.1566 304.629 53.9136C302.205 53.3661 302.043 53.6325 301.407 51.3093C300.772 48.9861 300.89 45.8786 300.314 43.3186C299.866 40.7423 299.034 38.2481 297.845 35.9197C296.567 33.8358 294.853 32.0538 292.821 30.6961C288.987 28.0856 284.5 26.6046 279.867 26.4214C275.235 26.2383 270.644 27.3605 266.618 29.6603C258.992 34.1884 256.346 41.4984 254.942 49.8591C254.085 54.8015 251.588 54.2984 246.888 54.8755C241.183 55.6055 235.503 56.518 229.848 57.6131C228.2 57.8187 226.603 58.32 225.133 59.0928C224.75 59.2656 224.423 59.5435 224.19 59.8943C223.957 60.2451 223.828 60.6547 223.818 61.0757C223.951 62.2448 225.414 62.659 226.582 62.7922L226.833 62.881Z" fill="url(#paint4_linear)"/>
<path style="mix-blend-mode:multiply" d="M285.919 33.8484C286.639 35.8845 286.942 38.045 286.81 40.2009C286.678 42.3568 286.113 44.464 285.15 46.3968C285.032 46.6632 284.042 49.2083 283.466 50.6881L284.057 50.8509C287.487 51.2857 290.949 51.4095 294.402 51.2208C296.707 51.2208 299.013 51.0876 301.319 51.0432C300.727 48.646 300.846 45.7901 300.299 43.3189C299.851 40.7427 299.019 38.2485 297.831 35.9201C296.552 33.8362 294.838 32.0541 292.806 30.6965C289.644 28.5155 286.005 27.1298 282.195 26.6568C283.861 28.8084 285.123 31.2451 285.919 33.8484Z" fill="url(#paint5_linear)"/>
<path d="M238.996 100.911C261.947 103.435 285.029 104.587 308.117 104.359C302.427 101.636 295.969 100.822 290.279 98.1143C287.619 96.8417 284.545 95.362 282.889 92.8908C282.49 92.3137 279.727 84.7817 280.924 84.8408C276.264 84.53 271.588 84.53 266.928 84.8408C266.821 86.9146 266.194 88.9281 265.107 90.6966C264.02 92.4651 262.507 93.9319 260.706 94.9624C254.011 98.6174 246.799 101.769 238.996 100.911Z" fill="#DDC69B"/>
<path d="M258.401 285.112C258.903 272.638 259.524 260.178 261.002 247.674C261.342 244.714 262.672 240.837 265.672 241.015C268.672 241.193 269.574 245.232 269.559 248.295C269.559 268.494 270.682 288.678 269.825 308.966L275.5 309.528C275.841 309.615 276.199 309.617 276.541 309.534C276.883 309.452 277.201 309.287 277.465 309.055C277.704 308.664 277.813 308.208 277.776 307.752C278.101 297.956 280.259 288.353 281.205 278.616C282.195 268.642 281.929 258.831 283.791 248.902C284.279 246.253 284.766 243.19 283.052 241.089C282.057 240.056 280.831 239.275 279.475 238.81C273.386 236.191 261.12 227.816 254.632 228.082C248.721 228.319 249.001 236.65 249.267 240.823C249.875 246.431 249.666 252.099 248.647 257.648C245.321 273.733 248.366 292.511 249.991 308.714C249.987 309.12 250.117 309.515 250.361 309.839C250.735 310.102 251.191 310.223 251.647 310.179H255.829C256.038 310.206 256.25 310.192 256.453 310.136C256.656 310.08 256.846 309.984 257.011 309.854C257.247 309.545 257.363 309.161 257.337 308.773C257.75 300.96 258.076 292.999 258.401 285.112Z" fill="#DDC69B"/>
<path d="M181.063 8.61805C179.789 8.31222 178.485 8.15334 177.176 8.14452C172.875 8.14452 168.308 10.3198 166.712 14.3299C164.348 20.249 165.633 27.3519 167.747 33.1229C168.705 36.2513 170.306 39.1445 172.447 41.6168C178.535 47.965 186.058 44.9315 189.605 37.8434C191.836 33.4041 194.748 19.228 192.457 14.5963C191.729 13.4319 190.654 12.526 189.383 12.0067C186.765 10.5268 183.969 9.38799 181.063 8.61805Z" fill="#DDC69B"/>
<path d="M166.594 213.507C167.422 243.886 170.629 274.073 174.531 304.187C179.851 303.18 185.349 304.423 190.787 304.113C191.668 304.133 192.536 303.897 193.285 303.432C193.927 302.841 194.401 302.09 194.659 301.257C198.384 292.023 200.024 281.546 202.773 271.868C205.98 260.593 209.113 249.258 211.36 237.73C215.512 216.629 216.828 194.506 211.079 173.79C209.734 168.98 207.621 163.816 203.113 161.685C200.283 160.631 197.246 160.256 194.246 160.59L145.313 162.144C141.012 162.292 136.105 162.736 133.49 166.198C132.33 168.074 131.612 170.189 131.391 172.384C123.514 217.487 121.548 261.051 135.825 305.208L147.263 304.468C148.031 304.501 148.789 304.283 149.421 303.846C150.034 303.167 150.358 302.275 150.323 301.36C151.712 287.036 154.328 272.875 156.752 258.639C158.067 250.871 159.5 243.131 161.185 235.437C162.648 228.748 166.594 220.239 166.594 213.507Z" fill="url(#paint6_linear)"/>
<path style="mix-blend-mode:multiply" d="M152.185 189.978C161.835 191.68 171.077 195.194 179.422 200.337C192.328 208.575 203.528 219.226 212.409 231.708C215.66 212.471 216.266 192.553 211.049 173.79C209.704 168.98 207.591 163.816 203.083 161.685C200.254 160.631 197.217 160.256 194.216 160.59L145.283 162.144C140.982 162.292 136.076 162.736 133.46 166.198C132.3 168.074 131.582 170.189 131.361 172.384C130.514 177.238 129.741 182.076 129.041 186.9C136.563 188.647 144.736 188.499 152.185 189.978Z" fill="url(#paint7_linear)"/>
<path d="M107.139 217.206C113.698 201.842 119.349 186.104 124.06 170.075C126.41 162.129 126.484 153.694 126.396 145.467C126.396 141.027 126.957 136.84 126.13 132.563C124.859 126.037 125.021 120.725 120.676 115.546C117.578 111.75 113.679 108.689 109.258 106.583C104.837 104.477 100.004 103.379 95.1086 103.367C94.3775 103.288 93.6447 103.501 93.0692 103.959C92.7633 104.36 92.5695 104.835 92.5076 105.335C91.1184 112.453 93.1578 118.15 97.6211 123.566L98.759 124.898C102.735 129.208 104.959 134.85 104.996 140.717C105.72 154.671 104.774 168.64 105.262 182.594C105.513 189.638 106.533 196.445 107.419 203.414C107.789 206.374 109.548 214.808 107.139 217.206Z" fill="#DDC69B"/>
<path d="M60.26 126.763C62.0443 124.5 64.1448 122.507 66.4967 120.844C70.9304 117.884 75.5562 115.457 79.4578 111.654C80.6028 110.758 81.423 109.51 81.7929 108.103C82.5909 102.613 72.4526 101.917 68.9943 101.784C62.7281 101.533 56.7574 105.38 52.1168 109.435C41.7716 118.387 30.3771 132.652 29.8303 146.813C29.7071 147.873 29.8865 148.945 30.3475 149.906C34.7812 157.69 53.3878 134.472 56.048 131.661C57.5259 130.077 58.8708 128.39 60.26 126.763Z" fill="#DDC69B"/>
<path d="M41.5351 217.931L33.1851 238.81C32.6459 239.986 32.2967 241.239 32.1505 242.524C32.0175 245.129 33.6284 247.482 35.0029 249.642C40.4235 257.776 45.2586 266.287 49.4714 275.109C50.6685 277.595 55.8707 285.6 55.1613 288.234C54.4519 290.868 46.9442 292.969 44.5796 293.813C42.6585 294.373 40.8236 295.194 39.1262 296.255C38.2788 296.799 37.5842 297.551 37.1083 298.439C36.6324 299.327 36.391 300.322 36.4068 301.33C47.4451 301.56 58.4313 299.754 68.817 296.003C69.5323 295.826 70.1736 295.427 70.6495 294.864C71.0234 294.15 71.1383 293.329 70.9747 292.54C70.2799 287.141 69.0926 281.816 67.4277 276.633C65.2109 268.879 62.9054 260.962 58.3092 254.333C57.0956 252.855 56.1002 251.211 55.3534 249.45C53.4321 243.649 59.0186 241.237 61.8857 237.39C64.4286 233.953 66.6125 230.264 68.4032 226.38C72.0089 218.594 73.9278 210.132 74.0339 201.55C74.1732 200.255 73.8711 198.951 73.1767 197.85C71.6988 195.986 68.8613 196.459 66.541 195.956C66.2831 195.922 66.0208 195.947 65.7745 196.031C65.5282 196.115 65.3047 196.255 65.1215 196.44C64.9382 196.625 64.8002 196.85 64.7183 197.097C64.6364 197.344 64.6128 197.607 64.6493 197.865C64.7223 198.114 64.8516 198.342 65.027 198.533C65.2024 198.723 65.4193 198.871 65.6609 198.964C65.9024 199.057 66.1621 199.093 66.4199 199.069C66.6776 199.045 66.9264 198.962 67.1469 198.827C70.8269 196.149 58.0727 193.544 56.8017 193.189C56.048 192.967 55.0135 192.863 54.6736 193.574C54.3336 194.284 53.9642 195.616 53.5356 194.965C50.0178 200.179 47.0463 205.743 44.6683 211.568" fill="#DDC69B"/>
<path d="M80.6695 204.51C81.0095 212.426 78.5857 220.195 77.9059 228.097C76.9157 239.713 79.6794 251.137 81.3051 262.561C82.7829 272.682 84.4677 284.861 82.9012 295.027C82.2163 298.424 81.0676 301.71 79.4873 304.793C78.2163 307.546 71.7727 313.672 74.0338 316.765C75.3196 318.481 77.9798 318.008 79.9454 317.238C88.4986 313.913 96.1093 308.543 102.114 301.597C91.6355 271.928 105.528 239.166 102.262 207.854C101.936 204.717 101.168 201.165 98.419 199.597C96.7435 198.838 94.9014 198.522 93.0691 198.679H83.5219" fill="#DDC69B"/>
<g style="mix-blend-mode:multiply">
<path d="M56.9199 220.816C60.5359 223.766 63.5472 227.389 65.7872 231.485C66.7478 229.813 67.6494 228.096 68.4622 226.35C72.0679 218.564 73.9868 210.102 74.0929 201.52C74.2322 200.225 73.9301 198.922 73.2358 197.821C71.7579 195.956 68.9203 196.43 66.6001 195.926C66.3864 195.875 66.1635 195.875 65.9498 195.926C63.0169 194.718 59.9794 193.782 56.8755 193.13C56.1218 192.908 55.0873 192.804 54.7474 193.514C54.4075 194.225 54.038 195.557 53.6094 194.905C50.0916 200.12 47.1201 205.684 44.7421 211.508L42.7913 215.459C47.9554 215.668 52.9128 217.548 56.9199 220.816Z" fill="#DDC69B"/>
</g>
<g style="mix-blend-mode:multiply">
<path d="M70.9747 292.511C70.2798 287.111 69.0926 281.786 67.4277 276.603C65.2109 268.849 62.9054 260.932 58.3092 254.303C57.169 252.863 56.2202 251.282 55.4864 249.598C55.2722 249.668 55.0645 249.757 54.8657 249.864C53.0183 250.9 53.5651 252.69 54.2006 254.496C56.048 259.808 59.4915 264.691 61.8709 269.781C65.5213 277.609 69.1569 287.08 68.5953 296.062L68.817 295.973C69.5339 295.8 70.1763 295.4 70.6495 294.834C71.0234 294.121 71.1383 293.299 70.9747 292.511Z" fill="#DDC69B"/>
</g>
<g style="mix-blend-mode:multiply">
<path d="M78.0686 226.455C85.4416 221.883 94.2498 220.221 102.779 221.793C102.937 217.142 102.784 212.485 102.321 207.854C101.996 204.717 101.227 201.165 98.4782 199.597C96.8027 198.838 94.9606 198.522 93.1283 198.679H83.5811L80.6253 204.465C80.98 211.879 78.9258 219.115 78.0686 226.455Z" fill="#DDC69B"/>
</g>
<g style="mix-blend-mode:multiply">
<path d="M77.64 307.59L76.1621 309.617C79.3239 310.8 82.1353 312.765 84.3348 315.329C85.3398 314.841 86.33 314.308 87.2906 313.76C86.9507 312.917 86.6699 312.059 86.4039 311.186C83.5934 309.732 80.6608 308.529 77.64 307.59Z" fill="#DDC69B"/>
</g>
<g style="mix-blend-mode:multiply">
<path d="M99.5128 255.65C97.5019 260.736 95.9634 265.997 94.9166 271.365C93.7934 276.87 93.217 282.552 92.5963 288.146C92.0347 293.133 91.4583 298.386 92.5224 303.343C92.6173 303.832 92.6173 304.334 92.5224 304.823C92.8238 306.405 93.2236 307.967 93.7195 309.499C96.7949 307.166 99.6182 304.518 102.143 301.597C96.9708 286.858 97.7837 271.365 99.5128 255.65Z" fill="#DDC69B"/>
</g>
<path d="M228.872 101.089C232.021 100.174 235.264 99.6232 238.538 99.4461C251.07 98.7432 263.632 98.7432 276.165 99.4461L298.511 100.275C309.683 100.689 321.61 102.494 323.915 115.398C324.506 118.623 324.179 121.95 322.971 124.998C321.764 128.046 319.725 130.693 317.088 132.637C318.812 133.532 320.163 135.011 320.901 136.81C321.166 137.31 321.224 137.895 321.063 138.438C320.882 138.726 320.645 138.974 320.365 139.167C320.086 139.36 319.77 139.495 319.437 139.562L308.915 143.203C308.541 143.375 308.127 143.441 307.718 143.395C305.693 143.01 307.363 139.163 305.634 138.038C300.786 137.402 296.146 134.783 293.545 140.495C291.476 145.052 294.003 150.853 295.023 155.559L303.122 194.684C305.261 204.633 308.318 214.363 312.255 223.746C317.017 235.328 320.28 247.472 321.965 259.882C322.216 260.983 322.216 262.126 321.965 263.226C321.663 263.943 321.223 264.592 320.67 265.138C320.117 265.684 319.462 266.115 318.743 266.408C315.329 268.05 311.353 268.036 307.629 268.228C300.034 268.616 292.525 270.014 285.298 272.386C284.259 272.805 283.152 273.025 282.032 273.037C280.91 272.87 279.819 272.536 278.795 272.046C276.39 271.125 273.809 270.761 271.243 270.98C267.238 271.335 263.485 273.082 259.509 273.733C251.78 275.005 244.065 272.09 236.543 269.915C229.02 267.74 220.434 266.408 213.709 270.433L213.576 260.341C213.441 257.861 213.625 255.375 214.123 252.942C215.08 250.126 216.256 247.39 217.64 244.759C222.99 232.388 219.251 217.827 223.02 204.805C225.591 195.927 231.606 188.025 231.976 178.821C232.301 170.578 230.587 164.378 234.577 156.624C237.282 151.371 240.607 146.443 241.73 140.524C242.469 136.544 242.528 132.252 238.021 130.965C236.444 130.703 234.829 130.798 233.295 131.244C231.76 131.69 230.345 132.474 229.153 133.54C227.188 135.464 226.463 140.805 222.458 139.459C221.716 139.154 221.046 138.695 220.493 138.112C218.068 135.817 215.916 133.25 214.079 130.462C213.709 129.914 219.724 126.763 220.301 126.526C215.291 122.279 216.665 114.125 219.192 108.931C220.174 107.024 221.542 105.341 223.209 103.991C224.875 102.641 226.804 101.652 228.872 101.089Z" fill="url(#paint8_linear)"/>
<path style="mix-blend-mode:multiply" d="M312.255 223.732C308.318 214.348 305.261 204.619 303.122 194.669C300.422 181.618 297.722 168.576 295.023 155.544C294.047 150.898 291.52 145.038 293.545 140.48C296.161 134.768 300.786 137.388 305.634 138.024C307.363 139.163 305.634 142.996 307.718 143.381C308.127 143.427 308.541 143.36 308.915 143.188L319.437 139.548C319.77 139.48 320.086 139.346 320.365 139.152C320.645 138.959 320.882 138.711 321.063 138.423C321.224 137.88 321.166 137.296 320.9 136.796C320.163 134.996 318.812 133.518 317.088 132.623C319.725 130.679 321.764 128.032 322.971 124.984C324.178 121.936 324.506 118.609 323.915 115.383C322.438 107.186 317.102 103.545 310.614 101.74C311.681 103.935 312.22 106.35 312.186 108.792C312.153 111.233 311.549 113.632 310.422 115.798C308.544 119.658 305.839 123.057 302.501 125.752C299.163 128.448 295.272 130.374 291.106 131.394C286.495 132.667 282.003 133.658 279.86 138.468C277.717 143.277 280.717 147.346 282.387 151.786C286.687 163.15 285.121 175.462 283.51 187.122C282.623 193.485 281.84 199.523 283.259 205.871C284.545 211.612 286.673 217.132 288.298 222.785C291.668 234.549 292.599 246.875 296.708 258.462C298.027 261.872 298.878 265.447 299.235 269.086C302.007 268.664 304.799 268.383 307.6 268.243C311.368 268.051 315.299 268.065 318.713 266.423C319.433 266.13 320.087 265.699 320.64 265.153C321.193 264.607 321.633 263.958 321.935 263.241C322.186 262.141 322.186 260.998 321.935 259.897C320.263 247.478 317.009 235.324 312.255 223.732Z" fill="url(#paint9_linear)"/>
<path style="mix-blend-mode:multiply" d="M268.849 254.733C266.16 245.366 262.568 235.851 257.026 227.697C255.922 230.151 255.29 232.792 255.164 235.481C254.868 240.601 254.868 245.735 255.164 250.856C255.386 258.254 255.933 267.044 252.386 273.851C254.731 274.125 257.102 274.08 259.435 273.718C263.411 273.067 267.165 271.321 271.17 270.966C271.776 270.966 272.396 270.966 273.002 270.966C271.273 265.638 270.372 260.015 268.849 254.733Z" fill="url(#paint10_linear)"/>
<path d="M273.505 126.2C274.006 126.2 274.488 126.001 274.842 125.646C275.197 125.29 275.396 124.809 275.396 124.306C275.396 123.804 275.197 123.322 274.842 122.967C274.488 122.612 274.006 122.412 273.505 122.412C273.003 122.412 272.522 122.612 272.167 122.967C271.812 123.322 271.613 123.804 271.613 124.306C271.613 124.809 271.812 125.29 272.167 125.646C272.522 126.001 273.003 126.2 273.505 126.2Z" fill="url(#paint11_linear)"/>
<path d="M261.194 163.638C261.665 163.597 262.103 163.38 262.422 163.031C262.742 162.681 262.919 162.225 262.919 161.752C262.919 161.278 262.742 160.822 262.422 160.473C262.103 160.124 261.665 159.907 261.194 159.865C260.723 159.907 260.285 160.124 259.965 160.473C259.646 160.822 259.469 161.278 259.469 161.752C259.469 162.225 259.646 162.681 259.965 163.031C260.285 163.38 260.723 163.597 261.194 163.638Z" fill="url(#paint12_linear)"/>
<path d="M278.19 177.252C278.66 177.21 279.099 176.993 279.418 176.644C279.737 176.295 279.914 175.839 279.914 175.365C279.914 174.892 279.737 174.436 279.418 174.086C279.099 173.737 278.66 173.52 278.19 173.479C277.719 173.52 277.28 173.737 276.961 174.086C276.642 174.436 276.465 174.892 276.465 175.365C276.465 175.839 276.642 176.295 276.961 176.644C277.28 176.993 277.719 177.21 278.19 177.252Z" fill="url(#paint13_linear)"/>
<path d="M265.007 213.003C265.508 213.003 265.99 212.804 266.344 212.449C266.699 212.093 266.898 211.612 266.898 211.109C266.898 210.607 266.699 210.125 266.344 209.77C265.99 209.415 265.508 209.215 265.007 209.215C264.505 209.215 264.024 209.415 263.669 209.77C263.314 210.125 263.115 210.607 263.115 211.109C263.115 211.612 263.314 212.093 263.669 212.449C264.024 212.804 264.505 213.003 265.007 213.003Z" fill="url(#paint14_linear)"/>
<path d="M245.041 210.014C245.512 209.972 245.95 209.755 246.269 209.406C246.588 209.057 246.765 208.601 246.765 208.127C246.765 207.654 246.588 207.198 246.269 206.848C245.95 206.499 245.512 206.282 245.041 206.241C244.57 206.282 244.131 206.499 243.812 206.848C243.493 207.198 243.316 207.654 243.316 208.127C243.316 208.601 243.493 209.057 243.812 209.406C244.131 209.755 244.57 209.972 245.041 210.014Z" fill="url(#paint15_linear)"/>
<path d="M258.637 188.75C259.139 188.75 259.62 188.55 259.975 188.195C260.329 187.84 260.529 187.358 260.529 186.856C260.529 186.353 260.329 185.872 259.975 185.516C259.62 185.161 259.139 184.962 258.637 184.962C258.135 184.962 257.654 185.161 257.299 185.516C256.945 185.872 256.745 186.353 256.745 186.856C256.745 187.358 256.945 187.84 257.299 188.195C257.654 188.55 258.135 188.75 258.637 188.75Z" fill="url(#paint16_linear)"/>
<path d="M239.513 246.608C240.015 246.608 240.496 246.409 240.851 246.054C241.206 245.698 241.405 245.217 241.405 244.714C241.405 244.212 241.206 243.73 240.851 243.375C240.496 243.02 240.015 242.82 239.513 242.82C239.011 242.82 238.53 243.02 238.176 243.375C237.821 243.73 237.621 244.212 237.621 244.714C237.621 245.217 237.821 245.698 238.176 246.054C238.53 246.409 239.011 246.608 239.513 246.608Z" fill="url(#paint17_linear)"/>
<path d="M272.662 251.285C273.133 251.243 273.571 251.026 273.891 250.677C274.21 250.328 274.387 249.872 274.387 249.398C274.387 248.925 274.21 248.469 273.891 248.119C273.571 247.77 273.133 247.553 272.662 247.512C272.191 247.553 271.753 247.77 271.434 248.119C271.115 248.469 270.938 248.925 270.938 249.398C270.938 249.872 271.115 250.328 271.434 250.677C271.753 251.026 272.191 251.243 272.662 251.285Z" fill="url(#paint18_linear)"/>
<path d="M286.687 227.889C287.189 227.889 287.67 227.69 288.025 227.335C288.38 226.979 288.579 226.498 288.579 225.995C288.579 225.493 288.38 225.011 288.025 224.656C287.67 224.301 287.189 224.101 286.687 224.101C286.186 224.101 285.704 224.301 285.35 224.656C284.995 225.011 284.796 225.493 284.796 225.995C284.796 226.498 284.995 226.979 285.35 227.335C285.704 227.69 286.186 227.889 286.687 227.889Z" fill="url(#paint19_linear)"/>
<path d="M301.555 252.986C302.026 252.945 302.464 252.728 302.783 252.379C303.103 252.029 303.28 251.573 303.28 251.1C303.28 250.626 303.103 250.17 302.783 249.821C302.464 249.472 302.026 249.255 301.555 249.213C301.084 249.255 300.646 249.472 300.327 249.821C300.007 250.17 299.83 250.626 299.83 251.1C299.83 251.573 300.007 252.029 300.327 252.379C300.646 252.728 301.084 252.945 301.555 252.986Z" fill="url(#paint20_linear)"/>
<path d="M289.658 195.971C290.129 195.929 290.567 195.712 290.886 195.363C291.206 195.014 291.383 194.558 291.383 194.084C291.383 193.611 291.206 193.155 290.886 192.806C290.567 192.456 290.129 192.239 289.658 192.198C289.187 192.239 288.749 192.456 288.43 192.806C288.11 193.155 287.933 193.611 287.933 194.084C287.933 194.558 288.11 195.014 288.43 195.363C288.749 195.712 289.187 195.929 289.658 195.971Z" fill="url(#paint21_linear)"/>
<path d="M300.284 113.859C300.755 113.818 301.193 113.601 301.512 113.251C301.832 112.902 302.009 112.446 302.009 111.973C302.009 111.499 301.832 111.043 301.512 110.694C301.193 110.345 300.755 110.128 300.284 110.086C299.813 110.128 299.375 110.345 299.056 110.694C298.736 111.043 298.559 111.499 298.559 111.973C298.559 112.446 298.736 112.902 299.056 113.251C299.375 113.601 299.813 113.818 300.284 113.859Z" fill="url(#paint22_linear)"/>
<path d="M292.2 125.357C292.702 125.357 293.183 125.157 293.538 124.802C293.892 124.447 294.092 123.965 294.092 123.463C294.092 122.96 293.892 122.478 293.538 122.123C293.183 121.768 292.702 121.568 292.2 121.568C291.698 121.568 291.217 121.768 290.862 122.123C290.508 122.478 290.308 122.96 290.308 123.463C290.308 123.965 290.508 124.447 290.862 124.802C291.217 125.157 291.698 125.357 292.2 125.357Z" fill="url(#paint23_linear)"/>
<path d="M310.954 126.629C311.456 126.629 311.937 126.43 312.292 126.075C312.647 125.719 312.846 125.238 312.846 124.735C312.846 124.233 312.647 123.751 312.292 123.396C311.937 123.041 311.456 122.841 310.954 122.841C310.453 122.841 309.972 123.041 309.617 123.396C309.262 123.751 309.063 124.233 309.063 124.735C309.063 125.238 309.262 125.719 309.617 126.075C309.972 126.43 310.453 126.629 310.954 126.629Z" fill="url(#paint24_linear)"/>
<path d="M264.164 109.612C264.666 109.612 265.147 109.413 265.502 109.057C265.857 108.702 266.056 108.22 266.056 107.718C266.056 107.216 265.857 106.734 265.502 106.379C265.147 106.024 264.666 105.824 264.164 105.824C263.663 105.824 263.182 106.024 262.827 106.379C262.472 106.734 262.273 107.216 262.273 107.718C262.273 108.22 262.472 108.702 262.827 109.057C263.182 109.413 263.663 109.612 264.164 109.612Z" fill="url(#paint25_linear)"/>
<path d="M237.385 113.03C237.887 113.03 238.368 112.831 238.723 112.476C239.077 112.12 239.277 111.639 239.277 111.136C239.277 110.634 239.077 110.152 238.723 109.797C238.368 109.442 237.887 109.242 237.385 109.242C236.883 109.242 236.402 109.442 236.047 109.797C235.693 110.152 235.493 110.634 235.493 111.136C235.493 111.639 235.693 112.12 236.047 112.476C236.402 112.831 236.883 113.03 237.385 113.03Z" fill="url(#paint26_linear)"/>
<path d="M251.839 127.902C252.341 127.902 252.822 127.702 253.176 127.347C253.531 126.992 253.731 126.51 253.731 126.008C253.731 125.505 253.531 125.024 253.176 124.668C252.822 124.313 252.341 124.114 251.839 124.114C251.337 124.114 250.856 124.313 250.501 124.668C250.146 125.024 249.947 125.505 249.947 126.008C249.947 126.51 250.146 126.992 250.501 127.347C250.856 127.702 251.337 127.902 251.839 127.902Z" fill="url(#paint27_linear)"/>
<path d="M228.473 124.869C228.975 124.869 229.456 124.669 229.811 124.314C230.166 123.959 230.365 123.477 230.365 122.975C230.365 122.472 230.166 121.99 229.811 121.635C229.456 121.28 228.975 121.08 228.473 121.08C227.972 121.08 227.49 121.28 227.136 121.635C226.781 121.99 226.582 122.472 226.582 122.975C226.582 123.477 226.781 123.959 227.136 124.314C227.49 124.669 227.972 124.869 228.473 124.869Z" fill="url(#paint28_linear)"/>
<path d="M307.659 174.44C305.767 178.806 302.649 182.757 302.087 187.477C301.644 191.295 302.944 195.068 304.23 198.679C306.639 187.995 316.393 180.197 319.009 169.557C319.866 165.263 320.12 160.87 319.763 156.506L319.127 139.444C316.866 140.258 309.816 141.723 308.442 143.72C307.067 145.718 309.166 150.942 309.476 153.28C310.407 160.383 310.54 167.781 307.659 174.44Z" fill="#DDC69B"/>
<g style="mix-blend-mode:multiply">
<path d="M319.319 144.105L319.142 139.414C316.881 140.228 309.831 141.693 308.457 143.691C307.629 144.904 308.161 147.553 308.738 149.906C311.907 147.38 315.486 145.418 319.319 144.105Z" fill="#DDC69B"/>
</g>
<g style="mix-blend-mode:multiply">
<path d="M302.589 185.095C302.361 185.875 302.193 186.671 302.087 187.477C301.644 191.295 302.944 195.068 304.23 198.679C304.659 196.816 305.289 195.005 306.107 193.278C304.588 190.713 303.406 187.962 302.589 185.095Z" fill="#DDC69B"/>
</g>
<path d="M201.59 181.618C206.568 181.663 211.543 181.396 216.488 180.819C236.38 178.333 227.483 146.917 225.562 133.881C221.783 108.083 213.546 83.1415 201.221 60.1735C200.037 57.4898 198.173 55.1634 195.812 53.4258C193.38 52.1905 190.691 51.5467 187.964 51.5465L169.934 50.1407C167.672 49.773 165.355 49.9817 163.195 50.7474C161.19 51.8764 159.518 53.5148 158.347 55.4974C145.797 73.3496 136.168 93.0907 129.824 113.978C124.844 130.255 114.691 158.371 125.937 174.337C130.726 181.129 142.017 179.058 149.362 179.413L185.703 181.115C190.979 181.366 196.285 181.618 201.59 181.618Z" fill="url(#paint29_linear)"/>
<path style="mix-blend-mode:multiply" d="M197.334 54.6238C190.536 60.7352 192.901 72.381 193.994 80.9044C194.822 86.9418 195.221 93.3492 193.27 99.2239C191.245 105.335 187.078 109.834 181.935 113.533C181.527 113.865 181.042 114.088 180.525 114.181C180.008 114.275 179.476 114.235 178.979 114.066C171.057 114.51 173.998 127.635 175.033 132.711C176.604 140.097 178.683 147.365 181.255 154.463C184.477 163.342 192.664 160.886 199.684 158.045C207.532 154.878 215.631 149.699 224.335 149.58C225.681 149.554 227.022 149.738 228.311 150.128C227.439 143.868 226.153 137.949 225.547 133.85C221.768 108.053 213.532 83.1113 201.206 60.1433C200.216 58.1097 198.909 56.2466 197.334 54.6238Z" fill="url(#paint30_linear)"/>
<path d="M242.277 317.43C241.444 318.504 240.881 319.763 240.636 321.1C240.527 321.77 240.631 322.458 240.933 323.066C241.236 323.674 241.721 324.172 242.321 324.489C243.49 324.793 244.731 324.629 245.779 324.03C251.159 321.766 256.583 318.333 258.681 312.873C260.78 307.412 256.006 305.193 251.425 307.338C247.568 309.143 244.582 314.012 242.277 317.43Z" fill="url(#paint31_linear)"/>
<path d="M271.45 314.16C273.258 317.152 275.438 319.901 277.938 322.343C278.517 323.056 279.238 323.642 280.055 324.062C280.871 324.482 281.766 324.728 282.682 324.784C285.165 324.622 286.776 321.825 286.599 319.339C286.197 316.867 285.152 314.545 283.569 312.606C281.101 308.98 278.663 306.45 274.155 306.554C268.82 306.657 268.879 309.839 271.45 314.16Z" fill="url(#paint32_linear)"/>
<path d="M156.012 18.9026C155.066 21.9638 153.198 24.6568 150.662 26.6122C158.673 28.6543 167.392 30.4152 174.988 27.1449C177.993 25.8174 180.66 23.8298 182.792 21.3294C183.161 20.7759 183.671 20.3314 184.27 20.042C184.938 19.9169 185.629 19.9783 186.265 20.2196L195.058 22.8092C193.078 20.338 196.536 16.8901 196.093 13.7235C195.923 12.7123 195.501 11.7604 194.866 10.9563C189.235 2.95073 179.659 2.38846 170.969 4.10499C160.904 6.11747 159.057 8.94381 156.012 18.9026Z" fill="#00478A"/>
<path d="M124.164 319.176C123.163 320.347 122.414 321.712 121.962 323.186C121.752 323.929 121.775 324.718 122.026 325.448C122.276 326.178 122.744 326.814 123.366 327.27C124.844 328.203 126.868 327.448 128.465 326.634C133.408 324.099 138.061 321.032 142.342 317.489C144.433 315.889 146.228 313.936 147.648 311.718C148.346 310.601 148.805 309.35 148.993 308.045C149.181 306.741 149.096 305.411 148.741 304.142L137.347 304.008C132.736 303.92 126.765 315.758 124.164 319.176Z" fill="url(#paint33_linear)"/>
<path d="M188.29 321.988C190.106 323.653 192.312 324.834 194.704 325.421C195.89 325.694 197.13 325.627 198.28 325.226C199.431 324.826 200.445 324.108 201.206 323.157C202.862 320.715 202.034 317.386 200.911 314.648C199.634 311.546 198.065 308.573 196.226 305.769C195.853 305.12 195.35 304.556 194.748 304.112C193.861 303.685 192.875 303.511 191.896 303.609C186.812 303.609 179.6 302.47 174.929 303.979C178.949 310.623 181.994 316.897 188.29 321.988Z" fill="url(#paint34_linear)"/>
<path d="M90.3349 313.746C88.9384 314.458 87.5025 315.091 86.0342 315.64C85.9974 314.545 85.6925 313.475 85.1462 312.526C84.5998 311.576 83.8289 310.776 82.9011 310.194C81.9618 309.633 80.8993 309.311 79.8067 309.257C78.714 309.202 77.6249 309.418 76.6348 309.884C76.1259 310.151 75.6324 310.448 75.1569 310.771C74.8613 309.025 76.6348 307.116 77.3885 305.711C78.5031 303.713 79.4903 301.647 80.3443 299.525C80.5534 298.817 80.9769 298.192 81.5562 297.735C81.8253 297.572 82.1202 297.457 82.4281 297.394C86.3562 296.596 90.431 296.951 94.1626 298.415C97.2957 299.644 102.646 304.482 99.0101 307.768C96.3878 310.126 93.4719 312.136 90.3349 313.746Z" fill="url(#paint35_linear)"/>
<path d="M45.8504 300.62C46.1282 300.868 46.4487 301.064 46.7963 301.197C50.4466 302.529 57.5701 301.434 60.8362 299.495C60.5406 294.464 59.3583 290.617 55.5749 287.021C55.5749 287.021 44.4908 291.949 43.8996 292.792C42.5695 294.612 43.9144 298.933 45.8504 300.62Z" fill="url(#paint36_linear)"/>
<path d="M105.809 165.488C105.661 166.358 105.336 167.189 104.856 167.93C104.376 168.67 103.749 169.305 103.015 169.794C97.6655 172.665 88.2365 166.923 82.724 166.391C79.2953 166.05 75.8666 166.834 72.3788 167.175C68.3146 167.574 59.6393 168.255 56.3436 165.192C51.171 160.383 50.506 150.631 50.5503 143.972C50.5503 138.053 52.2351 131.853 56.255 127.458C60.2748 123.063 66.6002 120.917 70.9009 116.478C74.3739 112.838 77.6844 106.356 79.6352 101.68C79.8315 101.037 80.2055 100.463 80.7141 100.023C81.1668 99.7673 81.6728 99.6204 82.192 99.594C85.5444 99.2392 88.9195 99.1501 92.2859 99.3276C93.2307 100.933 93.7638 102.748 93.8377 104.61C93.8377 106.09 93.6604 107.57 93.616 109.05C93.3057 119.956 104.272 121.642 105.912 130.269C108.195 141.713 108.195 153.496 105.912 164.94C105.897 165.103 105.853 165.295 105.809 165.488Z" fill="#D00038"/>
<path d="M105.809 165.488C105.661 166.358 105.336 167.189 104.856 167.93C104.376 168.67 103.749 169.305 103.015 169.794C97.6655 172.665 88.2365 166.923 82.724 166.391C79.2953 166.05 75.8666 166.834 72.3788 167.175C68.3146 167.574 59.6393 168.255 56.3436 165.192C51.171 160.383 50.506 150.631 50.5503 143.972C50.5503 138.053 52.2351 131.853 56.255 127.458C60.2748 123.063 66.6002 120.917 70.9009 116.478C74.3739 112.838 77.6844 106.356 79.6352 101.68C79.8315 101.037 80.2055 100.463 80.7141 100.023C81.1668 99.7673 81.6728 99.6204 82.192 99.594C85.5444 99.2392 88.9195 99.1501 92.2859 99.3276C93.2307 100.933 93.7638 102.748 93.8377 104.61C93.8377 106.09 93.6604 107.57 93.616 109.05C93.3057 119.956 104.272 121.642 105.912 130.269C108.195 141.713 108.195 153.496 105.912 164.94C105.897 165.103 105.853 165.295 105.809 165.488Z" fill="url(#paint37_linear)"/>
<path style="mix-blend-mode:multiply" d="M94.7835 114.717C93.9892 112.927 93.62 110.977 93.7046 109.02C93.7046 107.54 93.9854 106.06 93.9263 104.581C93.8524 102.718 93.3193 100.904 92.3745 99.2979C89.0081 99.1204 85.6329 99.2094 82.2805 99.5642C81.7613 99.5907 81.2554 99.7376 80.8026 99.9933C80.2941 100.433 79.9201 101.007 79.7238 101.651C77.773 106.282 74.4625 112.764 70.9895 116.448C66.7331 120.888 60.5112 122.856 56.3436 127.428C52.1759 132.001 50.6833 137.979 50.6389 143.942C50.6389 150.601 51.2596 160.353 56.4322 165.162C58.1023 166.716 61.1615 167.308 64.2798 167.456C63.6591 160.9 62.2995 154.907 63.201 148.219C63.9279 142.009 66.4209 136.138 70.3835 131.305C74.3738 126.555 79.8716 123.655 85.2954 120.843C88.0353 119.532 90.6434 117.961 93.0839 116.152C93.4663 115.49 94.0674 114.983 94.7835 114.717Z" fill="url(#paint38_linear)"/>
<path style="mix-blend-mode:multiply" d="M106.001 130.24C105.232 126.171 102.38 123.64 99.6309 120.977C99.554 123.625 99.7922 126.272 100.34 128.864C101.573 137.523 101.383 146.325 99.7787 154.923C99.4684 156.476 95.7885 170.135 95.951 170.164C98.276 170.876 100.777 170.745 103.015 169.794C103.749 169.305 104.376 168.67 104.856 167.93C105.336 167.189 105.66 166.359 105.809 165.488C105.809 165.296 105.897 165.103 105.927 164.911C108.234 153.472 108.26 141.689 106.001 130.24Z" fill="url(#paint39_linear)"/>
<path d="M121.252 216.185L127.06 214.942C128.198 214.705 114.883 178.495 112.282 174.87C110.272 172.132 107.493 167.323 105.04 166.095C101.123 164.141 93.7193 165.162 89.4629 165.281C79.0438 165.562 68.5065 166.982 58.176 164.926C56.6981 164.63 55.0577 164.319 53.8901 165.236C53.33 165.747 52.895 166.38 52.6192 167.086C49.2643 174.115 45.2297 180.537 41.9931 187.729C37.7368 197.347 34.9879 207.188 30.8499 216.895C32.6538 214.793 35.0309 213.263 37.69 212.493C40.3491 211.723 43.1747 211.746 45.8209 212.559C48.7767 213.521 51.8802 215.519 54.6882 214.157C57.0528 213.062 57.9987 210.088 60.2155 208.712C63.0383 206.981 66.7182 208.475 69.4375 210.34C72.1569 212.204 74.9057 214.587 78.2162 214.646C81.5267 214.705 84.9849 212.204 88.2659 213.166C90.9556 213.965 92.6995 216.895 95.5223 217.221C98.4781 217.561 101.064 214.661 104.094 214.513C107.124 214.365 109.562 216.925 112.518 217.472C114.115 217.634 115.729 217.499 117.277 217.073L121.252 216.185Z" fill="url(#paint40_linear)"/>
<path style="mix-blend-mode:multiply" d="M112.208 174.869C110.198 172.132 107.419 167.323 104.966 166.094C101.316 164.274 94.621 165.029 90.3203 165.236C94.5887 167.904 98.0802 171.65 100.444 176.098C104.996 184.014 106.947 193.011 110.05 201.505C111.986 206.832 114.233 212.026 116.641 217.161L117.203 217.043L121.253 216.184L127.061 214.941C128.199 214.705 114.883 178.495 112.208 174.869Z" fill="url(#paint41_linear)"/>
<path style="mix-blend-mode:multiply" d="M71.2556 202.971C70.9896 201.417 70.7235 192.612 68.6988 192.612C66.6741 192.612 64.2652 196.741 63.4228 198.265C61.1583 202.115 59.4045 206.243 58.2058 210.547C58.7459 209.833 59.4 209.213 60.1418 208.712C62.9646 206.981 66.6446 208.475 69.3639 210.34C70.8689 211.475 72.4381 212.523 74.0636 213.477C72.7895 210.074 71.8491 206.556 71.2556 202.971Z" fill="url(#paint42_linear)"/>
<path style="mix-blend-mode:multiply" d="M95.4634 207.499C93.7491 204.539 92.4337 199.671 89.9509 197.244C88.2661 195.601 87.2316 196.534 87.202 198.812C87.1725 201.091 87.5124 203.459 87.5419 205.753C87.5715 208.046 87.8523 210.68 88.0296 213.151H88.1922C90.882 213.95 92.6258 216.88 95.4486 217.206C97.429 217.428 99.1877 216.259 101.035 215.386C98.9904 212.895 97.1284 210.259 95.4634 207.499Z" fill="url(#paint43_linear)"/>
<path d="M80.4035 99.0171C81.2328 100.275 82.3456 101.32 83.6523 102.068C84.9589 102.816 86.4228 103.246 87.9259 103.323C89.4594 103.223 90.9473 102.761 92.2677 101.973C93.5882 101.186 94.7035 100.097 95.5223 98.7951C97.1281 96.1761 98.2495 93.2888 98.8328 90.2716C99.621 87.0655 100.296 83.8297 100.857 80.5644C101.552 76.4802 102.04 72.1149 100.296 68.3563C96.2465 59.6109 82.0292 58.2643 77.1373 66.7286C72.5707 74.7045 75.4378 91.9882 80.4035 99.0171Z" fill="#DDC69B"/>
<path d="M26.2241 139.859C27.0369 142.818 28.3227 148.737 30.6578 150.883C32.3426 152.363 35.0914 151.771 37.0127 150.646C38.8703 149.663 40.462 148.243 41.6513 146.508C42.8405 144.774 43.5917 142.776 43.8405 140.687C44.0622 137.343 42.806 133.288 41.9488 130.077C39.5545 121.125 36.456 112.377 32.6825 103.915C32.0913 102.568 31.5741 100.763 32.6825 99.8457C33.182 99.5092 33.7656 99.3195 34.3673 99.2982C39.0965 98.6619 43.2346 99.0614 42.8947 93.024L42.6287 89.0138C42.6429 88.3449 42.4743 87.6848 42.141 87.1049C41.7494 86.705 41.2654 86.4079 40.7317 86.2401C40.1981 86.0723 39.6313 86.039 39.0817 86.1431C33.2125 86.6792 27.5963 88.7905 22.825 92.2545C18.0661 95.6727 19.1007 102.613 19.8692 107.703C21.3213 118.543 23.4437 129.282 26.2241 139.859Z" fill="#DDC69B"/>
<path d="M25.1748 87.5338C25.4999 88.8508 25.8103 90.0347 25.9138 90.7006C25.293 88.1702 42.5548 87.0307 42.54 87.2675C42.6462 83.8596 42.4633 80.4489 41.9932 77.072C40.5316 77.359 39.0313 77.3891 37.5595 77.1607C36.4767 77.1757 35.3978 77.2946 34.3377 77.5159C32.2982 77.8858 25.6773 78.3741 24.4654 80.1794C23.7412 81.3336 24.495 84.7815 25.1748 87.5338Z" fill="url(#paint44_linear)"/>
<path d="M41.7271 111.906C37.6482 113.06 29.4163 114.984 29.1946 113.282L27.4211 99.8307C32.2603 98.6547 37.1592 97.7409 42.0966 97.0932C42.806 101.784 43.4119 106.49 43.8848 111.225C43.604 111.343 42.8208 111.55 41.7271 111.906Z" fill="url(#paint45_linear)"/>
<path d="M88.9016 76.7022C94.2367 76.0659 99.3946 76.9537 97.6654 84.101C96.9505 86.2538 96.0351 88.3346 94.9314 90.316C93.1727 94.2226 92.8771 99.4017 96.0398 102.287C97.5177 103.619 99.6015 104.344 100.636 106.046C102.114 108.443 100.813 111.506 100.799 114.318C100.799 119.601 105.232 123.626 108.794 127.473C109.356 128.014 109.825 128.644 110.183 129.337C110.819 130.817 110.523 132.445 111.026 133.925C111.261 134.517 111.615 135.055 112.067 135.505C112.518 135.955 113.057 136.307 113.65 136.54C114.243 136.773 114.877 136.882 115.514 136.86C116.151 136.837 116.776 136.685 117.351 136.411C116.42 132.637 116.538 128.154 119.346 125.46C120.248 124.587 121.371 123.981 122.302 123.167C124.204 121.378 125.758 119.25 126.883 116.893C128.243 114.421 129.632 111.506 128.524 108.917C127.864 107.782 127.133 106.69 126.337 105.646C125.732 104.404 125.402 103.046 125.369 101.665C125.336 100.283 125.6 98.9107 126.144 97.6408C127.09 95.0365 128.642 92.7132 129.81 90.242C140.776 66.9209 117.587 40.3148 93.6604 41.9573C90.4412 42.2439 87.3062 43.1429 84.4236 44.6061C69.0978 51.9753 66.9844 79.351 88.9016 76.7022Z" fill="url(#paint46_linear)"/>
<g style="mix-blend-mode:multiply" opacity="0.35">
<path d="M116.006 136.011C112.947 130.462 109.695 124.75 110.523 118.254C111.262 112.335 115.09 107.807 111.646 101.977C109.518 98.3957 107.213 95.3474 107.124 90.9821C107.124 85.1962 111.055 80.5201 111.794 74.9414C112.666 68.3565 105.572 66.2108 100.444 65.5449C95.552 64.8938 90.4828 64.7606 86.0343 62.3338C83.775 61.0196 81.8674 59.1768 80.475 56.963C79.0825 54.7493 78.2467 52.2306 78.039 49.6227C69.0534 60.1438 70.5461 78.9516 88.9015 76.7319C94.2366 76.0956 99.3945 76.9835 97.6653 84.1308C96.9476 86.2873 96.0324 88.3727 94.9312 90.3605C93.1726 94.2523 92.877 99.4315 96.0397 102.317C97.5176 103.649 99.6014 104.374 100.636 106.076C102.114 108.473 100.813 111.536 100.798 114.348C100.798 119.63 105.232 123.655 108.794 127.503C109.356 128.044 109.825 128.674 110.183 129.367C110.819 130.847 110.523 132.475 111.025 133.954C111.44 135.011 112.221 135.881 113.226 136.406C114.231 136.931 115.391 137.074 116.494 136.81C116.302 136.563 116.139 136.295 116.006 136.011Z" fill="#0062B9"/>
</g>
<path d="M174.22 113.904C177.186 127.717 181.702 141.15 187.684 153.946C193.137 154.434 198.502 152.585 203.66 150.75L243.563 136.648C245.087 136.237 246.498 135.483 247.686 134.443C249.755 132.327 249.652 128.953 249.164 126.023C249.164 118.284 244.73 109.242 241.597 102.347C239.898 98.588 238.287 93.986 235.863 90.6417C232.907 86.5131 229.7 88.8216 224.808 90.0794C213.369 93.0389 202.034 95.7173 190.979 99.8754C183.856 102.569 172.122 104.152 174.22 113.904Z" fill="#AAAAAA"/>
<g style="mix-blend-mode:multiply">
<path d="M204.96 95.2733C200.896 96.4571 196.847 97.7297 192.841 99.1799C193.295 99.584 193.645 100.092 193.861 100.66C199.285 114.762 203.793 130.033 213.074 142.182C216.03 145.97 223.685 150.158 222.251 142.67C221.586 139.178 202.876 95.9244 204.96 95.2733Z" fill="#AAAAAA"/>
</g>
<g style="mix-blend-mode:multiply">
<path d="M201.088 123.389C201.599 123.921 201.97 124.572 202.167 125.283C202.27 126.23 201.531 127.118 201.561 128.08C201.561 129.559 203.246 130.344 204.635 130.802C206.807 131.498 209.335 132.105 211.212 130.802C215.645 127.754 213.473 116.833 209.157 114.525C203.793 111.551 197.379 118.136 201.088 123.389Z" fill="#7A7A7A"/>
</g>
<path d="M191.984 61.6679C191.653 64.6169 191.925 67.6023 192.782 70.4429C199.376 98.5157 209.554 125.621 223.064 151.09C224.542 153.961 228.222 157.157 230.454 154.775C230.247 128.529 227.008 102.395 220.803 76.8947C219.325 70.9756 217.67 64.9382 213.68 60.3805C208.625 54.5503 193.846 51.0876 191.984 61.6679Z" fill="url(#paint47_linear)"/>
<defs>
<linearGradient id="paint0_linear" x1="123.395" y1="71.9816" x2="136.992" y2="83.9358" gradientUnits="userSpaceOnUse">
<stop stop-color="#FF57DF"/>
<stop offset="0.01" stop-color="#D00038"/>
<stop offset="1" stop-color="#682F3F"/>
</linearGradient>
<linearGradient id="paint1_linear" x1="265.694" y1="165.516" x2="473.552" y2="141.35" gradientUnits="userSpaceOnUse">
<stop stop-color="#B226D9"/>
<stop offset="0.49" stop-color="#762078"/>
<stop offset="1"/>
</linearGradient>
<linearGradient id="paint2_linear" x1="-3807.94" y1="-32988" x2="5589.58" y2="-32988" gradientUnits="userSpaceOnUse">
<stop stop-color="#B226D9"/>
<stop offset="0.49" stop-color="#762078"/>
<stop offset="1"/>
</linearGradient>
<linearGradient id="paint3_linear" x1="372.61" y1="100.615" x2="268.796" y2="342.463" gradientUnits="userSpaceOnUse">
<stop stop-color="#B226D9"/>
<stop offset="0.49" stop-color="#762078"/>
</linearGradient>
<linearGradient id="paint4_linear" x1="223.774" y1="46.3817" x2="323.339" y2="46.3817" gradientUnits="userSpaceOnUse">
<stop stop-color="#FF57DF"/>
<stop offset="0.19" stop-color="#FFBFDF"/>
<stop offset="1" stop-color="#AC2FBA"/>
</linearGradient>
<linearGradient id="paint5_linear" x1="-1266.65" y1="-8183.37" x2="21.7266" y2="-8183.37" gradientUnits="userSpaceOnUse">
<stop stop-color="#FF57DF"/>
<stop offset="0.19" stop-color="#FFBFDF"/>
<stop offset="1" stop-color="#AC2FBA"/>
</linearGradient>
<linearGradient id="paint6_linear" x1="125.346" y1="232.877" x2="214.921" y2="232.877" gradientUnits="userSpaceOnUse">
<stop stop-color="#183ED0"/>
<stop offset="0.82" stop-color="#0A006A"/>
</linearGradient>
<linearGradient id="paint7_linear" x1="-12544.5" y1="-15999.4" x2="-7339.92" y2="-15999.4" gradientUnits="userSpaceOnUse">
<stop stop-color="#183ED0"/>
<stop offset="0.82" stop-color="#0A006A"/>
</linearGradient>
<linearGradient id="paint8_linear" x1="213.517" y1="186.456" x2="324.226" y2="186.456" gradientUnits="userSpaceOnUse">
<stop stop-color="#FECD2C"/>
<stop offset="1" stop-color="#FF6422"/>
</linearGradient>
<linearGradient id="paint9_linear" x1="-3685.3" y1="-39074.1" x2="-307.904" y2="-39074.1" gradientUnits="userSpaceOnUse">
<stop stop-color="#FECD2C"/>
<stop offset="1" stop-color="#FF6422"/>
</linearGradient>
<linearGradient id="paint10_linear" x1="-1560.43" y1="-8568.59" x2="-16.0418" y2="-8568.59" gradientUnits="userSpaceOnUse">
<stop stop-color="#FECD2C"/>
<stop offset="1" stop-color="#FF6422"/>
</linearGradient>
<linearGradient id="paint11_linear" x1="87.854" y1="-920.785" x2="97.1989" y2="-920.785" gradientUnits="userSpaceOnUse">
<stop stop-color="#FECD2C"/>
<stop offset="1" stop-color="#FF6422"/>
</linearGradient>
<linearGradient id="paint12_linear" x1="63.169" y1="-783.781" x2="71.6888" y2="-783.781" gradientUnits="userSpaceOnUse">
<stop stop-color="#FECD2C"/>
<stop offset="1" stop-color="#FF6422"/>
</linearGradient>
<linearGradient id="paint13_linear" x1="119.829" y1="-735.429" x2="128.349" y2="-735.429" gradientUnits="userSpaceOnUse">
<stop stop-color="#FECD2C"/>
<stop offset="1" stop-color="#FF6422"/>
</linearGradient>
<linearGradient id="paint14_linear" x1="57.6032" y1="-611.775" x2="66.9481" y2="-611.775" gradientUnits="userSpaceOnUse">
<stop stop-color="#FECD2C"/>
<stop offset="1" stop-color="#FF6422"/>
</linearGradient>
<linearGradient id="paint15_linear" x1="9.35126" y1="-619.161" x2="17.8365" y2="-619.161" gradientUnits="userSpaceOnUse">
<stop stop-color="#FECD2C"/>
<stop offset="1" stop-color="#FF6422"/>
</linearGradient>
<linearGradient id="paint16_linear" x1="34.9254" y1="-698.1" x2="44.2326" y2="-698.1" gradientUnits="userSpaceOnUse">
<stop stop-color="#FECD2C"/>
<stop offset="1" stop-color="#FF6422"/>
</linearGradient>
<linearGradient id="paint17_linear" x1="-33.1599" y1="-492.13" x2="-23.8147" y2="-492.13" gradientUnits="userSpaceOnUse">
<stop stop-color="#FECD2C"/>
<stop offset="1" stop-color="#FF6422"/>
</linearGradient>
<linearGradient id="paint18_linear" x1="101.403" y1="-472.634" x2="109.922" y2="-472.634" gradientUnits="userSpaceOnUse">
<stop stop-color="#FECD2C"/>
<stop offset="1" stop-color="#FF6422"/>
</linearGradient>
<linearGradient id="paint19_linear" x1="134.748" y1="-558.76" x2="144.093" y2="-558.76" gradientUnits="userSpaceOnUse">
<stop stop-color="#FECD2C"/>
<stop offset="1" stop-color="#FF6422"/>
</linearGradient>
<linearGradient id="paint20_linear" x1="197.763" y1="-466.62" x2="206.249" y2="-466.62" gradientUnits="userSpaceOnUse">
<stop stop-color="#FECD2C"/>
<stop offset="1" stop-color="#FF6422"/>
</linearGradient>
<linearGradient id="paint21_linear" x1="158.104" y1="-668.966" x2="166.589" y2="-668.966" gradientUnits="userSpaceOnUse">
<stop stop-color="#FECD2C"/>
<stop offset="1" stop-color="#FF6422"/>
</linearGradient>
<linearGradient id="paint22_linear" x1="193.493" y1="-960.501" x2="202.013" y2="-960.501" gradientUnits="userSpaceOnUse">
<stop stop-color="#FECD2C"/>
<stop offset="1" stop-color="#FF6422"/>
</linearGradient>
<linearGradient id="paint23_linear" x1="154.409" y1="-923.781" x2="163.754" y2="-923.781" gradientUnits="userSpaceOnUse">
<stop stop-color="#FECD2C"/>
<stop offset="1" stop-color="#FF6422"/>
</linearGradient>
<linearGradient id="paint24_linear" x1="221.024" y1="-919.251" x2="230.369" y2="-919.251" gradientUnits="userSpaceOnUse">
<stop stop-color="#FECD2C"/>
<stop offset="1" stop-color="#FF6422"/>
</linearGradient>
<linearGradient id="paint25_linear" x1="54.5648" y1="-979.83" x2="63.9098" y2="-979.83" gradientUnits="userSpaceOnUse">
<stop stop-color="#FECD2C"/>
<stop offset="1" stop-color="#FF6422"/>
</linearGradient>
<linearGradient id="paint26_linear" x1="-40.7316" y1="-967.703" x2="-31.3867" y2="-967.703" gradientUnits="userSpaceOnUse">
<stop stop-color="#FECD2C"/>
<stop offset="1" stop-color="#FF6422"/>
</linearGradient>
<linearGradient id="paint27_linear" x1="10.7217" y1="-914.72" x2="20.0289" y2="-914.72" gradientUnits="userSpaceOnUse">
<stop stop-color="#FECD2C"/>
<stop offset="1" stop-color="#FF6422"/>
</linearGradient>
<linearGradient id="paint28_linear" x1="-72.4974" y1="-925.37" x2="-63.1524" y2="-925.37" gradientUnits="userSpaceOnUse">
<stop stop-color="#FECD2C"/>
<stop offset="1" stop-color="#FF6422"/>
</linearGradient>
<linearGradient id="paint29_linear" x1="-16204.4" y1="-36961.9" x2="-8259.07" y2="-36961.9" gradientUnits="userSpaceOnUse">
<stop stop-color="#FF57DF"/>
<stop offset="0.01" stop-color="#D00038"/>
<stop offset="1" stop-color="#682F3F"/>
</linearGradient>
<linearGradient id="paint30_linear" x1="-8063.06" y1="-30337.2" x2="-4057.61" y2="-30337.2" gradientUnits="userSpaceOnUse">
<stop stop-color="#FF57DF"/>
<stop offset="0.01" stop-color="#D00038"/>
<stop offset="1" stop-color="#682F3F"/>
</linearGradient>
<linearGradient id="paint31_linear" x1="-1053.73" y1="-2339.15" x2="-819.971" y2="-2339.15" gradientUnits="userSpaceOnUse">
<stop stop-color="#B226D9"/>
<stop offset="0.49" stop-color="#762078"/>
<stop offset="1"/>
</linearGradient>
<linearGradient id="paint32_linear" x1="-571.184" y1="-2356.67" x2="-378.82" y2="-2356.67" gradientUnits="userSpaceOnUse">
<stop stop-color="#B226D9"/>
<stop offset="0.49" stop-color="#762078"/>
<stop offset="1"/>
</linearGradient>
<linearGradient id="paint33_linear" x1="-3967.69" y1="-3153.71" x2="-3464.28" y2="-3153.71" gradientUnits="userSpaceOnUse">
<stop stop-color="#FECD2C"/>
<stop offset="1" stop-color="#FF6422"/>
</linearGradient>
<linearGradient id="paint34_linear" x1="-2928.82" y1="-2986.86" x2="-2427.31" y2="-2986.86" gradientUnits="userSpaceOnUse">
<stop stop-color="#FECD2C"/>
<stop offset="1" stop-color="#FF6422"/>
</linearGradient>
<linearGradient id="paint35_linear" x1="-4483.87" y1="-2547.09" x2="-4056.31" y2="-2547.09" gradientUnits="userSpaceOnUse">
<stop stop-color="#FF57DF"/>
<stop offset="0.01" stop-color="#D00038"/>
<stop offset="1" stop-color="#682F3F"/>
</linearGradient>
<linearGradient id="paint36_linear" x1="-3504.19" y1="-2081.31" x2="-3297.69" y2="-2081.31" gradientUnits="userSpaceOnUse">
<stop stop-color="#FF57DF"/>
<stop offset="0.01" stop-color="#D00038"/>
<stop offset="1" stop-color="#682F3F"/>
</linearGradient>
<linearGradient id="paint37_linear" x1="50.6094" y1="134.931" x2="107.671" y2="134.931" gradientUnits="userSpaceOnUse">
<stop stop-color="#F7F2A7"/>
<stop offset="0.01" stop-color="#08885E"/>
<stop offset="0.53" stop-color="#007B64"/>
<stop offset="1" stop-color="#9ABF00"/>
</linearGradient>
<linearGradient id="paint38_linear" x1="-8697.04" y1="-18276.2" x2="-6992.62" y2="-18276.2" gradientUnits="userSpaceOnUse">
<stop stop-color="#F7F2A7"/>
<stop offset="0.01" stop-color="#08885E"/>
<stop offset="0.53" stop-color="#007B64"/>
<stop offset="1" stop-color="#9ABF00"/>
</linearGradient>
<linearGradient id="paint39_linear" x1="-2228.7" y1="-12828.6" x2="-1775.67" y2="-12828.6" gradientUnits="userSpaceOnUse">
<stop stop-color="#F7F2A7"/>
<stop offset="0.01" stop-color="#08885E"/>
<stop offset="0.53" stop-color="#007B64"/>
<stop offset="1" stop-color="#9ABF00"/>
</linearGradient>
<linearGradient id="paint40_linear" x1="-20339.9" y1="-12019.1" x2="-14062.5" y2="-12019.1" gradientUnits="userSpaceOnUse">
<stop stop-color="#B226D9"/>
<stop offset="0.49" stop-color="#762078"/>
<stop offset="1"/>
</linearGradient>
<linearGradient id="paint41_linear" x1="-7697.75" y1="-11869.2" x2="-5297.8" y2="-11869.2" gradientUnits="userSpaceOnUse">
<stop stop-color="#B226D9"/>
<stop offset="0.49" stop-color="#762078"/>
<stop offset="1"/>
</linearGradient>
<linearGradient id="paint42_linear" x1="-3296.98" y1="-4442.9" x2="-2263.05" y2="-4442.9" gradientUnits="userSpaceOnUse">
<stop stop-color="#B226D9"/>
<stop offset="0.49" stop-color="#762078"/>
<stop offset="1"/>
</linearGradient>
<linearGradient id="paint43_linear" x1="-2850.35" y1="-4376.01" x2="-1934.07" y2="-4376.01" gradientUnits="userSpaceOnUse">
<stop stop-color="#B226D9"/>
<stop offset="0.49" stop-color="#762078"/>
<stop offset="1"/>
</linearGradient>
<linearGradient id="paint44_linear" x1="-3950.72" y1="-4048.17" x2="-3721.84" y2="-4048.17" gradientUnits="userSpaceOnUse">
<stop stop-color="#B226D9"/>
<stop offset="0.49" stop-color="#762078"/>
<stop offset="1"/>
</linearGradient>
<linearGradient id="paint45_linear" x1="-3493.34" y1="-4760.32" x2="-3309.93" y2="-4760.32" gradientUnits="userSpaceOnUse">
<stop stop-color="#B226D9"/>
<stop offset="0.49" stop-color="#762078"/>
<stop offset="1"/>
</linearGradient>
<linearGradient id="paint46_linear" x1="72.6891" y1="89.3541" x2="132.632" y2="89.3541" gradientUnits="userSpaceOnUse">
<stop stop-color="#FF57DF"/>
<stop offset="0.01" stop-color="#4F00F3"/>
<stop offset="0.55" stop-color="#AE2FBA"/>
<stop offset="1" stop-color="#7F2FBA"/>
</linearGradient>
<linearGradient id="paint47_linear" x1="-3626.69" y1="-28505.8" x2="-2115.32" y2="-28757.5" gradientUnits="userSpaceOnUse">
<stop stop-color="#FF57DF"/>
<stop offset="0.01" stop-color="#D00038"/>
<stop offset="1" stop-color="#682F3F"/>
</linearGradient>
</defs>
</svg>
