<svg width="0" height="0" class="hidden">
  <symbol xmlns="http://www.w3.org/2000/svg" viewBox="0 0 14 22" id="arrow">
    <path d="M12.5261 0.723606C12.8321 1.02961 13.0039 1.44457 13.0039 1.87726C13.0039 2.30994 12.8321 2.72491 12.5261 3.03091L4.44895 11.1081L12.5261 19.1853C12.8234 19.4931 12.9879 19.9052 12.9841 20.3331C12.9804 20.7609 12.8088 21.1702 12.5063 21.4727C12.2037 21.7753 11.7945 21.9469 11.3666 21.9506C10.9388 21.9543 10.5266 21.7898 10.2188 21.4926L0.987997 12.2618C0.68209 11.9558 0.510241 11.5408 0.510241 11.1081C0.510241 10.6754 0.68209 10.2605 0.987997 9.95445L10.2188 0.723606C10.5248 0.417699 10.9398 0.24585 11.3725 0.24585C11.8052 0.24585 12.2202 0.417699 12.5261 0.723606Z"></path>
  </symbol>
  <symbol version="1.1" id="check" xmlns="http://www.w3.org/2000/svg" xmlns:xlink="http://www.w3.org/1999/xlink" x="0px" y="0px" xml:space="preserve" viewBox="0 0 17.837 17.837">
    <g>
      <path d="M16.145,2.571c-0.272-0.273-0.718-0.273-0.99,0L6.92,10.804l-4.241-4.27
		c-0.272-0.274-0.715-0.274-0.989,0L0.204,8.019c-0.272,0.271-0.272,0.717,0,0.99l6.217,6.258c0.272,0.271,0.715,0.271,0.99,0
		L17.63,5.047c0.276-0.273,0.276-0.72,0-0.994L16.145,2.571z"></path>
    </g>
    <g></g>
    <g></g>
    <g></g>
    <g></g>
    <g></g>
    <g></g>
    <g></g>
    <g></g>
    <g></g>
    <g></g>
    <g></g>
    <g></g>
    <g></g>
    <g></g>
    <g></g>
  </symbol>
  <symbol xmlns="http://www.w3.org/2000/svg" viewBox="0 0 12 16" id="triangle">
    <path fill-rule="evenodd" d="m0 5 6 6 6-6z"></path>
  </symbol>
</svg>